<svg xmlns="http://www.w3.org/2000/svg" width="13" height="13" viewBox="120 0 450 450">
    <defs>
        <style>
            .a{fill:#fff;}.b{fill:#464547;}.c{fill:#1180c4;}.d{fill:#08b1d5;}.e{fill:#faaf42;}.f{fill:#231f20;opacity:0.3;}
        </style>
    </defs>
    <path class="a" d="M484.22,255.05,455,128.17A22.49,22.49,0,0,0,442.84,113L324.56,56.51a23,23,0,0,0-9.79-2.22s-.84,0-1.18,0h-.11a22.65,22.65,0,0,0-8.55,2.18L186.72,113a22.65,22.65,0,0,0-12.25,15.29l-29.15,126.8a22.38,22.38,0,0,0-.24,8.63c.08.44.16.88.26,1.31a22.29,22.29,0,0,0,3,7.25c.4.61.83,1.21,1.28,1.78L231.5,375.79a23.08,23.08,0,0,0,17.67,8.43h0l131.21,0h0a23,23,0,0,0,17.66-8.42l75.11-93.43,6.68-8.32a22,22,0,0,0,3.29-5.67,22.8,22.8,0,0,0,1.08-13.3Z"/>
    <path class="c" d="M455,128.17a22.39,22.39,0,0,0-4.27-8.84l-25.66,20.92a18.38,18.38,0,0,1,2.05,4.85c1.3,1.6,24,98.78,24,101a18.72,18.72,0,0,1-.11,8.26,19.61,19.61,0,0,1-.72,2.37,18.28,18.28,0,0,1-2.5,4.57c0,.17-5.05,6.58-5.08,6.75-.31,2-57.57,73.79-58.92,75.14a20,20,0,0,1-7.11,5.43,19.71,19.71,0,0,1-7.17,1.78h0c-1.54,1.14-68.87,1.84-70.94,1.84-1,0-35-.16-35.92-.47h0a20.19,20.19,0,0,1-14.51-6.85c-2.63-1.34-65.9-80.19-66.34-83.21-.35-.48-.68-1-1-1.48a19.55,19.55,0,0,1-2.34-6c-.08-.36-.14-.72-.2-1.08a19.54,19.54,0,0,1,.16-7.07c0-2.29,22.69-99.48,24.07-101.09a18.82,18.82,0,0,1,4.1-7.73,19.1,19.1,0,0,1,5.76-4.46c1.56-1.48,92.3-44.79,94.59-44.89a19.12,19.12,0,0,1,6.86-1.65h.09l.95,0A19.42,19.42,0,0,1,322.69,88c2,.13,67.62,31.35,88.43,41.76l24.65-20.1L324.56,56.51a23,23,0,0,0-9.79-2.22s-.84,0-1.18,0h-.11a22.65,22.65,0,0,0-8.55,2.18L186.72,113a22.65,22.65,0,0,0-12.25,15.29l-29.15,126.8a22.38,22.38,0,0,0-.24,8.63c.08.44.16.88.26,1.31a22.29,22.29,0,0,0,3,7.25c.4.61.83,1.21,1.28,1.78L231.5,375.79a23.08,23.08,0,0,0,17.67,8.43h0l131.21,0h0a23,23,0,0,0,17.66-8.42l75.11-93.43,6.68-8.32a22,22,0,0,0,3.29-5.67,22.8,22.8,0,0,0,1.08-13.3Z"/>
    <path class="d" d="M399.27,162c-.06-.19-.14-.37-.2-.55l-25.83,21.06c4.46,10.83,11.68,39.91,11.68,45.66a13.42,13.42,0,0,1-.07,4.1c-.08.41-.16.81-.27,1.21a12.19,12.19,0,0,1-.9,2.34c-.06.52-1.8,3.11-1.88,3.62-.94,5.89-22.52,34.52-26.56,38.56a16.34,16.34,0,0,1-3.83,3.16,16.1,16.1,0,0,1-3.69,1.63h0c-4.63,3.43-32.16,5.46-38.35,5.46-3.07,0-17-.49-19.79-1.41h0a16.81,16.81,0,0,1-8.2-3.69c-7.87-4-34-37.08-35.37-46.15-.14-.29-.27-.58-.39-.88a15.51,15.51,0,0,1-.92-3.4c0-.2-.06-.4-.08-.6a16.23,16.23,0,0,1,0-3.94c0-6.86,9.77-44.84,13.9-49.69a13.09,13.09,0,0,1,5.11-6c4.68-4.45,40.46-21.4,47.34-21.72a13.48,13.48,0,0,1,3.48-.58H315a13.35,13.35,0,0,1,4,.61c5.83.36,31.82,12.38,42.91,19l24.61-20.07c-16.05-8.6-61.73-30.16-65.66-30.4a15.92,15.92,0,0,0-5.92-1.15h-.79a15.94,15.94,0,0,0-5.16,1.11c-4.59.22-67.85,30.35-71,33.31a15.76,15.76,0,0,0-7.49,9.08c-2.75,3.24-19,70.82-19,75.4a17.49,17.49,0,0,0-.08,5.5c0,.28.08.56.14.84a17.33,17.33,0,0,0,1.63,4.68c.22.4.44.8.69,1.18.88,6,45.6,62,50.85,64.68a17.74,17.74,0,0,0,11.36,5.27h0c1.85.61,25.81.94,27.85.94,4.14,0,51.56-1.36,54.65-3.65h0A17.09,17.09,0,0,0,364,314.9a17.45,17.45,0,0,0,5.47-4.29c2.7-2.69,42.12-52.92,42.75-56.85.05-.34,3.44-4.84,3.48-5.18a15,15,0,0,0,1.69-3.46,15.27,15.27,0,0,0,.5-1.79,15.68,15.68,0,0,0,.09-6.18C418,232.72,401.86,165.22,399.27,162Z"/>
    <path class="e" d="M320.14,225.84a8.5,8.5,0,1,1-10.74-13.17l27.94-22.79a37,37,0,1,0,10.75,13.17Z"/>
    <path class="f" d="M425.34,341.84l10.71-13.33L320.78,213.24a8.5,8.5,0,0,0-12,12Z"/>
    <path class="b" d="M551.88,91.24,516.74,80.18l2.52-1.87a8.5,8.5,0,1,0-10.12-13.65l-2.81,2.07-.22-36.1c-.24-1.46-1.47-2.09-2.6-1.25L488.42,41c-1.14.84-1.51,2.77-1.51,4.3L487.13,81l-11.32,8.39-.22-36.25c-.24-1.46-1.48-2.09-2.61-1.25l-15.09,11.6c-1.14.84-1.5,2.2-1.5,4.29l.21,35.84L309.71,212.43a8.5,8.5,0,0,0,10.12,13.66L466.67,117.28l35.17,11.07c1.44.4,3.42.66,4.55-.18l15.4-11.6c1.13-.84.89-2.2-.44-2.86l-35-11,10.7-7.93,35.32,11.11c.94.36,3.41.66,4.55-.18l15.4-11.6C553.45,93.26,553.2,91.89,551.88,91.24Z"/>
</svg>