<svg width="13" height="13" viewBox="0 0 340 389" fill="none" xmlns="http://www.w3.org/2000/svg">
	<path d="M81.8707 388.384C71.5889 386.407 62.6912 381.662 55.1776 374.148C48.0594 366.635 44.5004 357.341 44.5004 346.269V96.5403C37.3822 97.7267 30.4618 96.9358 23.7391 94.1676C17.0164 91.004 11.6778 87.0495 7.72326 82.304C3.76873 77.1632 1.59374 71.4291 1.19829 65.1019C0.407383 58.3792 2.38465 52.0519 7.13008 46.1201C12.271 39.3974 18.4005 33.8611 25.5186 29.5111C32.6368 24.7657 40.1504 21.0089 48.0594 18.2407C55.9685 15.0771 64.0753 12.5067 72.3798 10.5294C81.0797 8.55212 89.3843 6.77257 97.2933 5.19077C119.439 1.63168 141.584 0.84077 163.729 2.81804C185.875 4.39986 206.834 9.1453 226.606 17.0544C246.379 24.9634 264.372 36.0361 280.586 50.2724C297.195 64.5087 310.64 82.3041 320.922 103.659C327.249 116.708 331.797 130.352 334.565 144.588C337.333 158.429 338.915 172.467 339.31 186.704C339.706 205.29 337.531 223.283 332.785 240.683C328.04 258.083 320.922 274.494 311.431 289.917C301.94 304.944 290.472 318.389 277.027 330.253C263.581 342.116 248.554 352.003 231.945 359.912C217.313 366.635 201.693 371.578 185.084 374.741C168.87 377.905 152.854 380.673 137.036 383.046C129.127 384.232 120.625 385.419 111.53 386.605C102.83 388.187 94.3274 388.978 86.0229 388.978L81.8707 388.384ZM145.934 73.4064C140.793 73.4064 135.85 73.6041 131.105 73.9995C126.755 74.395 122.009 74.9882 116.868 75.7791V313.644C119.241 313.644 121.218 313.446 122.8 313.051C124.382 312.655 125.964 312.458 127.545 312.458C129.127 312.458 130.511 312.26 131.698 311.864C137.234 311.073 141.782 310.48 145.341 310.085C148.9 309.689 152.261 309.294 155.425 308.898C158.588 308.108 161.752 307.317 164.916 306.526C168.475 305.735 172.429 304.746 176.779 303.56C199.716 297.628 217.709 288.335 230.759 275.68C244.204 262.63 254.288 244.835 261.011 222.294C265.361 209.244 267.338 195.997 266.943 182.551C266.547 169.106 263.977 156.254 259.231 143.995C254.881 131.736 248.356 120.663 239.656 110.777C230.956 100.495 220.279 92.3881 207.625 86.4563C197.343 81.7109 187.061 78.5472 176.779 76.9654C166.893 75.3836 156.611 74.1973 145.934 73.4064Z" fill="#EDD6AE"/>
	<mask id="mask0_179_7595" style="mask-type:alpha" maskUnits="userSpaceOnUse" x="1" y="1" width="339" height="388">
		<path d="M44.0387 93.7706C37.4635 94.8664 31.094 94.1465 24.8718 91.5972C18.4969 88.5884 13.5448 84.8892 9.91555 80.5485C6.31503 75.8516 4.35939 70.6644 4.00079 64.9267L3.996 64.8501L3.98702 64.7738C3.29495 58.8911 4.98368 53.2981 9.32274 47.8742L9.34194 47.8502L9.36061 47.8258C14.294 41.3745 20.1649 36.0736 26.9828 31.9071L27.0301 31.8782L27.0762 31.8475C34.0025 27.23 41.305 23.5798 48.9871 20.891L49.0451 20.8707L49.1023 20.8478C56.879 17.7371 64.85 15.2094 73.0162 13.2643C81.6704 11.2976 89.9288 9.52777 97.7915 7.95471C119.692 4.43944 141.586 3.66007 163.48 5.61488L163.504 5.6171L163.529 5.61887C185.398 7.18092 206.071 11.8647 225.564 19.6615C245.036 27.4505 262.756 38.3538 278.733 52.3824L278.746 52.3934L278.758 52.4043C295.048 66.3674 308.264 83.8426 318.392 104.877L318.395 104.884C324.616 117.715 329.087 131.126 331.809 145.124L331.81 145.131L331.811 145.139C334.548 158.819 336.112 172.696 336.503 186.771C336.892 205.093 334.748 222.815 330.076 239.944C325.403 257.079 318.396 273.238 309.049 288.429C299.704 303.224 288.412 316.462 275.169 328.147C261.929 339.83 247.127 349.57 230.755 357.368C216.345 363.987 200.949 368.861 184.558 371.983L184.546 371.985C168.371 375.141 152.396 377.902 136.62 380.269C128.731 381.452 120.247 382.636 111.166 383.821L111.097 383.83L111.027 383.842C102.552 385.383 94.2842 386.157 86.2214 386.17L82.3354 385.614C72.6538 383.74 64.2914 379.281 57.1904 372.19C50.6201 365.241 47.3083 356.664 47.3083 346.269V96.5403V93.2256L44.0387 93.7706ZM146.141 70.6061L146.038 70.5984H145.934C140.721 70.5984 135.7 70.7989 130.871 71.2013L130.861 71.2021L130.85 71.2031C126.433 71.6047 121.629 72.2056 116.441 73.0038L114.06 73.3701V75.7791V313.644V316.452H116.868C119.376 316.452 121.601 316.245 123.481 315.775C124.847 315.433 126.2 315.265 127.545 315.265C129.253 315.265 130.861 315.065 132.329 314.611C137.744 313.839 142.182 313.261 145.651 312.876C149.221 312.479 152.595 312.082 155.773 311.685L155.941 311.664L156.106 311.623L160.851 310.436L165.561 309.259C169.158 308.459 173.138 307.463 177.499 306.274C200.759 300.256 219.227 290.774 232.713 277.696L232.714 277.695C246.573 264.244 256.863 246.006 263.689 223.14C268.131 209.799 270.154 196.237 269.749 182.469C269.345 168.726 266.718 155.571 261.864 143.019C257.396 130.442 250.698 119.078 241.782 108.942C232.814 98.3499 221.814 90.0065 208.816 83.9138L208.809 83.9103L208.801 83.9068C198.305 79.0623 187.774 75.8168 177.214 74.1914C167.247 72.5969 156.889 71.4022 146.141 70.6061Z" fill="#EDD2B1" stroke="black" stroke-width="5.61594"/>
	</mask>
	<g mask="url(#mask0_179_7595)">
		<path d="M196.558 65.0475L236.619 24.3331L251.357 79.5175L196.558 65.0475Z" fill="#CDAC82" stroke="#B78D67" stroke-width="1.87198"/>
		<path d="M64.6561 25.835L114.249 54.1738L64.6561 82.5126L64.6561 25.835Z" fill="#CDAC82" stroke="#B78D67" stroke-width="1.87198"/>
		<path d="M273.313 134.771L328.419 119.743L313.39 174.849L273.313 134.771Z" fill="#CDAC82" stroke="#B78D67" stroke-width="1.87198"/>
		<path d="M248.788 287.235L277.126 237.642L305.465 287.235H248.788Z" fill="#CDAC82" stroke="#B78D67" stroke-width="1.87198"/>
		<path d="M136.673 334.242L191.303 317.567L177.934 373.099L136.673 334.242Z" fill="#CDAC82" stroke="#B78D67" stroke-width="1.87198"/>
		<path d="M69.2115 195.87L95.5955 145.21L125.846 193.66L69.2115 195.87Z" fill="#CDAC82" stroke="#B78D67" stroke-width="1.87198"/>
		<path d="M43.1057 302.632L88.307 267.712L95.4433 324.383L43.1057 302.632Z" fill="#CDAC82" stroke="#B78D67" stroke-width="1.87198"/>
		<path d="M44.0387 93.7706C37.4635 94.8664 31.094 94.1465 24.8718 91.5972C18.4969 88.5884 13.5448 84.8892 9.91555 80.5485C6.31503 75.8516 4.35939 70.6644 4.00079 64.9267L3.996 64.8501L3.98702 64.7738C3.29495 58.8911 4.98368 53.2981 9.32274 47.8742L9.34194 47.8502L9.36061 47.8258C14.294 41.3745 20.1649 36.0736 26.9828 31.9071L27.0301 31.8782L27.0762 31.8475C34.0025 27.23 41.305 23.5798 48.9871 20.891L49.0451 20.8707L49.1023 20.8478C56.879 17.7371 64.85 15.2094 73.0162 13.2643C81.6704 11.2976 89.9288 9.52777 97.7915 7.95471C119.692 4.43944 141.586 3.66007 163.48 5.61488L163.504 5.6171L163.529 5.61887C185.398 7.18092 206.071 11.8647 225.564 19.6615C245.036 27.4505 262.756 38.3538 278.733 52.3824L278.746 52.3934L278.758 52.4043C295.048 66.3674 308.264 83.8426 318.392 104.877L318.395 104.884C324.616 117.715 329.087 131.126 331.809 145.124L331.81 145.131L331.811 145.139C334.548 158.819 336.112 172.696 336.503 186.771C336.892 205.093 334.748 222.815 330.076 239.944C325.403 257.079 318.396 273.238 309.049 288.429C299.704 303.224 288.412 316.462 275.169 328.147C261.929 339.83 247.127 349.57 230.755 357.368C216.345 363.987 200.949 368.861 184.558 371.983L184.546 371.985C168.371 375.141 152.396 377.902 136.62 380.269C128.731 381.452 120.247 382.636 111.166 383.821L111.097 383.83L111.027 383.842C102.552 385.383 94.2842 386.157 86.2214 386.17L82.3354 385.614C72.6538 383.74 64.2914 379.281 57.1904 372.19C50.6201 365.241 47.3083 356.664 47.3083 346.269V96.5403V93.2256L44.0387 93.7706ZM146.141 70.6061L146.038 70.5984H145.934C140.721 70.5984 135.7 70.7989 130.871 71.2013L130.861 71.2021L130.85 71.2031C126.433 71.6047 121.629 72.2056 116.441 73.0038L114.06 73.3701V75.7791V313.644V316.452H116.868C119.376 316.452 121.601 316.245 123.481 315.775C124.847 315.433 126.2 315.265 127.545 315.265C129.253 315.265 130.861 315.065 132.329 314.611C137.744 313.839 142.182 313.261 145.651 312.876C149.221 312.479 152.595 312.082 155.773 311.685L155.941 311.664L156.106 311.623L160.851 310.436L165.561 309.259C169.158 308.459 173.138 307.463 177.499 306.274C200.759 300.256 219.227 290.774 232.713 277.696L232.714 277.695C246.573 264.244 256.863 246.006 263.689 223.14C268.131 209.799 270.154 196.237 269.749 182.469C269.345 168.726 266.718 155.571 261.864 143.019C257.396 130.442 250.698 119.078 241.782 108.942C232.814 98.3499 221.814 90.0065 208.816 83.9138L208.809 83.9103L208.801 83.9068C198.305 79.0623 187.774 75.8168 177.214 74.1914C167.247 72.5969 156.889 71.4022 146.141 70.6061Z" stroke="black" stroke-width="5.61594"/>
	</g>
</svg>
