<svg width="13" height="13" viewBox="0 0 327 389" fill="none" xmlns="http://www.w3.org/2000/svg">
	<path d="M295.937 161.48C303.585 163.775 310.086 167.599 315.44 172.952C320.794 177.924 324.236 183.66 325.765 190.161C327.677 196.28 327.295 202.589 324.618 209.09C322.324 215.209 317.161 220.754 309.13 225.725C308.365 226.873 308.174 231.653 308.557 240.066C308.939 248.097 309.13 257.466 309.13 268.173C309.513 278.881 309.322 289.78 308.557 300.87C307.792 311.577 306.071 319.99 303.394 326.109C300.717 331.08 297.467 335.478 293.643 339.302C289.818 343.126 285.803 346.759 281.597 350.201C267.447 362.056 252.342 371.043 236.281 377.161C220.219 383.662 203.775 387.486 186.949 388.633C170.123 389.781 153.106 388.06 135.897 383.471C119.071 378.882 102.818 371.616 87.1394 361.673C67.2539 349.054 50.4278 332.801 36.6609 312.916C23.2764 293.03 13.5249 271.615 7.40628 248.67C3.58215 234.139 1.28767 219.033 0.522842 203.354C0.140429 187.293 1.47888 171.614 4.53818 156.317C7.59749 140.639 12.5689 125.724 19.4523 111.575C26.3357 97.4259 34.94 84.615 45.2652 73.1426C57.5024 59.7582 71.4605 48.6682 87.1394 39.8727C103.201 31.0772 119.645 23.4289 136.471 16.9279C149.473 11.5741 162.857 7.55872 176.624 4.88184C190.391 2.20494 204.349 1.2489 218.498 2.01373C229.206 2.77857 240.678 4.69063 252.916 7.74994C265.535 10.4268 276.243 15.3982 285.038 22.6641C289.245 26.1058 292.687 30.3123 295.363 35.2837C298.423 40.2551 300.144 45.4176 300.526 50.7714C301.291 55.7428 300.717 60.7141 298.805 65.6855C296.893 70.2745 293.451 74.481 288.48 78.3052C283.509 82.1293 278.155 84.4238 272.419 85.1886C267.065 85.571 261.52 85.1886 255.784 84.0414C250.047 82.5117 244.311 80.5997 238.575 78.3052C232.839 76.0107 227.485 74.0986 222.514 72.569C218.307 71.0393 213.718 70.4657 208.747 70.8481C204.158 70.8481 199.569 71.2305 194.98 71.9954C181.596 75.8195 168.02 80.5997 154.253 86.3359C140.868 91.6896 128.44 98.3819 116.968 106.413C105.495 114.443 95.5525 124.004 87.1394 135.094C79.1088 146.184 73.9462 159.568 71.6517 175.247C68.5924 194.75 69.5484 214.253 74.5198 233.756C79.4912 252.877 88.6691 269.703 102.054 284.235C110.849 293.795 120.983 301.634 132.455 307.753C144.31 313.489 156.547 316.931 169.167 318.078C181.787 319.226 194.215 317.887 206.452 314.063C218.69 310.239 229.588 303.547 239.149 293.986V232.035C231.5 232.418 223.47 233.183 215.057 234.33C207.026 235.095 198.804 235.668 190.391 236.051C182.36 236.051 174.33 235.477 166.299 234.33C158.651 232.8 151.385 230.123 144.501 226.299C138 222.475 133.411 217.504 130.735 211.385C128.44 204.884 127.866 198.574 129.014 192.456C130.161 185.954 132.838 180.027 137.044 174.673C141.251 169.32 146.987 165.687 154.253 163.775C157.695 163.01 161.901 162.627 166.873 162.627C172.226 162.245 177.389 162.054 182.36 162.054C187.714 162.054 192.494 162.245 196.701 162.627C200.907 162.627 204.158 162.627 206.452 162.627C221.366 162.627 236.089 162.436 250.621 162.054C265.535 161.671 280.641 161.48 295.937 161.48Z" fill="#CE9F6A"/>
	<mask id="mask0_179_7598" style="mask-type:alpha" maskUnits="userSpaceOnUse" x="0" y="1" width="327" height="388">
		<path d="M214.734 231.54C223.197 230.387 231.289 229.617 239.008 229.231L241.957 229.083V232.035V293.986V295.149L241.134 295.972C231.271 305.835 219.984 312.776 207.29 316.743C194.704 320.676 181.905 322.056 168.913 320.875C155.944 319.696 143.379 316.158 131.232 310.281L131.183 310.257L131.134 310.231C119.383 303.964 108.998 295.93 99.9882 286.137C86.2915 271.266 76.8895 254.029 71.8022 234.463L71.7988 234.45C66.7365 214.59 65.7587 194.707 68.8755 174.826C71.2263 158.776 76.5325 144.954 84.8651 133.447L84.8835 133.421L84.9024 133.396C93.4929 122.073 103.647 112.309 115.357 104.112C127.006 95.958 139.619 89.1666 153.191 83.7363C167.045 77.9645 180.718 73.1499 194.209 69.2954L194.361 69.2518L194.518 69.2256C199.222 68.4416 203.93 68.0461 208.64 68.0402C213.898 67.6491 218.833 68.2544 223.406 69.9056C228.444 71.4581 233.849 73.3903 239.618 75.6981C245.225 77.941 250.826 79.8095 256.421 81.3052C261.87 82.3877 267.104 82.7447 272.132 82.3939C277.308 81.6884 282.178 79.6102 286.768 76.0795C291.437 72.4877 294.515 68.6612 296.198 64.6411C297.934 60.1109 298.435 55.6455 297.751 51.1984L297.733 51.0855L297.725 50.9715C297.378 46.107 295.816 41.3764 292.972 36.7553L292.93 36.6863L292.891 36.6149C290.381 31.9541 287.171 28.0374 283.26 24.8373L283.25 24.8289C274.847 17.8873 264.568 13.0921 252.333 10.4968L252.284 10.4863L252.235 10.4741C240.138 7.4499 228.836 5.5689 218.323 4.8163C204.409 4.06619 190.69 5.00728 177.16 7.63818L176.624 4.88184L177.16 7.63818C163.576 10.2795 150.37 14.2412 137.54 19.5243L137.511 19.536L137.483 19.5471C120.778 26.0011 104.451 33.5946 88.5008 42.3286C73.0934 50.9735 59.3773 61.8706 47.3452 75.029C37.2022 86.3004 28.7466 98.889 21.9773 112.804C15.2022 126.73 10.3075 141.412 7.29418 156.855L7.29165 156.868C4.27638 171.944 2.95434 187.404 3.32919 203.253C4.08655 218.731 6.35196 233.629 10.1207 247.951C16.1568 270.585 25.774 291.708 38.98 311.332C52.5371 330.911 69.0891 346.893 88.644 359.303C104.098 369.102 120.091 376.248 136.625 380.759C153.551 385.272 170.258 386.957 186.758 385.832C203.28 384.706 219.433 380.951 235.227 374.558L235.254 374.547L235.281 374.537C251.029 368.538 265.866 359.717 279.793 348.049L279.806 348.038L279.818 348.028C283.953 344.645 287.899 341.074 291.657 337.317C295.254 333.72 298.325 329.579 300.867 324.879C303.337 319.183 305.006 311.163 305.756 300.67C306.514 289.676 306.703 278.878 306.324 268.274L306.322 268.224V268.173C306.322 257.497 306.132 248.174 305.752 240.2L305.752 240.193C305.559 235.957 305.507 232.567 305.608 230.059C305.658 228.809 305.747 227.717 305.892 226.82C306.018 226.042 306.241 224.998 306.794 224.168L307.133 223.66L307.652 223.338C315.382 218.553 319.991 213.433 321.989 208.105L322.005 208.063L322.022 208.021C324.475 202.064 324.782 196.43 323.085 190.999L323.055 190.902L323.032 190.804C321.642 184.897 318.515 179.639 313.529 175.01L313.491 174.975L313.455 174.938C308.538 170.021 302.577 166.468 295.519 164.288C280.389 164.292 265.447 164.482 250.693 164.861M214.734 231.54L250.621 162.054M214.734 231.54C206.79 232.295 198.654 232.863 190.327 233.243M214.734 231.54L190.327 233.243M250.693 164.861L250.621 162.054M250.693 164.861C250.694 164.861 250.694 164.861 250.695 164.861L250.621 162.054M250.693 164.861C236.137 165.244 221.39 165.435 206.452 165.435H206.439H206.425H206.412H206.398H206.385H206.371H206.358H206.344H206.33H206.317H206.303H206.289H206.276H206.262H206.248H206.234H206.221H206.207H206.193H206.179H206.165H206.151H206.137H206.123H206.109H206.095H206.081H206.067H206.053H206.039H206.025H206.011H205.997H205.983H205.968H205.954H205.94H205.926H205.911H205.897H205.883H205.868H205.854H205.84H205.825H205.811H205.796H205.782H205.767H205.753H205.738H205.724H205.709H205.694H205.68H205.665H205.65H205.636H205.621H205.606H205.592H205.577H205.562H205.547H205.532H205.517H205.502H205.488H205.473H205.458H205.443H205.428H205.413H205.398H205.382H205.367H205.352H205.337H205.322H205.307H205.292H205.276H205.261H205.246H205.231H205.215H205.2H205.185H205.169H205.154H205.138H205.123H205.107H205.092H205.076H205.061H205.045H205.03H205.014H204.999H204.983H204.967H204.952H204.936H204.92H204.904H204.889H204.873H204.857H204.841H204.825H204.809H204.793H204.778H204.762H204.746H204.73H204.714H204.698H204.681H204.665H204.649H204.633H204.617H204.601H204.585H204.568H204.552H204.536H204.52H204.503H204.487H204.471H204.454H204.438H204.422H204.405H204.389H204.372H204.356H204.339H204.323H204.306H204.29H204.273H204.256H204.24H204.223H204.206H204.19H204.173H204.156H204.139H204.122H204.106H204.089H204.072H204.055H204.038H204.021H204.004H203.987H203.97H203.953H203.936H203.919H203.902H203.885H203.868H203.851H203.833H203.816H203.799H203.782H203.765H203.747H203.73H203.713H203.695H203.678H203.661H203.643H203.626H203.608H203.591H203.573H203.556H203.538H203.521H203.503H203.485H203.468H203.45H203.432H203.415H203.397H203.379H203.361H203.344H203.326H203.308H203.29H203.272H203.254H203.236H203.219H203.201H203.183H203.165H203.147H203.129H203.11H203.092H203.074H203.056H203.038H203.02H203.002H202.983H202.965H202.947H202.929H202.91H202.892H202.874H202.855H202.837H202.818H202.8H202.781H202.763H202.744H202.726H202.707H202.689H202.67H202.652H202.633H202.614H202.596H202.577H202.558H202.539H202.521H202.502H202.483H202.464H202.445H202.426H202.407H202.389H202.37H202.351H202.332H202.313H202.294H202.275H202.255H202.236H202.217H202.198H202.179H202.16H202.141H202.121H202.102H202.083H202.063H202.044H202.025H202.005H201.986H201.967H201.947H201.928H201.908H201.889H201.869H201.85H201.83H201.811H201.791H201.771H201.752H201.732H201.712H201.693H201.673H201.653H201.633H201.614H201.594H201.574H201.554H201.534H201.514H201.494H201.474H201.454H201.434H201.414H201.394H201.374H201.354H201.334H201.314H201.294H201.274H201.253H201.233H201.213H201.193H201.172H201.152H201.132H201.111H201.091H201.071H201.05H201.03H201.009H200.989H200.968H200.948H200.927H200.907H200.886H200.866H200.845H200.824H200.804H200.783H200.762H200.741H200.721H200.7H200.679H200.658H200.637H200.617H200.596H200.575H200.554H200.533H200.512H200.491H200.47H200.449H200.428H200.407H200.385H200.364H200.343H200.322H200.301H200.28H200.258H200.237H200.216H200.194H200.173H200.152H200.13H200.109H200.088H200.066H200.045H200.023H200.002H199.98H199.959H199.937H199.915H199.894H199.872H199.851H199.829H199.807H199.785H199.764H199.742H199.72H199.698H199.676H199.655H199.633H199.611H199.589H199.567H199.545H199.523H199.501H199.479H199.457H199.435H199.413H199.391H199.368H199.346H199.324H199.302H199.28H199.257H199.235H199.213H199.191H199.168H199.146H199.123H199.101H199.079H199.056H199.034H199.011H198.989H198.966H198.944H198.921H198.898H198.876H198.853H198.83H198.808H198.785H198.762H198.74H198.717H198.694H198.671H198.648H198.626H198.603H198.58H198.557H198.534H198.511H198.488H198.465H198.442H198.419H198.396H198.373H198.349H198.326H198.303H198.28H198.257H198.233H198.21H198.187H198.164H198.14H198.117H198.094H198.07H198.047H198.023H198H197.976H197.953H197.929H197.906H197.882H197.859H197.835H197.811H197.788H197.764H197.74H197.717H197.693H197.669H197.645H197.622H197.598H197.574H197.55H197.526H197.502H197.478H197.454H197.43H197.406H197.382H197.358H197.334H197.31H197.286H197.262H197.238H197.214H197.189H197.165H197.141H197.117H197.092H197.068H197.044H197.019H196.995H196.971H196.946H196.922H196.897H196.873H196.848H196.824H196.799H196.775H196.75H196.725H196.701H196.573L196.447 165.424C192.343 165.051 187.65 164.862 182.36 164.862C177.461 164.862 172.365 165.05 167.073 165.428L166.973 165.435H166.873C162.057 165.435 158.085 165.805 154.915 166.504M250.621 162.054C236.089 162.436 221.366 162.627 206.452 162.627H196.701C192.494 162.245 187.714 162.054 182.36 162.054C177.389 162.054 172.226 162.245 166.873 162.627C161.901 162.627 157.695 163.01 154.253 163.775M154.915 166.504C154.932 166.499 154.95 166.495 154.968 166.49L154.253 163.775M154.915 166.504C148.201 168.281 143.032 171.598 139.252 176.408C135.322 181.41 132.843 186.912 131.779 192.944L131.776 192.958L131.774 192.973C130.732 198.525 131.229 204.302 133.348 210.353C135.76 215.81 139.886 220.32 145.896 223.862C152.496 227.524 159.452 230.089 166.773 231.561C174.627 232.679 182.478 233.24 190.327 233.243M154.915 166.504C154.897 166.508 154.88 166.512 154.862 166.516L154.253 163.775M154.253 163.775C146.987 165.687 141.251 169.32 137.044 174.673C132.838 180.027 130.161 185.954 129.014 192.456M129.014 192.456C127.866 198.574 128.44 204.884 130.735 211.385C133.411 217.504 138 222.475 144.501 226.299C151.385 230.123 158.651 232.8 166.299 234.33C174.33 235.477 182.36 236.051 190.391 236.051C198.804 235.668 207.026 235.095 215.057 234.33L129.014 192.456ZM129.014 192.456L190.327 233.243" fill="#EABD82" stroke="black" stroke-width="5.61594"/>
	</mask>
	<g mask="url(#mask0_179_7598)">
		<path d="M100.203 49.4534L108.132 29.8511C108.132 29.8511 117.447 24.5646 123.784 20.2202C125.619 18.9625 127.765 17.3995 129.915 15.7918C135.359 11.7203 143.289 14.3844 144.968 20.9725L146.671 27.6542C146.972 28.837 146.679 30.0909 145.892 31.0235C144.258 32.9579 141.405 36.384 139.584 38.8292C136.538 42.9203 132.877 48.9775 132.877 48.9775L104.39 54.5321C101.473 55.1008 99.0882 52.2081 100.203 49.4534Z" fill="#A96A33"/>
		<path d="M219.417 75.4396L211.96 49.365C211.96 49.365 220.465 50.2632 225.597 49.8046C227.672 49.6192 230.082 49.1329 232.268 48.6023C236.191 47.6504 240.398 48.954 242.803 52.1956L265.277 82.4873C266.129 83.6353 266.248 85.1656 265.668 86.4725C265.102 87.7498 264.445 89.3937 264.124 90.7765C263.408 93.8624 263.542 99.2018 263.542 99.2018L221.32 77.7479C220.393 77.2765 219.703 76.4402 219.417 75.4396Z" fill="#A96A33"/>
		<path d="M39.5446 81.9114L36.8036 63.5059C36.8036 63.5059 43.3468 63.2444 47.4084 62.3102C48.4305 62.0752 49.5669 61.735 50.7058 61.353C55.0268 59.9035 59.9079 61.2288 62.4567 65.0071L74.2478 82.486C75.0718 83.7076 75.0966 85.2954 74.3915 86.5892C73.8504 87.5822 73.2539 88.7649 72.8907 89.7556C71.9835 92.2304 71.4872 96.3576 71.4872 96.3576L41.8909 84.8494C40.6381 84.3623 39.7426 83.2409 39.5446 81.9114Z" fill="#A96A33"/>
		<path d="M299.488 48.9837L291.816 65.9367C291.816 65.9367 286.175 62.61 282.256 61.1935C281.269 60.8371 280.13 60.5069 278.966 60.2107C274.549 59.0866 271.165 55.3273 271.071 50.7706L270.637 29.6909C270.606 28.2177 271.446 26.87 272.74 26.1648C273.733 25.6237 274.875 24.9531 275.717 24.3174C277.821 22.7294 280.475 19.5301 280.475 19.5301L299.109 45.243C299.898 46.3315 300.043 47.7592 299.488 48.9837Z" fill="#A96A33"/>
		<path d="M158.954 3.392L180.464 -11.3452C180.464 -11.3452 190.489 -6.87594 197.823 -4.66482C200.783 -3.77226 204.566 -2.86734 208.116 -2.08897C213.796 -0.843449 217.201 5.10692 215.195 10.5653L208.255 29.4536C207.771 30.7714 206.592 31.7069 205.201 31.8993C202.705 32.2448 198.676 32.8506 195.894 33.5089C190.994 34.6684 184.322 37.3262 184.322 37.3262L158.313 9.01343C156.771 7.33505 157.074 4.68011 158.954 3.392Z" fill="#A96A33"/>
		<path d="M258.013 5.61236L247.118 -9.47314C247.118 -9.47314 242.253 -5.08982 238.694 -2.92122C237.798 -2.3755 236.748 -1.82507 235.666 -1.30293C231.561 0.678162 228.994 5.03599 229.809 9.52016L233.581 30.2642C233.845 31.7139 234.936 32.8675 236.344 33.3008C237.425 33.6334 238.678 34.0631 239.63 34.5184C242.008 35.6556 245.246 38.2623 245.246 38.2623L258.386 9.35368C258.942 8.13 258.8 6.70205 258.013 5.61236Z" fill="#A96A33"/>
		<path d="M190.03 62.8568L174.592 49.4054C174.592 49.4054 165.95 51.9569 159.735 52.9752C157.803 53.2918 155.471 53.5641 153.14 53.7909C147.316 54.3576 143.168 59.873 144.521 65.5665L147.674 78.8313C147.998 80.192 149.051 81.2577 150.402 81.6204C152.417 82.1616 155.392 83.0013 157.464 83.765C161.351 85.1978 166.535 88.0133 166.535 88.0133L189.962 68.5599C191.737 67.0859 191.769 64.3726 190.03 62.8568Z" fill="#A96A33"/>
		<path d="M50.152 218.745L67.9395 208.603C67.9395 208.603 68.3784 199.603 69.4652 193.399C69.803 191.471 70.3144 189.179 70.8685 186.904C72.2529 181.218 68.4125 175.484 62.591 174.886L49.0282 173.491C47.6369 173.348 46.2837 173.991 45.496 175.147C44.321 176.871 42.5478 179.404 41.1439 181.108C38.5103 184.306 34.1436 188.272 34.1436 188.272L44.7899 216.801C45.5966 218.963 48.1477 219.888 50.152 218.745Z" fill="#A96A33"/>
		<path d="M-11.1089 131.39L9.03623 110.333C9.03623 110.333 17.8815 116.35 24.3524 119.326C27.2367 120.653 31.0063 122 34.4062 123.116C39.2052 124.69 42.1334 129.648 40.9508 134.558L33.4293 165.787C33.0838 167.221 31.9297 168.318 30.487 168.627C28.2721 169.102 24.97 169.877 22.6506 170.714C18.3272 172.275 12.4398 175.853 12.4398 175.853L-11.611 135.91C-12.4824 134.462 -12.2767 132.611 -11.1089 131.39Z" fill="#A96A33"/>
		<path d="M82.7732 141.685L73.2655 157.681C73.2655 157.681 68.0294 153.749 64.2913 151.906C63.3507 151.442 62.255 150.988 61.131 150.564C56.8662 148.956 53.9209 144.845 54.3335 140.306L56.2419 119.308C56.3752 117.841 57.3595 116.594 58.7236 116.037C59.7706 115.61 60.9802 115.07 61.8878 114.532C64.1549 113.187 67.1479 110.302 67.1479 110.302L82.8116 137.925C83.4746 139.095 83.4599 140.53 82.7732 141.685Z" fill="#A96A33"/>
		<path d="M98.4863 118.244L113.599 107.921C113.599 107.921 115.704 98.9058 117.802 92.6368C118.31 91.1184 118.947 89.3729 119.629 87.5835C121.961 81.4583 117.712 74.7159 111.163 74.4491L105.005 74.1983C103.733 74.1465 102.525 74.7423 101.781 75.7745C100.486 77.5717 98.3859 80.4368 96.8081 82.3443C94.0156 85.7204 89.644 89.9854 89.644 89.9854L92.6564 115.589C92.9851 118.384 96.163 119.83 98.4863 118.244Z" fill="#A96A33"/>
		<path d="M8.77741 230.25L19.6725 215.165C19.6725 215.165 24.5374 219.548 28.0964 221.716C28.992 222.262 30.0428 222.813 31.1246 223.335C35.2292 225.316 37.7964 229.674 36.9811 234.158L33.2095 254.902C32.9459 256.352 31.8545 257.505 30.4462 257.939C29.3653 258.271 28.1124 258.701 27.1604 259.156C24.7825 260.293 21.5445 262.9 21.5445 262.9L8.40419 233.991C7.84797 232.768 7.99042 231.34 8.77741 230.25Z" fill="#A96A33"/>
		<path d="M53.7049 260.201L64.6 245.116C64.6 245.116 69.4649 249.499 73.0239 251.668C73.9195 252.213 74.9703 252.764 76.0521 253.286C80.1567 255.267 82.7239 259.625 81.9086 264.109L78.137 284.853C77.8734 286.303 76.782 287.456 75.3736 287.89C74.2928 288.222 73.0398 288.652 72.0879 289.107C69.71 290.244 66.472 292.851 66.472 292.851L53.3317 263.943C52.7755 262.719 52.9179 261.291 53.7049 260.201Z" fill="#A96A33"/>
		<path d="M222.102 257.601L242.239 246.988C242.239 246.988 252.264 250.426 259.598 252.127C262.085 252.703 265.153 253.287 268.175 253.814C274.414 254.901 278.029 261.627 275.299 267.342L270.156 278.108C269.589 279.296 268.441 280.098 267.132 280.236C264.65 280.499 260.509 280.974 257.669 281.491C252.769 282.383 246.097 284.427 246.097 284.427L221.443 263.783C219.403 262.075 219.747 258.842 222.102 257.601Z" fill="#A96A33"/>
		<path d="M254.02 387.305L240.886 368.713C240.886 368.713 242.996 358.327 243.732 350.835C243.981 348.294 244.162 345.176 244.293 342.111C244.563 335.784 250.763 331.328 256.783 333.294L268.126 336.998C269.377 337.406 270.321 338.441 270.628 339.721C271.21 342.147 272.218 346.191 273.098 348.941C274.618 353.684 277.51 360.035 277.51 360.035L260.236 387.156C258.806 389.401 255.556 389.479 254.02 387.305Z" fill="#A96A33"/>
		<path d="M12.4762 317.635L38.8744 297.531C38.8744 297.531 50.6682 303.376 59.296 306.267C63.4948 307.674 69.1009 309.105 73.9362 310.241C79.4051 311.525 82.702 317.207 80.9387 322.541L71.3749 351.472C70.926 352.83 69.746 353.812 68.332 354.027C65.4351 354.468 60.4352 355.29 57.027 356.187C51.2624 357.703 43.4126 361.179 43.4126 361.179L11.8586 322.998C10.5041 321.359 10.7847 318.923 12.4762 317.635Z" fill="#A96A33"/>
		<path d="M94.9264 317.289L113.867 303.147C113.867 303.147 122.712 307.445 129.183 309.571C131.579 310.358 134.585 311.155 137.483 311.859C142.977 313.194 146.3 318.914 144.493 324.272L138.436 342.235C137.981 343.586 136.799 344.56 135.389 344.775C133.174 345.113 129.826 345.672 127.481 346.276C123.158 347.391 117.271 349.947 117.271 349.947L94.3037 322.702C92.9149 321.054 93.1999 318.578 94.9264 317.289Z" fill="#A96A33"/>
		<path d="M133.824 364.551L160.156 349.947C160.156 349.947 172.539 354.416 181.599 356.627C185.595 357.602 190.804 358.593 195.525 359.416C201.661 360.487 205.238 367.057 202.664 372.729L194.403 390.927C193.851 392.143 192.696 392.973 191.368 393.119C188.378 393.447 182.908 394.094 179.216 394.801C173.163 395.96 164.921 398.618 164.921 398.618L133.165 370.634C131.224 368.923 131.562 365.806 133.824 364.551Z" fill="#A96A33"/>
		<path d="M166.012 317.058L192.717 303.147C192.717 303.147 205.395 307.445 214.67 309.571C218.717 310.499 223.981 311.44 228.773 312.227C235.046 313.257 238.665 320.029 235.899 325.753L227.786 342.539C227.215 343.719 226.072 344.515 224.768 344.649C221.729 344.962 216.05 345.589 212.231 346.276C206.034 347.391 197.596 349.947 197.596 349.947L165.354 323.263C163.29 321.555 163.636 318.296 166.012 317.058Z" fill="#A96A33"/>
		<path d="M270.526 310.835L288.755 280.684C288.755 280.684 296.421 288.935 302.029 293.017C304.82 295.048 308.568 297.114 311.758 298.735C315.54 300.656 317.809 304.744 317.171 308.938L309.762 357.616C309.543 359.051 308.515 360.228 307.141 360.699C305.227 361.355 302.494 362.383 300.554 363.491C296.807 365.632 291.705 370.539 291.705 370.539L270.231 314.103C269.821 313.026 269.93 311.821 270.526 310.835Z" fill="#A96A33"/>
		<path d="M279.126 178.357L272.852 160.838C272.852 160.838 279.219 159.307 283.02 157.599C283.977 157.169 285.025 156.614 286.068 156.018C290.024 153.754 295.07 154.103 298.306 157.312L313.276 172.159C314.323 173.196 314.656 174.749 314.217 176.155C313.88 177.235 313.525 178.511 313.362 179.553C312.954 182.157 313.272 186.302 313.272 186.302L282 180.781C280.677 180.547 279.58 179.622 279.126 178.357Z" fill="#A96A33"/>
		<path d="M292.1 257.478L285.826 239.96C285.826 239.96 292.193 238.428 295.994 236.721C296.951 236.291 297.999 235.736 299.042 235.139C302.998 232.876 308.044 233.224 311.28 236.434L326.25 251.28C327.297 252.318 327.63 253.87 327.191 255.277C326.854 256.356 326.499 257.632 326.336 258.675C325.928 261.279 326.246 265.424 326.246 265.424L294.974 259.903C293.651 259.669 292.554 258.744 292.1 257.478Z" fill="#A96A33"/>
		<path d="M230.414 201.114L252.337 187.084C252.337 187.084 262.656 191.382 270.206 193.508C273.227 194.359 277.081 195.221 280.708 195.965C286.532 197.16 289.998 203.3 287.822 208.833L280.956 226.285C280.449 227.573 279.273 228.476 277.9 228.653C275.34 228.983 271.121 229.572 268.22 230.213C263.176 231.328 256.308 233.884 256.308 233.884L229.763 206.893C228.095 205.197 228.41 202.396 230.414 201.114Z" fill="#A96A33"/>
		<path d="M181.841 166.86L206.573 150.725C206.573 150.725 211.006 159.648 214.825 164.697C216.518 166.935 218.882 169.458 221.06 171.636C224.271 174.848 225.03 179.854 222.657 183.726L202.94 215.892C202.17 217.148 200.737 217.834 199.27 217.705C197.37 217.538 194.714 217.375 192.707 217.532C188.719 217.845 182.7 219.777 182.7 219.777L180.148 170.188C180.079 168.856 180.724 167.589 181.841 166.86Z" fill="#A96A33"/>
		<path d="M128.584 189.066L143.535 168.365C143.535 168.365 150.022 174.209 154.767 177.101C156.617 178.228 158.964 179.37 161.191 180.364C165.354 182.221 167.899 186.618 167.084 191.102L161.44 222.142C161.176 223.592 160.087 224.749 158.673 225.164C157.091 225.629 155.023 226.301 153.519 227.02C150.348 228.536 146.031 232.012 146.031 232.012L128.211 192.808C127.655 191.584 127.797 190.156 128.584 189.066Z" fill="#A96A33"/>
		<path d="M214.734 231.54C223.197 230.387 231.289 229.617 239.008 229.231L241.957 229.083V232.035V293.986V295.149L241.134 295.972C231.271 305.835 219.984 312.776 207.29 316.743C194.704 320.676 181.905 322.056 168.913 320.875C155.944 319.696 143.379 316.158 131.232 310.281L131.183 310.257L131.134 310.231C119.383 303.964 108.998 295.93 99.9882 286.137C86.2915 271.266 76.8895 254.029 71.8022 234.463L71.7988 234.45C66.7365 214.59 65.7587 194.707 68.8755 174.826C71.2263 158.776 76.5325 144.954 84.8651 133.447L84.8835 133.421L84.9024 133.396C93.4929 122.073 103.647 112.309 115.357 104.112C127.006 95.958 139.619 89.1666 153.191 83.7363C167.045 77.9645 180.718 73.1499 194.209 69.2954L194.361 69.2518L194.518 69.2256C199.222 68.4416 203.93 68.0461 208.64 68.0402C213.898 67.6491 218.833 68.2544 223.406 69.9056C228.444 71.4581 233.849 73.3903 239.618 75.6981C245.225 77.941 250.826 79.8095 256.421 81.3052C261.87 82.3877 267.104 82.7447 272.132 82.3939C277.308 81.6884 282.178 79.6102 286.768 76.0795C291.437 72.4877 294.515 68.6612 296.198 64.6411C297.934 60.1109 298.435 55.6455 297.751 51.1984L297.733 51.0855L297.725 50.9715C297.378 46.107 295.816 41.3764 292.972 36.7553L292.93 36.6863L292.891 36.6149C290.381 31.9541 287.171 28.0374 283.26 24.8373L283.25 24.8289C274.847 17.8873 264.568 13.0921 252.333 10.4968L252.284 10.4863L252.235 10.4741C240.138 7.4499 228.836 5.5689 218.323 4.8163C204.409 4.06619 190.69 5.00728 177.16 7.63818L176.624 4.88184L177.16 7.63818C163.576 10.2795 150.37 14.2412 137.54 19.5243L137.511 19.536L137.483 19.5471C120.778 26.0011 104.451 33.5946 88.5008 42.3286C73.0934 50.9735 59.3773 61.8706 47.3452 75.029C37.2022 86.3004 28.7466 98.889 21.9773 112.804C15.2022 126.73 10.3075 141.412 7.29418 156.855L7.29165 156.868C4.27638 171.944 2.95434 187.404 3.32919 203.253C4.08655 218.731 6.35196 233.629 10.1207 247.951C16.1568 270.585 25.774 291.708 38.98 311.332C52.5371 330.911 69.0891 346.893 88.644 359.303C104.098 369.102 120.091 376.248 136.625 380.759C153.551 385.272 170.258 386.957 186.758 385.832C203.28 384.706 219.433 380.951 235.227 374.558L235.254 374.547L235.281 374.537C251.029 368.538 265.866 359.717 279.793 348.049L279.806 348.038L279.818 348.028C283.953 344.645 287.899 341.074 291.657 337.317C295.254 333.72 298.325 329.579 300.867 324.879C303.337 319.183 305.006 311.163 305.756 300.67C306.514 289.676 306.703 278.878 306.324 268.274L306.322 268.224V268.173C306.322 257.497 306.132 248.174 305.752 240.2L305.752 240.193C305.559 235.957 305.507 232.567 305.608 230.059C305.658 228.809 305.747 227.717 305.892 226.82C306.018 226.042 306.241 224.998 306.794 224.168L307.133 223.66L307.652 223.338C315.382 218.553 319.991 213.433 321.989 208.105L322.005 208.063L322.022 208.021C324.475 202.064 324.782 196.43 323.085 190.999L323.055 190.902L323.032 190.804C321.642 184.897 318.515 179.639 313.529 175.01L313.491 174.975L313.455 174.938C308.538 170.021 302.577 166.468 295.519 164.288C280.389 164.292 265.447 164.482 250.693 164.861M214.734 231.54L250.621 162.054M214.734 231.54C206.79 232.295 198.654 232.863 190.327 233.243M214.734 231.54L190.327 233.243M250.693 164.861L250.621 162.054M250.693 164.861C250.694 164.861 250.694 164.861 250.695 164.861L250.621 162.054M250.693 164.861C236.137 165.244 221.39 165.435 206.452 165.435H206.439H206.425H206.412H206.398H206.385H206.371H206.358H206.344H206.33H206.317H206.303H206.289H206.276H206.262H206.248H206.234H206.221H206.207H206.193H206.179H206.165H206.151H206.137H206.123H206.109H206.095H206.081H206.067H206.053H206.039H206.025H206.011H205.997H205.983H205.968H205.954H205.94H205.926H205.911H205.897H205.883H205.868H205.854H205.84H205.825H205.811H205.796H205.782H205.767H205.753H205.738H205.724H205.709H205.694H205.68H205.665H205.65H205.636H205.621H205.606H205.592H205.577H205.562H205.547H205.532H205.517H205.502H205.488H205.473H205.458H205.443H205.428H205.413H205.398H205.382H205.367H205.352H205.337H205.322H205.307H205.292H205.276H205.261H205.246H205.231H205.215H205.2H205.185H205.169H205.154H205.138H205.123H205.107H205.092H205.076H205.061H205.045H205.03H205.014H204.999H204.983H204.967H204.952H204.936H204.92H204.904H204.889H204.873H204.857H204.841H204.825H204.809H204.793H204.778H204.762H204.746H204.73H204.714H204.698H204.681H204.665H204.649H204.633H204.617H204.601H204.585H204.568H204.552H204.536H204.52H204.503H204.487H204.471H204.454H204.438H204.422H204.405H204.389H204.372H204.356H204.339H204.323H204.306H204.29H204.273H204.256H204.24H204.223H204.206H204.19H204.173H204.156H204.139H204.122H204.106H204.089H204.072H204.055H204.038H204.021H204.004H203.987H203.97H203.953H203.936H203.919H203.902H203.885H203.868H203.851H203.833H203.816H203.799H203.782H203.765H203.747H203.73H203.713H203.695H203.678H203.661H203.643H203.626H203.608H203.591H203.573H203.556H203.538H203.521H203.503H203.485H203.468H203.45H203.432H203.415H203.397H203.379H203.361H203.344H203.326H203.308H203.29H203.272H203.254H203.236H203.219H203.201H203.183H203.165H203.147H203.129H203.11H203.092H203.074H203.056H203.038H203.02H203.002H202.983H202.965H202.947H202.929H202.91H202.892H202.874H202.855H202.837H202.818H202.8H202.781H202.763H202.744H202.726H202.707H202.689H202.67H202.652H202.633H202.614H202.596H202.577H202.558H202.539H202.521H202.502H202.483H202.464H202.445H202.426H202.407H202.389H202.37H202.351H202.332H202.313H202.294H202.275H202.255H202.236H202.217H202.198H202.179H202.16H202.141H202.121H202.102H202.083H202.063H202.044H202.025H202.005H201.986H201.967H201.947H201.928H201.908H201.889H201.869H201.85H201.83H201.811H201.791H201.771H201.752H201.732H201.712H201.693H201.673H201.653H201.633H201.614H201.594H201.574H201.554H201.534H201.514H201.494H201.474H201.454H201.434H201.414H201.394H201.374H201.354H201.334H201.314H201.294H201.274H201.253H201.233H201.213H201.193H201.172H201.152H201.132H201.111H201.091H201.071H201.05H201.03H201.009H200.989H200.968H200.948H200.927H200.907H200.886H200.866H200.845H200.824H200.804H200.783H200.762H200.741H200.721H200.7H200.679H200.658H200.637H200.617H200.596H200.575H200.554H200.533H200.512H200.491H200.47H200.449H200.428H200.407H200.385H200.364H200.343H200.322H200.301H200.28H200.258H200.237H200.216H200.194H200.173H200.152H200.13H200.109H200.088H200.066H200.045H200.023H200.002H199.98H199.959H199.937H199.915H199.894H199.872H199.851H199.829H199.807H199.785H199.764H199.742H199.72H199.698H199.676H199.655H199.633H199.611H199.589H199.567H199.545H199.523H199.501H199.479H199.457H199.435H199.413H199.391H199.368H199.346H199.324H199.302H199.28H199.257H199.235H199.213H199.191H199.168H199.146H199.123H199.101H199.079H199.056H199.034H199.011H198.989H198.966H198.944H198.921H198.898H198.876H198.853H198.83H198.808H198.785H198.762H198.74H198.717H198.694H198.671H198.648H198.626H198.603H198.58H198.557H198.534H198.511H198.488H198.465H198.442H198.419H198.396H198.373H198.349H198.326H198.303H198.28H198.257H198.233H198.21H198.187H198.164H198.14H198.117H198.094H198.07H198.047H198.023H198H197.976H197.953H197.929H197.906H197.882H197.859H197.835H197.811H197.788H197.764H197.74H197.717H197.693H197.669H197.645H197.622H197.598H197.574H197.55H197.526H197.502H197.478H197.454H197.43H197.406H197.382H197.358H197.334H197.31H197.286H197.262H197.238H197.214H197.189H197.165H197.141H197.117H197.092H197.068H197.044H197.019H196.995H196.971H196.946H196.922H196.897H196.873H196.848H196.824H196.799H196.775H196.75H196.725H196.701H196.573L196.447 165.424C192.343 165.051 187.65 164.862 182.36 164.862C177.461 164.862 172.365 165.05 167.073 165.428L166.973 165.435H166.873C162.057 165.435 158.085 165.805 154.915 166.504M250.621 162.054C236.089 162.436 221.366 162.627 206.452 162.627H196.701C192.494 162.245 187.714 162.054 182.36 162.054C177.389 162.054 172.226 162.245 166.873 162.627C161.901 162.627 157.695 163.01 154.253 163.775M154.915 166.504C154.932 166.499 154.95 166.495 154.968 166.49L154.253 163.775M154.915 166.504C148.201 168.281 143.032 171.598 139.252 176.408C135.322 181.41 132.843 186.912 131.779 192.944L131.776 192.958L131.774 192.973C130.732 198.525 131.229 204.302 133.348 210.353C135.76 215.81 139.886 220.32 145.896 223.862C152.496 227.524 159.452 230.089 166.773 231.561C174.627 232.679 182.478 233.24 190.327 233.243M154.915 166.504C154.897 166.508 154.88 166.512 154.862 166.516L154.253 163.775M154.253 163.775C146.987 165.687 141.251 169.32 137.044 174.673C132.838 180.027 130.161 185.954 129.014 192.456M129.014 192.456C127.866 198.574 128.44 204.884 130.735 211.385C133.411 217.504 138 222.475 144.501 226.299C151.385 230.123 158.651 232.8 166.299 234.33C174.33 235.477 182.36 236.051 190.391 236.051C198.804 235.668 207.026 235.095 215.057 234.33L129.014 192.456ZM129.014 192.456L190.327 233.243" stroke="black" stroke-width="5.61594"/>
	</g>
</svg>
