<svg width="13" height="13" viewBox="0 0 312 389" fill="none" xmlns="http://www.w3.org/2000/svg">
	<path d="M283.914 171.418C293.186 174.122 300.14 179.145 304.776 186.485C309.412 193.439 311.537 200.78 311.15 208.506C311.15 216.233 308.832 223.573 304.196 230.528C299.56 237.095 292.8 241.345 283.914 243.277V344.11C283.914 353.769 281.403 362.268 276.38 369.609C271.744 377.335 265.949 382.744 258.995 385.835C252.041 388.925 244.701 389.505 236.974 387.573C229.247 386.028 222.293 381.005 216.112 372.506C213.407 368.643 211.476 364.2 210.317 359.177C209.544 354.155 209.158 349.519 209.158 345.269V245.015H74.1332V343.531C74.1332 347.781 73.7468 352.223 72.9742 356.86C72.2015 361.109 70.8493 364.973 68.9177 368.45C63.8953 377.722 57.5207 383.71 49.794 386.414C42.0673 389.119 34.5337 388.925 27.1933 385.835C19.8529 383.13 13.4784 378.108 8.06969 370.768C3.04732 363.814 0.536133 355.121 0.536133 344.69V45.0861C0.536133 35.0414 3.43365 26.3488 9.2287 19.0084C15.4101 11.668 22.3641 6.64565 30.0909 3.94131C37.8176 0.850617 45.5443 0.657442 53.271 3.36179C61.3841 5.6798 67.3723 11.668 71.2357 21.3264C72.3947 24.4171 73.1674 27.3146 73.5537 30.019C73.94 32.337 74.1332 35.0414 74.1332 38.1321V169.1H209.158V45.0861C209.158 37.3594 210.896 30.019 214.373 23.0649C218.623 14.5655 224.611 8.57734 232.338 5.10029C240.451 1.62327 248.178 0.657444 255.518 2.2028C263.245 3.74814 269.812 7.61149 275.221 13.7929C281.016 19.5879 283.914 27.701 283.914 38.1321V171.418Z" fill="#006E98"/>
	<mask id="mask0_179_7599" style="mask-type:alpha" maskUnits="userSpaceOnUse" x="0" y="1" width="312" height="388">
		<path d="M281.106 171.418V173.524L283.128 174.114C291.822 176.65 298.173 181.29 302.402 187.985L302.42 188.014L302.44 188.043C306.77 194.538 308.7 201.29 308.346 208.366L308.342 208.436V208.506C308.342 215.622 306.222 222.416 301.881 228.939C297.704 234.839 291.599 238.732 283.317 240.533L281.106 241.013V243.277V344.11C281.106 353.254 278.738 361.19 274.063 368.023L274.015 368.092L273.972 368.164C269.577 375.489 264.19 380.453 257.855 383.269C251.501 386.093 244.804 386.636 237.655 384.849L237.59 384.833L237.525 384.82C230.699 383.455 224.301 378.985 218.398 370.875C215.944 367.363 214.162 363.299 213.076 358.647C212.332 353.78 211.966 349.323 211.966 345.269V245.015V242.207H209.158H74.1332H71.3252V245.015V343.531C71.3252 347.604 70.9554 351.885 70.2078 356.377C69.4848 360.343 68.2304 363.905 66.4631 367.086L66.4558 367.099L66.4486 367.112C61.6601 375.953 55.7613 381.351 48.8664 383.764C41.7764 386.245 34.9625 386.059 28.283 383.247L28.2241 383.222L28.1641 383.2C21.4236 380.717 15.4746 376.08 10.3384 369.113C5.73569 362.735 3.3441 354.655 3.3441 344.69V45.0861C3.3441 35.6388 6.04952 27.5827 11.4053 20.783C17.3116 13.7793 23.8545 9.09901 31.0185 6.59164L31.0766 6.5713L31.1337 6.54844C38.2419 3.70517 45.2687 3.53598 52.3434 6.01211L52.4208 6.03919L52.4996 6.06171C59.5759 8.0835 64.9933 13.2985 68.6172 22.341C69.713 25.2682 70.4227 27.9574 70.7739 30.4161L70.7785 30.4484L70.7839 30.4806C71.1384 32.6072 71.3252 35.1508 71.3252 38.1321V169.1V171.908H74.1332H209.158H211.966V169.1V45.0861C211.966 37.7981 213.601 30.8874 216.885 24.3207C220.878 16.3339 226.413 10.8521 233.467 7.67121C241.137 4.38878 248.266 3.54554 254.94 4.95054L254.953 4.95346L254.967 4.95624C262.061 6.37493 268.088 9.90462 273.108 15.6419L273.17 15.7123L273.236 15.7784C278.37 20.9131 281.106 28.2324 281.106 38.1321V171.418Z" fill="#006E98" stroke="black" stroke-width="5.61594"/>
	</mask>
	<g mask="url(#mask0_179_7599)">
		<path d="M60.1835 86.8521C60.0976 86.9894 59.9774 87.1096 59.9088 87.2641C59.5311 88.1568 59.1019 88.998 58.5697 89.822C57.7457 91.0753 57.3336 92.5517 56.9045 93.9938C55.9946 97.0668 55.0675 100.123 54.1748 103.196C53.6254 105.084 53.1276 107.007 52.5439 108.878C52.2864 109.736 51.9259 110.578 51.4795 111.35C50.6211 112.827 48.8529 112.964 47.5825 112.003C46.3636 111.076 45.4022 109.925 44.5095 108.689C43.3421 107.075 42.1232 105.496 40.8528 103.951C40.2519 103.213 39.4794 102.629 38.8098 101.96C38.6725 101.822 38.6038 101.633 38.518 101.444C38.4493 101.273 38.415 101.067 38.2948 100.878C37.9514 101.427 37.7454 101.977 37.8313 102.629C38.0201 103.917 38.3978 105.153 38.9815 106.32C40.0116 108.38 41.1103 110.389 42.5695 112.191C43.3592 113.153 44.2863 113.994 45.076 114.955C45.9 115.951 46.6897 116.998 47.3593 118.114C48.0975 119.299 48.1147 120.689 47.9773 122.028C47.8228 123.677 47.4966 125.307 47.2906 126.938C47.1704 127.883 47.1704 128.827 47.9086 129.599C47.9773 129.668 47.9601 129.84 47.943 129.96C47.9086 130.235 47.8228 130.492 47.7885 130.767C47.7713 130.87 47.8228 131.007 47.8915 131.059C47.9601 131.11 48.1147 131.076 48.2005 131.024C48.355 130.921 48.5095 130.801 48.6125 130.647C48.9044 130.149 49.3507 129.805 49.8142 129.479C50.7756 128.775 51.1533 127.694 51.5825 126.612C52.2349 124.93 52.8529 123.179 54.3465 122.011C55.3937 121.187 56.4753 120.415 57.574 119.694C59.7543 118.286 61.9861 116.947 64.1492 115.522C65.5912 114.578 66.999 113.565 68.3209 112.466C69.2651 111.694 70.1578 110.818 70.7587 109.736C70.7587 109.719 70.7759 109.719 70.7759 109.702C71.0162 108.827 71.5656 108.106 72.0463 107.367C72.0978 107.281 72.1149 107.161 72.1836 106.972C71.9604 107.007 71.8059 106.99 71.6857 107.058C70.5527 107.745 69.2479 108.02 68.0805 108.569C67.0333 109.067 66.0548 109.685 65.0762 110.286C63.2736 111.385 61.677 112.809 59.7371 113.685C59.2564 113.908 58.7757 114.148 58.2607 114.234C57.265 114.423 56.4581 114.166 56.2693 113.05C56.0632 111.917 56.1319 110.801 56.4066 109.685C56.7328 108.346 57.0761 106.99 57.4023 105.651C57.883 103.676 58.3637 101.702 58.8444 99.7449C59.5826 96.7062 60.1835 93.6332 60.3036 90.4916C60.338 89.6847 60.4238 88.8778 60.4581 88.0538C60.4753 87.6761 60.3895 87.2812 60.3551 86.9036C60.338 86.8692 60.2693 86.8521 60.1835 86.8521Z" fill="#002B54"/>
		<path d="M33.8842 73.524C33.855 73.6625 33.843 73.8004 33.7789 73.9231C33.6671 74.1506 33.5566 74.4124 33.373 74.5567C31.917 75.5903 30.6218 76.7897 29.4696 78.1384C28.3333 79.4521 27.249 80.781 26.0771 82.0617C25.2679 82.9338 24.3169 83.6908 23.2166 84.127C21.9974 84.602 20.7118 84.2206 19.9534 82.7715C19.4543 81.828 19.2436 80.7879 19.033 79.7479C18.4011 76.6276 17.7692 73.5073 17.1366 70.3699C16.7134 68.2383 16.3074 66.106 15.8334 63.9934C15.5044 62.5455 15.1075 61.1172 14.2531 59.8606C13.962 59.4249 13.9059 58.8428 13.7323 58.3339C13.6941 58.2323 13.6725 58.1128 13.6 58.0125C13.5282 57.9293 13.4227 57.8645 13.3172 57.7997C13.2524 57.9052 13.1184 57.9961 13.1222 58.099C13.076 58.702 13.0648 59.3209 13.0357 59.9233C13.0237 60.0612 13.0638 60.2143 13.0518 60.3522C12.7229 63.5083 13.0461 66.6401 13.4886 69.7503C13.7472 71.6132 14.04 73.4748 14.3164 75.3542C14.6334 77.4039 14.9676 79.453 15.2675 81.5034C15.4044 82.4088 15.284 83.3238 15.0078 84.2102C14.7006 85.1838 14.0926 85.4642 13.0848 85.1582C12.1811 84.8827 11.3035 84.3829 10.5269 83.8278C9.18525 82.8643 7.94143 81.7598 6.63219 80.7435C5.12784 79.5628 3.62541 78.4335 1.76541 77.8501C1.3136 77.7124 0.955111 77.3135 0.550921 77.0709C0.322131 76.9248 0.0438014 76.8321 -0.323514 76.6568C-0.261157 76.9466 -0.254754 77.1181 -0.181645 77.2357C0.02052 77.5889 0.239839 77.9415 0.459162 78.294C0.513832 78.3779 0.58566 78.4611 0.589503 78.564C0.66738 79.7293 1.38627 80.5787 2.05306 81.4127C3.60341 83.3648 5.5501 84.8898 7.52983 86.3792C10.0574 88.2777 12.5863 90.2104 15.0649 92.1794C15.9496 92.8679 16.8534 93.6072 17.3055 94.6727C17.872 96.0431 18.5244 97.4102 18.8031 98.8945C19.0144 99.9517 19.631 100.822 20.5481 101.458C20.7063 101.555 20.7992 101.74 20.9257 101.908C21.1246 102.175 21.3077 102.477 21.5403 102.726C21.6122 102.81 21.7856 102.855 21.8701 102.817C21.9546 102.78 21.9825 102.607 21.9959 102.503C22.0104 102.434 21.9736 102.367 21.9539 102.299C21.8857 101.854 21.8716 101.477 22.2165 101.052C22.5284 100.662 22.7296 100.071 22.7447 99.5547C22.7711 98.4199 22.6424 97.2736 22.5486 96.1433C22.4395 94.6012 22.4505 93.0546 22.7887 91.5302C22.9511 90.8198 23.2527 90.1557 23.7291 89.571C25.075 87.8887 26.5823 86.3893 28.178 84.9553C29.0591 84.1665 29.8486 83.2265 30.551 82.2554C31.5469 80.8611 32.4901 79.4343 33.3277 77.9428C33.7951 77.1179 34.0521 76.1806 34.2927 75.2611C34.4431 74.6885 34.3343 74.0741 33.9891 73.5716C33.97 73.5208 33.9185 73.5227 33.8842 73.524Z" fill="#002B54"/>
		<path d="M223.741 78.1863C223.87 78.2835 224.026 78.3523 224.145 78.4717C224.819 79.1685 225.523 79.7987 226.316 80.3758C227.536 81.2481 228.452 82.477 229.372 83.6677C231.327 86.2068 233.293 88.7237 235.232 91.2689C236.425 92.8327 237.582 94.4472 238.801 95.9826C239.35 96.6907 239.989 97.3456 240.684 97.9055C242.016 98.9737 243.715 98.4649 244.554 97.1105C245.358 95.8067 245.84 94.3874 246.228 92.9128C246.736 90.9869 247.304 89.0744 247.932 87.1755C248.227 86.2704 248.738 85.4476 249.121 84.5819C249.2 84.4043 249.196 84.2034 249.208 83.9963C249.21 83.8114 249.168 83.6069 249.212 83.3874C249.73 83.7763 250.12 84.2146 250.275 84.8541C250.563 86.1232 250.656 87.4124 250.531 88.7117C250.312 91.0045 250.011 93.274 249.299 95.4812C248.908 96.6625 248.347 97.7811 247.956 98.9624C247.546 100.188 247.186 101.449 246.964 102.732C246.702 104.103 247.186 105.406 247.797 106.606C248.535 108.088 249.426 109.492 250.206 110.939C250.658 111.776 250.998 112.657 250.588 113.644C250.548 113.733 250.626 113.887 250.686 113.993C250.817 114.236 250.989 114.446 251.12 114.69C251.173 114.78 251.175 114.926 251.129 114.999C251.084 115.072 250.927 115.095 250.829 115.078C250.647 115.038 250.46 114.981 250.308 114.874C249.857 114.515 249.317 114.355 248.767 114.218C247.616 113.908 246.874 113.035 246.085 112.18C244.87 110.846 243.663 109.435 241.849 108.884C240.575 108.492 239.288 108.161 238.003 107.884C235.462 107.356 232.898 106.911 230.367 106.36C228.682 105.999 227.004 105.561 225.375 105.012C224.216 104.632 223.067 104.136 222.117 103.344C222.111 103.328 222.095 103.334 222.089 103.318C221.549 102.588 220.777 102.113 220.063 101.597C219.984 101.536 219.925 101.43 219.793 101.278C220.013 101.23 220.151 101.158 220.288 101.179C221.592 101.412 222.908 101.198 224.195 101.29C225.351 101.377 226.487 101.601 227.616 101.81C229.694 102.185 231.696 102.94 233.821 103.058C234.35 103.093 234.885 103.144 235.397 103.038C236.393 102.856 237.053 102.325 236.828 101.216C236.612 100.085 236.146 99.0686 235.488 98.1266C234.701 96.9948 233.892 95.8533 233.106 94.7215C231.946 93.0529 230.787 91.3842 229.633 89.7316C227.85 87.1628 226.183 84.5124 224.939 81.6249C224.617 80.8845 224.246 80.1627 223.917 79.4063C223.765 79.0602 223.703 78.6609 223.599 78.2962C223.603 78.258 223.661 78.2172 223.741 78.1863Z" fill="#002B54"/>
		<path d="M243.475 56.2809C243.552 56.3996 243.613 56.5239 243.717 56.6152C243.903 56.7872 244.1 56.9916 244.324 57.0601C246.054 57.5 247.695 58.1524 249.255 58.9956C250.788 59.8119 252.278 60.6611 253.833 61.4338C254.902 61.9558 256.062 62.3196 257.245 62.3302C258.554 62.3342 259.616 61.5153 259.801 59.8903C259.927 58.8305 259.749 57.7843 259.571 56.7382C259.037 53.5997 258.502 50.4613 257.963 47.3066C257.59 45.1656 257.2 43.0302 256.882 40.8886C256.667 39.4194 256.523 37.944 256.867 36.4641C256.982 35.9527 256.825 35.3895 256.803 34.8522C256.802 34.7436 256.78 34.6244 256.811 34.5047C256.848 34.4012 256.923 34.3028 256.998 34.2043C257.097 34.2794 257.254 34.3159 257.288 34.4134C257.548 34.9593 257.782 35.5326 258.026 36.084C258.087 36.2083 258.104 36.3656 258.165 36.4899C259.609 39.3158 260.435 42.3538 261.143 45.4146C261.572 47.2456 261.97 49.0878 262.389 50.9406C262.831 52.967 263.257 54.9989 263.716 57.0197C263.914 57.9136 264.356 58.7238 264.933 59.4513C265.57 60.2489 266.239 60.2915 267.069 59.6431C267.812 59.0606 268.451 58.2783 268.976 57.4807C269.88 56.0987 270.643 54.6203 271.498 53.2007C272.476 51.5574 273.471 49.9627 274.996 48.7486C275.368 48.4574 275.559 47.9561 275.849 47.5842C276.009 47.3656 276.236 47.1789 276.515 46.8831C276.561 47.1758 276.617 47.3382 276.591 47.4741C276.53 47.8765 276.452 48.2844 276.375 48.6923C276.354 48.7902 276.317 48.8937 276.35 48.9911C276.697 50.1063 276.333 51.1575 276.011 52.1757C275.268 54.5552 274.001 56.679 272.691 58.7815C271.016 61.4629 269.353 64.1767 267.75 66.9063C267.173 67.8672 266.596 68.8824 266.558 70.0392C266.523 71.5216 266.407 73.032 266.681 74.517C266.865 75.5794 266.603 76.6134 265.977 77.5368C265.864 77.6844 265.844 77.8909 265.786 78.0923C265.697 78.4135 265.635 78.7615 265.508 79.0776C265.471 79.1811 265.325 79.2856 265.233 79.2811C265.141 79.2765 265.052 79.1253 265.003 79.0335C264.964 78.9741 264.974 78.898 264.968 78.8275C264.872 78.3886 264.749 78.0315 264.274 77.759C263.843 77.5079 263.442 77.0285 263.242 76.5526C262.809 75.5034 262.516 74.3877 262.196 73.2995C261.743 71.8216 261.176 70.3828 260.311 69.0824C259.904 68.4782 259.383 67.9673 258.728 67.5934C256.867 66.5087 254.92 65.6529 252.915 64.8899C251.809 64.4713 250.734 63.8788 249.729 63.2258C248.298 62.2837 246.904 61.2924 245.585 60.2026C244.852 59.6014 244.275 58.8196 243.719 58.0485C243.373 57.5685 243.253 56.9561 243.394 56.363C243.394 56.3088 243.442 56.292 243.475 56.2809Z" fill="#002B54"/>
		<path d="M63.0184 192.097C63.0307 192.258 63.0814 192.42 63.0706 192.589C62.9909 193.555 62.9808 194.5 63.0699 195.476C63.2184 196.969 62.8983 198.468 62.6094 199.945C61.9896 203.089 61.3929 206.226 60.7579 209.362C60.3684 211.29 59.9172 213.224 59.5661 215.153C59.3959 216.033 59.3249 216.945 59.3619 217.837C59.4372 219.543 60.9399 220.485 62.5114 220.223C64.0213 219.967 65.4066 219.394 66.7709 218.714C68.5538 217.826 70.3664 216.992 72.2086 216.213C73.0834 215.838 74.0386 215.679 74.9424 215.397C75.1278 215.339 75.2762 215.203 75.4399 215.076C75.5804 214.956 75.7064 214.789 75.9004 214.678C75.9497 215.323 75.8773 215.906 75.4986 216.444C74.7339 217.497 73.8258 218.416 72.767 219.18C70.8987 220.527 68.9935 221.796 66.8644 222.716C65.7188 223.201 64.5073 223.516 63.3616 224.001C62.1697 224.501 60.9842 225.062 59.8733 225.74C58.6698 226.447 58.0094 227.671 57.5097 228.921C56.8819 230.453 56.4141 232.049 55.8399 233.589C55.5082 234.481 55.0701 235.318 54.0577 235.659C53.965 235.688 53.9006 235.848 53.86 235.963C53.763 236.222 53.7196 236.49 53.6225 236.749C53.5899 236.848 53.4806 236.946 53.3959 236.96C53.3111 236.974 53.1902 236.872 53.1381 236.786C53.049 236.623 52.9679 236.445 52.9483 236.26C52.9208 235.684 52.6847 235.173 52.4254 234.669C51.9004 233.599 52.0676 232.466 52.1893 231.309C52.392 229.516 52.657 227.678 51.8756 225.95C51.3303 224.735 50.7306 223.548 50.0919 222.4C48.8137 220.141 47.458 217.92 46.2029 215.654C45.3636 214.148 44.5865 212.598 43.9253 211.011C43.4474 209.889 43.0628 208.699 43.0324 207.462C43.0403 207.447 43.0251 207.439 43.0331 207.424C43.2264 206.536 43.0743 205.643 42.991 204.766C42.9852 204.666 43.0258 204.551 43.0526 204.352C43.2343 204.486 43.3792 204.543 43.4538 204.659C44.1388 205.793 45.1672 206.642 45.9464 207.67C46.6431 208.597 47.2232 209.599 47.8112 210.585C48.8982 212.395 49.6514 214.398 50.9637 216.074C51.2859 216.494 51.6002 216.93 52.0166 217.245C52.8111 217.875 53.6453 218.021 54.3303 217.12C55.0386 216.212 55.4955 215.191 55.7699 214.075C56.1023 212.738 56.4274 211.377 56.7598 210.04C57.25 208.068 57.7402 206.096 58.2225 204.139C58.9784 201.105 59.872 198.104 61.2233 195.265C61.5672 194.534 61.8656 193.78 62.2175 193.034C62.3775 192.691 62.6368 192.381 62.8424 192.063C62.8736 192.04 62.9424 192.057 63.0184 192.097Z" fill="#002B54"/>
		<path d="M92.4996 192.493C92.4612 192.629 92.4079 192.757 92.4078 192.895C92.4012 193.149 92.3776 193.432 92.4733 193.645C93.2835 195.236 93.8744 196.9 94.2693 198.629C94.6663 200.32 95.0102 202 95.4541 203.678C95.7663 204.826 96.2575 205.938 97.0298 206.835C97.8894 207.822 99.2052 208.08 100.549 207.149C101.429 206.544 102.098 205.721 102.768 204.897C104.775 202.426 106.783 199.955 108.799 197.47C110.163 195.778 111.512 194.077 112.912 192.426C113.875 191.296 114.889 190.215 116.229 189.498C116.689 189.247 117.009 188.758 117.399 188.387C117.48 188.315 117.555 188.219 117.665 188.164C117.768 188.123 117.891 188.115 118.015 188.107C118.023 188.23 118.1 188.373 118.048 188.462C117.81 189.018 117.532 189.571 117.279 190.118C117.225 190.246 117.119 190.363 117.065 190.491C115.892 193.439 114.153 196.064 112.318 198.613C111.224 200.144 110.101 201.657 108.984 203.194C107.753 204.862 106.506 206.522 105.289 208.199C104.747 208.938 104.43 209.804 104.263 210.718C104.083 211.723 104.492 212.253 105.527 212.45C106.455 212.625 107.464 212.589 108.41 212.458C110.045 212.227 111.66 211.826 113.291 211.533C115.171 211.185 117.026 210.882 118.945 211.228C119.409 211.316 119.911 211.129 120.382 211.101C120.652 211.078 120.942 211.125 121.349 211.14C121.159 211.368 121.074 211.517 120.954 211.587C120.611 211.806 120.254 212.017 119.896 212.227C119.808 212.276 119.706 212.317 119.655 212.406C119.045 213.402 118.014 213.821 117.037 214.25C114.758 215.26 112.326 215.708 109.881 216.109C106.761 216.618 103.624 217.157 100.515 217.751C99.4115 217.95 98.2679 218.186 97.3731 218.92C96.2353 219.871 95.0231 220.779 94.0875 221.965C93.4098 222.803 92.4598 223.288 91.3524 223.426C91.1671 223.438 90.9988 223.56 90.8093 223.649C90.5089 223.793 90.2064 223.976 89.8848 224.089C89.7826 224.129 89.608 224.089 89.5506 224.016C89.4931 223.944 89.5486 223.778 89.5849 223.68C89.6041 223.612 89.668 223.569 89.717 223.518C89.9834 223.156 90.171 222.829 90.0628 222.292C89.9673 221.802 90.0635 221.185 90.2895 220.721C90.7928 219.703 91.4386 218.748 92.0461 217.79C92.8583 216.474 93.5662 215.099 93.9739 213.592C94.1596 212.887 94.2006 212.159 94.0499 211.42C93.6382 209.305 92.9986 207.278 92.2504 205.267C91.8359 204.159 91.5727 202.96 91.401 201.774C91.1658 200.077 90.9923 198.375 90.9424 196.666C90.9111 195.718 91.1183 194.768 91.3318 193.842C91.4642 193.265 91.8457 192.772 92.3846 192.487C92.4251 192.45 92.4698 192.476 92.4996 192.493Z" fill="#002B54"/>
		<path d="M254.648 205.309C254.601 205.463 254.516 205.611 254.489 205.778C254.356 206.738 254.159 207.661 253.858 208.595C253.386 210.019 253.37 211.552 253.329 213.056C253.246 216.259 253.141 219.451 253.074 222.65C253.032 224.617 253.049 226.603 252.97 228.561C252.943 229.457 252.812 230.363 252.581 231.225C252.134 232.873 250.462 233.463 248.986 232.863C247.569 232.283 246.342 231.421 245.16 230.458C243.615 229.202 242.029 227.992 240.402 226.828C239.63 226.27 238.733 225.907 237.913 225.433C237.745 225.336 237.629 225.171 237.498 225.011C237.387 224.863 237.3 224.673 237.135 224.522C236.946 225.141 236.889 225.725 237.141 226.333C237.657 227.528 238.341 228.624 239.207 229.601C240.735 231.324 242.317 232.98 244.193 234.343C245.204 235.067 246.317 235.64 247.329 236.364C248.383 237.113 249.417 237.92 250.352 238.825C251.372 239.778 251.748 241.116 251.962 242.445C252.239 244.077 252.346 245.737 252.57 247.366C252.698 248.309 252.942 249.221 253.855 249.776C253.939 249.825 253.967 249.995 253.982 250.115C254.02 250.39 254.003 250.661 254.041 250.935C254.051 251.039 254.137 251.158 254.216 251.19C254.296 251.222 254.436 251.149 254.506 251.077C254.629 250.937 254.747 250.781 254.806 250.606C254.959 250.049 255.302 249.602 255.665 249.167C256.411 248.238 256.496 247.096 256.631 245.94C256.826 244.146 256.969 242.295 258.11 240.78C258.908 239.713 259.753 238.687 260.627 237.706C262.369 235.782 264.178 233.911 265.899 231.975C267.047 230.69 268.145 229.347 269.138 227.944C269.85 226.953 270.485 225.876 270.786 224.676C270.781 224.659 270.798 224.655 270.794 224.638C270.799 223.731 271.143 222.892 271.416 222.054C271.444 221.958 271.429 221.838 271.447 221.637C271.24 221.728 271.086 221.752 270.988 221.849C270.071 222.806 268.882 223.409 267.897 224.242C267.014 224.994 266.229 225.844 265.439 226.677C263.982 228.205 262.809 229.995 261.162 231.343C260.755 231.683 260.353 232.039 259.878 232.255C258.965 232.696 258.119 232.656 257.648 231.627C257.155 230.585 256.933 229.49 256.909 228.341C256.878 226.963 256.859 225.564 256.827 224.186C256.78 222.155 256.734 220.123 256.691 218.109C256.618 214.982 256.403 211.859 255.706 208.793C255.53 208.005 255.404 207.203 255.224 206.398C255.143 206.029 254.958 205.67 254.827 205.314C254.802 205.285 254.731 205.286 254.648 205.309Z" fill="#002B54"/>
		<path d="M225.796 199.242C225.803 199.383 225.827 199.52 225.797 199.655C225.748 199.903 225.709 200.185 225.569 200.372C224.43 201.747 223.489 203.241 222.726 204.842C221.968 206.405 221.265 207.969 220.464 209.509C219.908 210.561 219.186 211.538 218.236 212.245C217.181 213.019 215.84 212.983 214.733 211.78C214.007 210.998 213.534 210.048 213.061 209.097C211.643 206.247 210.225 203.397 208.802 200.53C207.842 198.58 206.898 196.626 205.893 194.708C205.201 193.394 204.447 192.118 203.297 191.125C202.903 190.779 202.698 190.232 202.399 189.785C202.336 189.697 202.284 189.587 202.188 189.509C202.097 189.447 201.978 189.412 201.86 189.377C201.824 189.495 201.718 189.618 201.749 189.716C201.86 190.311 202.009 190.911 202.137 191.501C202.161 191.637 202.24 191.774 202.264 191.911C202.763 195.044 203.886 197.986 205.118 200.876C205.85 202.608 206.615 204.33 207.368 206.074C208.205 207.972 209.058 209.865 209.878 211.768C210.245 212.607 210.365 213.522 210.328 214.45C210.283 215.469 209.769 215.898 208.716 215.863C207.772 215.831 206.795 215.575 205.901 215.24C204.356 214.657 202.868 213.912 201.341 213.269C199.582 212.518 197.838 211.816 195.891 211.734C195.419 211.717 194.969 211.425 194.516 211.295C194.257 211.213 193.964 211.196 193.564 211.122C193.699 211.385 193.75 211.549 193.851 211.644C194.138 211.933 194.441 212.217 194.744 212.5C194.818 212.567 194.909 212.629 194.94 212.728C195.317 213.833 196.231 214.467 197.091 215.1C199.093 216.585 201.369 217.554 203.666 218.48C206.599 219.66 209.542 220.872 212.446 222.132C213.479 222.569 214.543 223.049 215.255 223.961C216.157 225.138 217.141 226.29 217.795 227.651C218.272 228.618 219.093 229.299 220.144 229.675C220.322 229.728 220.459 229.884 220.625 230.012C220.886 230.219 221.141 230.464 221.43 230.644C221.521 230.706 221.701 230.704 221.772 230.646C221.844 230.588 221.827 230.414 221.813 230.311C221.809 230.24 221.756 230.184 221.719 230.124C221.538 229.712 221.427 229.352 221.65 228.852C221.851 228.395 221.892 227.771 221.773 227.269C221.505 226.166 221.084 225.092 220.7 224.024C220.196 222.563 219.806 221.066 219.738 219.506C219.711 218.778 219.831 218.059 220.14 217.37C221.004 215.397 222.072 213.559 223.242 211.761C223.889 210.771 224.409 209.658 224.836 208.539C225.437 206.934 225.979 205.312 226.402 203.654C226.64 202.736 226.645 201.764 226.64 200.814C226.637 200.222 226.373 199.657 225.909 199.261C225.878 199.217 225.828 199.232 225.796 199.242Z" fill="#002B54"/>
		<path d="M13.2328 322.473C13.3513 322.583 13.4985 322.668 13.6048 322.8C14.2007 323.564 14.833 324.266 15.5603 324.924C16.6806 325.921 17.4607 327.241 18.2485 328.522C19.9228 331.255 21.6091 333.967 23.2668 336.704C24.2862 338.386 25.2647 340.115 26.3128 341.771C26.7838 342.533 27.3497 343.253 27.9808 343.883C29.1921 345.087 30.9356 344.762 31.9139 343.505C32.8513 342.294 33.4823 340.934 34.0246 339.509C34.7346 337.648 35.5032 335.807 36.3304 333.986C36.7197 333.117 37.3149 332.354 37.7883 331.534C37.8854 331.365 37.9029 331.165 37.9369 330.961C37.9588 330.777 37.9386 330.569 38.0058 330.356C38.4797 330.797 38.8208 331.275 38.9068 331.927C39.0576 333.22 39.0127 334.511 38.7511 335.79C38.2893 338.046 37.7479 340.271 36.8049 342.39C36.2909 343.523 35.6132 344.575 35.0992 345.708C34.561 346.883 34.0692 348.099 33.7113 349.351C33.3048 350.686 33.6481 352.033 34.1274 353.291C34.7032 354.843 35.4404 356.334 36.0615 357.856C36.4219 358.737 36.6663 359.649 36.1532 360.586C36.1047 360.671 36.1657 360.832 36.2134 360.944C36.3176 361.2 36.4672 361.427 36.5714 361.683C36.6147 361.778 36.6005 361.924 36.5475 361.992C36.4945 362.059 36.3363 362.066 36.2401 362.038C36.0642 361.979 35.8839 361.903 35.7444 361.78C35.3336 361.375 34.8136 361.159 34.2814 360.964C33.1706 360.533 32.5259 359.586 31.8314 358.652C30.7658 357.196 29.7156 355.664 27.9708 354.923C26.746 354.398 25.5013 353.932 24.2534 353.52C21.7831 352.724 19.2808 352.009 16.8226 351.192C15.1852 350.653 13.5633 350.039 12.0021 349.32C10.8901 348.818 9.80119 348.204 8.94087 347.314C8.93643 347.298 8.91985 347.302 8.9154 347.286C8.45664 346.502 7.73938 345.948 7.084 345.359C7.01204 345.29 6.96435 345.178 6.84914 345.013C7.0736 344.989 7.2184 344.932 7.35226 344.967C8.62444 345.338 9.95581 345.265 11.2256 345.494C12.366 345.704 13.4712 346.047 14.5719 346.374C16.5974 346.969 18.5084 347.932 20.6089 348.276C21.1309 348.367 21.6575 348.475 22.1772 348.424C23.1878 348.349 23.9006 347.891 23.7941 346.765C23.6999 345.617 23.3447 344.557 22.7906 343.55C22.129 342.341 21.4463 341.12 20.7846 339.911C19.8093 338.128 18.834 336.346 17.8632 334.58C16.3637 331.836 14.9879 329.023 14.0587 326.019C13.8167 325.249 13.525 324.492 13.2786 323.705C13.1642 323.344 13.1449 322.941 13.0803 322.567C13.088 322.529 13.1499 322.495 13.2328 322.473Z" fill="#002B54"/>
		<path d="M35.1877 302.792C35.2517 302.918 35.299 303.048 35.3927 303.15C35.5596 303.341 35.734 303.565 35.9487 303.657C37.6226 304.279 39.1841 305.102 40.6462 306.107C42.0838 307.081 43.475 308.084 44.9385 309.018C45.9458 309.651 47.0603 310.136 48.2361 310.273C49.5367 310.416 50.6797 309.715 51.0373 308.119C51.2752 307.078 51.2094 306.019 51.1437 304.96C50.9465 301.783 50.7493 298.605 50.5483 295.411C50.4053 293.242 50.2457 291.078 50.1567 288.914C50.0997 287.431 50.1135 285.948 50.6135 284.513C50.7819 284.017 50.6855 283.44 50.7215 282.904C50.732 282.796 50.722 282.675 50.766 282.559C50.8139 282.46 50.899 282.37 50.9841 282.28C51.074 282.366 51.227 282.419 51.2499 282.519C51.4506 283.09 51.6217 283.684 51.8056 284.259C51.8529 284.389 51.8539 284.547 51.9012 284.677C53.0356 287.641 53.5341 290.749 53.9116 293.868C54.144 295.734 54.343 297.608 54.5625 299.495C54.7867 301.557 54.9942 303.623 55.2352 305.681C55.3373 306.591 55.6905 307.444 56.1867 308.229C56.7354 309.089 57.3952 309.203 58.2896 308.647C59.0911 308.147 59.8095 307.437 60.416 306.699C61.4625 305.422 62.3781 304.033 63.3797 302.712C64.5271 301.182 65.6861 299.703 67.3317 298.658C67.7325 298.408 67.9755 297.93 68.3032 297.591C68.4863 297.39 68.7312 297.229 69.0406 296.965C69.0554 297.26 69.0936 297.428 69.0534 297.56C68.9496 297.954 68.829 298.351 68.7084 298.748C68.6773 298.844 68.6294 298.943 68.6524 299.043C68.8787 300.189 68.4042 301.195 67.976 302.173C66.9837 304.46 65.498 306.437 63.9712 308.388C62.0211 310.876 60.0787 313.398 58.1941 315.941C57.5177 316.835 56.8361 317.783 56.6752 318.929C56.4826 320.4 56.2064 321.889 56.3212 323.395C56.3908 324.471 56.0205 325.471 55.2992 326.322C55.1715 326.457 55.1298 326.66 55.0509 326.854C54.9279 327.164 54.8293 327.504 54.6691 327.804C54.6212 327.903 54.4653 327.992 54.374 327.978C54.2827 327.963 54.211 327.803 54.1713 327.707C54.1393 327.644 54.1575 327.569 54.1589 327.498C54.1098 327.052 54.0257 326.684 53.5825 326.362C53.1805 326.066 52.833 325.547 52.6848 325.053C52.3657 323.963 52.1933 322.823 51.9913 321.707C51.6976 320.189 51.2867 318.698 50.5655 317.313C50.2247 316.669 49.7615 316.105 49.15 315.664C47.4146 314.387 45.5705 313.329 43.6581 312.357C42.6029 311.823 41.597 311.119 40.6671 310.363C39.3443 309.274 38.064 308.14 36.8689 306.916C36.2039 306.24 35.713 305.402 35.2427 304.576C34.9492 304.062 34.8954 303.44 35.0987 302.865C35.104 302.811 35.1542 302.8 35.1877 302.792Z" fill="#002B54"/>
		<path d="M268.569 328.956C268.449 329.065 268.301 329.147 268.192 329.277C267.585 330.033 266.942 330.724 266.205 331.372C265.07 332.352 264.27 333.659 263.463 334.929C261.748 337.636 260.02 340.322 258.322 343.034C257.277 344.701 256.272 346.414 255.199 348.054C254.717 348.81 254.14 349.52 253.5 350.141C252.271 351.327 250.532 350.976 249.573 349.704C248.654 348.479 248.044 347.109 247.523 345.676C246.841 343.805 246.1 341.953 245.301 340.119C244.924 339.245 244.341 338.472 243.88 337.645C243.785 337.475 243.771 337.275 243.74 337.07C243.721 336.886 243.744 336.678 243.68 336.464C243.2 336.898 242.851 337.371 242.756 338.022C242.585 339.312 242.611 340.604 242.853 341.886C243.281 344.15 243.788 346.382 244.699 348.515C245.196 349.656 245.858 350.718 246.355 351.859C246.875 353.042 247.348 354.265 247.687 355.522C248.074 356.863 247.71 358.205 247.212 359.456C246.613 360.999 245.853 362.478 245.209 363.991C244.835 364.866 244.577 365.774 245.076 366.719C245.124 366.804 245.06 366.965 245.011 367.075C244.903 367.33 244.75 367.555 244.642 367.809C244.597 367.904 244.609 368.05 244.661 368.118C244.713 368.187 244.871 368.196 244.967 368.17C245.144 368.113 245.326 368.04 245.467 367.919C245.884 367.52 246.407 367.312 246.942 367.125C248.059 366.71 248.718 365.773 249.427 364.85C250.514 363.41 251.587 361.895 253.343 361.18C254.576 360.674 255.827 360.226 257.081 359.833C259.563 359.075 262.076 358.397 264.546 357.618C266.192 357.104 267.823 356.514 269.395 355.819C270.514 355.334 271.612 354.736 272.486 353.86C272.491 353.843 272.507 353.848 272.512 353.831C272.982 353.055 273.708 352.511 274.372 351.933C274.445 351.864 274.494 351.753 274.612 351.59C274.388 351.562 274.244 351.504 274.11 351.537C272.832 351.888 271.502 351.795 270.229 352.004C269.085 352.197 267.975 352.524 266.87 352.835C264.835 353.399 262.91 354.333 260.805 354.645C260.281 354.728 259.753 354.828 259.234 354.77C258.225 354.679 257.519 354.211 257.643 353.086C257.754 351.939 258.125 350.885 258.694 349.887C259.374 348.688 260.075 347.477 260.755 346.278C261.757 344.51 262.759 342.743 263.757 340.992C265.297 338.27 266.715 335.479 267.69 332.49C267.944 331.723 268.247 330.97 268.505 330.187C268.625 329.828 268.65 329.425 268.72 329.052C268.713 329.015 268.652 328.979 268.569 328.956Z" fill="#002B54"/>
		<path d="M246.915 308.945C246.849 309.071 246.8 309.2 246.705 309.3C246.535 309.489 246.357 309.71 246.141 309.799C244.458 310.395 242.884 311.195 241.407 312.177C239.955 313.13 238.549 314.112 237.071 315.024C236.055 315.641 234.933 316.109 233.755 316.228C232.453 316.352 231.32 315.634 230.987 314.032C230.765 312.988 230.846 311.93 230.928 310.872C231.173 307.698 231.418 304.524 231.668 301.333C231.843 299.167 232.036 297.005 232.157 294.843C232.236 293.36 232.245 291.878 231.767 290.436C231.606 289.937 231.711 289.362 231.683 288.825C231.674 288.717 231.686 288.596 231.644 288.48C231.597 288.38 231.514 288.289 231.43 288.198C231.339 288.281 231.185 288.332 231.161 288.432C230.951 289 230.771 289.592 230.579 290.163C230.529 290.293 230.526 290.451 230.477 290.58C229.298 293.526 228.752 296.627 228.328 299.74C228.067 301.602 227.84 303.473 227.592 305.357C227.337 307.415 227.098 309.477 226.826 311.532C226.71 312.44 226.344 313.287 225.836 314.064C225.275 314.917 224.613 315.02 223.727 314.45C222.933 313.938 222.226 313.218 221.631 312.471C220.603 311.178 219.709 309.775 218.727 308.44C217.603 306.893 216.467 305.396 214.837 304.326C214.44 304.07 214.204 303.589 213.882 303.245C213.702 303.042 213.459 302.876 213.154 302.608C213.135 302.903 213.094 303.07 213.132 303.203C213.23 303.598 213.345 303.997 213.459 304.396C213.489 304.492 213.535 304.592 213.511 304.692C213.267 305.834 213.726 306.847 214.14 307.832C215.097 310.133 216.553 312.133 218.05 314.106C219.963 316.624 221.867 319.174 223.713 321.746C224.376 322.65 225.043 323.608 225.186 324.756C225.357 326.229 225.61 327.723 225.473 329.227C225.387 330.301 225.742 331.307 226.451 332.169C226.576 332.306 226.615 332.51 226.691 332.705C226.809 333.017 226.903 333.358 227.058 333.661C227.105 333.761 227.259 333.851 227.351 333.838C227.442 333.825 227.516 333.667 227.557 333.571C227.59 333.508 227.573 333.433 227.573 333.362C227.629 332.917 227.718 332.55 228.166 332.235C228.573 331.946 228.928 331.431 229.084 330.939C229.419 329.855 229.609 328.717 229.828 327.604C230.144 326.091 230.578 324.606 231.32 323.232C231.67 322.594 232.142 322.037 232.76 321.605C234.514 320.355 236.374 319.324 238.301 318.381C239.364 317.863 240.381 317.175 241.322 316.433C242.661 315.364 243.958 314.249 245.172 313.044C245.847 312.378 246.35 311.547 246.833 310.728C247.134 310.218 247.197 309.598 247.003 309.02C246.998 308.966 246.948 308.953 246.915 308.945Z" fill="#002B54"/>
		<path d="M281.106 171.418V173.524L283.128 174.114C291.822 176.65 298.173 181.29 302.402 187.985L302.42 188.014L302.44 188.043C306.77 194.538 308.7 201.29 308.346 208.366L308.342 208.436V208.506C308.342 215.622 306.222 222.416 301.881 228.939C297.704 234.839 291.599 238.732 283.317 240.533L281.106 241.013V243.277V344.11C281.106 353.254 278.738 361.19 274.063 368.023L274.015 368.092L273.972 368.164C269.577 375.489 264.19 380.453 257.855 383.269C251.501 386.093 244.804 386.636 237.655 384.849L237.59 384.833L237.525 384.82C230.699 383.455 224.301 378.985 218.398 370.875C215.944 367.363 214.162 363.299 213.076 358.647C212.332 353.78 211.966 349.323 211.966 345.269V245.015V242.207H209.158H74.1332H71.3252V245.015V343.531C71.3252 347.604 70.9554 351.885 70.2078 356.377C69.4848 360.343 68.2304 363.905 66.4631 367.086L66.4558 367.099L66.4486 367.112C61.6601 375.953 55.7613 381.351 48.8664 383.764C41.7764 386.245 34.9625 386.059 28.283 383.247L28.2241 383.222L28.1641 383.2C21.4236 380.717 15.4746 376.08 10.3384 369.113C5.73569 362.735 3.3441 354.655 3.3441 344.69V45.0861C3.3441 35.6388 6.04952 27.5827 11.4053 20.783C17.3116 13.7793 23.8545 9.09901 31.0185 6.59164L31.0766 6.5713L31.1337 6.54844C38.2419 3.70517 45.2687 3.53598 52.3434 6.01211L52.4208 6.03919L52.4996 6.06171C59.5759 8.0835 64.9933 13.2985 68.6172 22.341C69.713 25.2682 70.4227 27.9574 70.7739 30.4161L70.7785 30.4484L70.7839 30.4806C71.1384 32.6072 71.3252 35.1508 71.3252 38.1321V169.1V171.908H74.1332H209.158H211.966V169.1V45.0861C211.966 37.7981 213.601 30.8874 216.885 24.3207C220.878 16.3339 226.413 10.8521 233.467 7.67121C241.137 4.38878 248.266 3.54554 254.94 4.95054L254.953 4.95346L254.967 4.95624C262.061 6.37493 268.088 9.90462 273.108 15.6419L273.17 15.7123L273.236 15.7784C278.37 20.9131 281.106 28.2324 281.106 38.1321V171.418Z" stroke="black" stroke-width="5.61594"/>
	</g>
</svg>
