<svg width="13" height="13" viewBox="0 0 340 390" fill="none" xmlns="http://www.w3.org/2000/svg">
	<path d="M334.658 220.5C329.074 246.032 319.971 262.301 309.803 282.636C300.012 302.595 287.962 320.482 273.652 336.299C259.341 352.115 242.584 364.919 223.378 374.71C204.549 384.501 182.896 389.397 158.418 389.397C142.602 388.643 129.986 387.137 120.572 384.878C111.534 382.995 102.684 379.982 94.0227 375.84C78.5829 371.321 65.2143 364.166 53.9169 354.375C42.996 344.207 33.7698 332.533 26.2382 319.353C18.7066 306.172 12.8696 292.239 8.72721 277.552C4.9614 262.489 2.51363 247.991 1.38389 234.057C-0.499012 209.579 1.57218 184.725 7.59747 159.494C13.6228 134.263 23.2256 111.104 36.4059 90.0151C49.5862 68.55 66.1557 50.2859 86.1145 35.2226C106.073 19.7829 128.856 9.61519 154.464 4.71964C167.644 2.46016 181.013 1.70701 194.57 2.46017C208.127 3.21332 221.307 5.84938 234.111 10.3684C244.655 14.1341 254.446 18.4648 263.484 23.3604C272.522 28.2559 281.183 34.4695 289.468 42.0011C300.389 51.7922 309.615 63.0896 317.147 75.8933C324.678 88.6971 330.139 102.066 333.528 115.999C337.67 133.698 339.553 151.209 339.177 168.532C338.8 185.855 339.01 200.599 334.658 220.5ZM188.356 315.963C199.654 311.068 209.445 304.666 217.729 296.758C226.391 288.473 233.922 279.435 240.324 269.644C246.726 259.853 251.998 249.497 256.141 238.576C260.66 227.279 264.939 218.368 268.003 204.684C271.773 187.843 271.392 175.687 271.392 160.624C271.769 145.561 268.756 131.251 262.354 117.694C257.082 106.396 248.986 96.7936 238.065 88.8854C227.52 80.6006 215.846 74.9519 203.043 71.9393C190.239 68.5501 177.247 67.7969 164.067 69.6797C151.263 71.5627 139.777 76.6465 129.61 84.9313C115.299 96.9819 103.625 110.539 94.5876 125.602C85.9262 140.289 79.3361 156.67 74.8171 174.746C71.0513 189.056 68.9801 204.119 68.6035 219.935C68.2269 235.752 70.6747 250.815 75.9468 265.125C80.0892 275.669 86.1145 285.272 94.0227 293.933C102.307 302.595 111.534 309.373 121.701 314.269C131.869 319.164 142.602 321.989 153.899 322.742C165.573 323.118 177.059 320.859 188.356 315.963Z" fill="#F87C06"/>
	<mask id="mask0_179_7606" style="mask-type:alpha" maskUnits="userSpaceOnUse" x="0" y="2" width="340" height="388">
		<path d="M307.292 281.38L307.287 281.39L307.282 281.399C297.602 301.133 285.696 318.801 271.569 334.415C257.491 349.975 241.007 362.571 222.103 372.208L222.093 372.213L222.083 372.219C203.728 381.763 182.553 386.58 158.484 386.589C142.78 385.838 130.384 384.345 121.227 382.147L121.186 382.137L121.144 382.129C112.336 380.294 103.7 377.356 95.2342 373.307L95.0294 373.209L94.8114 373.145C79.7463 368.736 66.7557 361.776 55.7938 352.286C45.0998 342.322 36.0614 330.884 28.6762 317.96C21.2657 304.991 15.521 291.283 11.4412 276.83C7.71489 261.917 5.29838 247.586 4.18314 233.836C2.32464 209.667 4.36777 185.108 10.3286 160.146C16.2864 135.198 25.7747 112.323 38.787 91.5033L38.7929 91.4939L38.7987 91.4844C51.7969 70.3159 68.1293 52.3143 87.806 37.4639L87.8194 37.4539L87.8326 37.4436C107.424 22.2884 129.787 12.3001 154.965 7.48271C167.925 5.26297 181.074 4.52269 194.414 5.26382C207.704 6.00213 220.621 8.58528 233.172 13.0148C243.591 16.7361 253.247 21.0089 262.146 25.8294C270.969 30.6081 279.447 36.686 287.579 44.0788L287.586 44.0854L287.594 44.0919C298.296 53.6875 307.339 64.7592 314.726 77.317C322.121 89.8887 327.474 102.998 330.796 116.651C334.886 134.128 336.74 151.399 336.369 168.471C336.329 170.342 336.295 172.179 336.261 173.991C335.983 189.038 335.736 202.425 331.914 219.9C327.013 242.317 319.384 257.418 310.542 274.924C309.475 277.036 308.391 279.182 307.292 281.38ZM219.668 298.789L219.67 298.787C228.483 290.358 236.152 281.155 242.674 271.181C249.182 261.227 254.544 250.698 258.757 239.596C259.592 237.509 260.425 235.49 261.248 233.495C264.819 224.843 268.204 216.641 270.743 205.297C274.263 189.574 274.236 177.797 274.206 164.428C274.203 163.186 274.2 161.932 274.2 160.658C274.582 145.174 271.479 130.443 264.896 116.5C259.413 104.753 251.007 94.8008 239.756 86.6434C228.919 78.1379 216.901 72.3211 203.724 69.2149C190.566 65.7373 177.207 64.966 163.67 66.9L163.658 66.9016C150.346 68.8593 138.39 74.1544 127.836 82.7544L127.818 82.7688L127.801 82.7834C113.269 95.0207 101.387 108.811 92.1797 124.157L92.1743 124.166L92.1689 124.176C83.3611 139.111 76.6755 155.741 72.0972 174.048C68.2748 188.578 66.1776 203.854 65.7963 219.869C65.4117 236.025 67.913 251.441 73.312 266.096L73.3223 266.124L73.3333 266.152C77.6056 277.027 83.8178 286.921 91.949 295.827L91.971 295.851L91.9935 295.874C100.497 304.764 109.994 311.748 120.483 316.799C130.975 321.851 142.058 324.767 153.712 325.544L153.76 325.547L153.808 325.548C165.919 325.939 177.816 323.591 189.473 318.54C201.051 313.522 211.126 306.943 219.668 298.789Z" fill="#F87C06" stroke="black" stroke-width="5.61594"/>
	</mask>
	<g mask="url(#mask0_179_7606)">
		<circle cx="141.61" cy="55.3093" r="28.5477" transform="rotate(-29.6702 141.61 55.3093)" fill="#FDBE3F" stroke="#FCF5C3" stroke-width="2.80797"/>
		<mask id="mask1_179_7606" style="mask-type:alpha" maskUnits="userSpaceOnUse" x="111" y="25" width="61" height="61">
			<circle cx="141.61" cy="55.3093" r="28.5477" transform="rotate(-29.6702 141.61 55.3093)" fill="#FDBE3F" stroke="#FCF5C3" stroke-width="2.80797"/>
		</mask>
		<g mask="url(#mask1_179_7606)">
			<path d="M164.869 42.0591C166.397 41.1891 168.357 41.7166 169.06 43.3274C170.727 47.1456 171.579 51.2705 171.561 55.4365C171.554 57.1941 169.963 58.4552 168.216 58.2614L145.281 55.7172C144.125 55.5891 143.809 54.0573 144.819 53.4819L164.869 42.0591Z" stroke="#FCF5C3" stroke-width="1.87198" stroke-linejoin="round"/>
			<path d="M152.639 30.9182C153.363 29.3167 155.259 28.5912 156.774 29.481C160.367 31.5903 163.481 34.4266 165.915 37.8074C166.942 39.2336 166.397 41.1891 164.869 42.0591L144.284 53.7866C143.442 54.2661 142.479 53.3884 142.878 52.5057L152.639 30.9182Z" stroke="#FCF5C3" stroke-width="1.87198" stroke-linejoin="round"/>
			<path d="M136.195 29.0941C135.84 27.3729 136.947 25.6714 138.696 25.5004C142.843 25.0951 147.029 25.5595 150.986 26.8636C152.655 27.4138 153.363 29.3167 152.639 30.9182L142.878 52.5057C142.479 53.3884 141.183 53.2447 140.987 52.296L136.195 29.0941Z" stroke="#FCF5C3" stroke-width="1.87198" stroke-linejoin="round"/>
			<path d="M121.82 37.2817C120.521 36.0982 120.416 34.0706 121.731 32.9041C124.847 30.1391 128.507 28.0542 132.475 26.7835C134.148 26.2475 135.84 27.3709 136.195 29.0922L140.801 51.3898C141.055 52.6231 139.583 53.4619 138.652 52.6138L121.82 37.2817Z" stroke="#FCF5C3" stroke-width="1.87198" stroke-linejoin="round"/>
			<path d="M115.004 52.3567C113.257 52.163 111.981 50.5838 112.359 48.8674C113.255 44.7987 114.99 40.9609 117.453 37.6008C118.492 36.1833 120.521 36.0982 121.82 37.2817L138.88 52.8211C139.739 53.6039 139.095 55.0291 137.939 54.9009L115.004 52.3567Z" stroke="#FCF5C3" stroke-width="1.87198" stroke-linejoin="round"/>
			<path d="M118.35 68.5586C116.823 69.4286 114.862 68.901 114.159 67.2902C112.492 63.4721 111.64 59.3472 111.658 55.1811C111.665 53.4236 113.256 52.1625 115.003 52.3562L137.939 54.9004C139.094 55.0286 139.41 56.5604 138.4 57.1358L118.35 68.5586Z" stroke="#FCF5C3" stroke-width="1.87198" stroke-linejoin="round"/>
			<path d="M130.581 79.6995C129.857 81.301 127.96 82.0265 126.445 81.1367C122.852 79.0274 119.738 76.1911 117.304 72.8103C116.277 71.384 116.823 69.4286 118.35 68.5586L138.935 56.8311C139.777 56.3516 140.741 57.2293 140.341 58.112L130.581 79.6995Z" stroke="#FCF5C3" stroke-width="1.87198" stroke-linejoin="round"/>
			<path d="M147.024 81.5236C147.38 83.2448 146.272 84.9463 144.523 85.1173C140.377 85.5226 136.19 85.0582 132.234 83.754C130.564 83.2039 129.857 81.301 130.581 79.6995L140.088 58.6728C140.567 57.6136 142.121 57.7861 142.356 58.9245L147.024 81.5236Z" stroke="#FCF5C3" stroke-width="1.87198" stroke-linejoin="round"/>
			<path d="M161.399 73.336C162.699 74.5195 162.803 76.5471 161.488 77.7136C158.372 80.4786 154.712 82.5635 150.745 83.8342C149.071 84.3702 147.38 83.2467 147.024 81.5255L142.356 58.9264C142.121 57.788 143.48 57.0138 144.34 57.7966L161.399 73.336Z" stroke="#FCF5C3" stroke-width="1.87198" stroke-linejoin="round"/>
			<path d="M168.215 58.2609C169.962 58.4547 171.238 60.0339 170.86 61.7503C169.965 65.819 168.229 69.6568 165.766 73.0169C164.727 74.4344 162.699 74.5195 161.399 73.336L143.885 57.3821C143.168 56.7297 143.705 55.5421 144.668 55.6489L168.215 58.2609Z" stroke="#FCF5C3" stroke-width="1.87198" stroke-linejoin="round"/>
		</g>
		<path d="M145.675 52.9925C146.955 55.2383 146.171 58.0961 143.925 59.3755C141.68 60.6549 138.822 59.8715 137.543 57.6257C136.528 55.8442 136.811 53.6775 138.092 52.2191L137.586 51.3298L138.952 51.4562C139.061 51.3809 139.175 51.3097 139.292 51.2428C139.433 51.1627 139.576 51.0907 139.721 51.0266C141.89 50.0672 144.476 50.8874 145.675 52.9925Z" fill="#FCF5C3"/>
		<circle cx="277.801" cy="47.3475" r="28.5477" transform="rotate(1.26435 277.801 47.3475)" fill="#FDBE3F" stroke="#FCF5C3" stroke-width="2.80797"/>
		<mask id="mask2_179_7606" style="mask-type:alpha" maskUnits="userSpaceOnUse" x="247" y="17" width="61" height="61">
			<circle cx="277.801" cy="47.3475" r="28.5477" transform="rotate(1.26435 277.801 47.3475)" fill="#FDBE3F" stroke="#FCF5C3" stroke-width="2.80797"/>
		</mask>
		<g mask="url(#mask2_179_7606)">
			<path d="M304.562 47.9388C306.319 47.9776 307.73 49.4379 307.505 51.181C306.972 55.3129 305.582 59.289 303.425 62.8534C302.515 64.3571 300.502 64.621 299.104 63.5568L280.739 49.5844C279.813 48.8805 280.329 47.404 281.492 47.4296L304.562 47.9388Z" stroke="#FCF5C3" stroke-width="1.87198" stroke-linejoin="round"/>
			<path d="M299.8 32.0938C301.244 31.0923 303.244 31.4447 304.086 32.9871C306.084 36.6432 307.297 40.6768 307.647 44.8281C307.795 46.5795 306.321 47.9761 304.564 47.9374L280.878 47.4146C279.91 47.3932 279.534 46.145 280.33 45.593L299.8 32.0938Z" stroke="#FCF5C3" stroke-width="1.87198" stroke-linejoin="round"/>
			<path d="M286.633 22.0763C287.213 20.4171 289.038 19.527 290.626 20.2796C294.391 22.0634 297.743 24.6137 300.467 27.7663C301.615 29.0963 301.244 31.0923 299.8 32.0938L280.33 45.593C279.534 46.145 278.497 45.3558 278.817 44.4413L286.633 22.0763Z" stroke="#FCF5C3" stroke-width="1.87198" stroke-linejoin="round"/>
			<path d="M270.093 21.7112C269.587 20.0281 270.54 18.2355 272.267 17.9107C276.361 17.1409 280.572 17.2338 284.629 18.1835C286.34 18.5842 287.213 20.4171 286.633 22.0763L279.121 43.5697C278.706 44.7585 277.012 44.7212 276.649 43.5152L270.093 21.7112Z" stroke="#FCF5C3" stroke-width="1.87198" stroke-linejoin="round"/>
			<path d="M256.497 31.138C255.098 30.0738 254.815 28.0634 256.022 26.7854C258.882 23.756 262.343 21.3561 266.183 19.7401C267.803 19.0583 269.587 20.0281 270.093 21.7112L276.738 43.8099C277.073 44.9231 275.787 45.8143 274.862 45.1105L256.497 31.138Z" stroke="#FCF5C3" stroke-width="1.87198" stroke-linejoin="round"/>
			<path d="M251.039 46.7565C249.282 46.7177 247.871 45.2574 248.096 43.5143C248.629 39.3824 250.019 35.4063 252.176 31.8419C253.086 30.3382 255.099 30.0743 256.497 31.1385L274.863 45.1109C275.788 45.8148 275.272 47.2913 274.109 47.2657L251.039 46.7565Z" stroke="#FCF5C3" stroke-width="1.87198" stroke-linejoin="round"/>
			<path d="M255.801 62.6015C254.357 63.603 252.357 63.2506 251.515 61.7082C249.517 58.0521 248.304 54.0186 247.954 49.8672C247.806 48.1158 249.28 46.7192 251.037 46.758L274.723 47.2807C275.691 47.3021 276.067 48.5503 275.271 49.1023L255.801 62.6015Z" stroke="#FCF5C3" stroke-width="1.87198" stroke-linejoin="round"/>
			<path d="M268.968 72.619C268.388 74.2782 266.563 75.1683 264.975 74.4158C261.21 72.6319 257.858 70.0816 255.135 66.929C253.986 65.599 254.357 63.603 255.801 62.6015L274.765 49.453C275.72 48.7906 276.965 49.7377 276.581 50.8351L268.968 72.619Z" stroke="#FCF5C3" stroke-width="1.87198" stroke-linejoin="round"/>
			<path d="M285.508 72.9841C286.014 74.6672 285.061 76.4599 283.334 76.7846C279.24 77.5544 275.029 77.4615 270.972 76.5118C269.261 76.1111 268.388 74.2782 268.968 72.619L276.581 50.8351C276.965 49.7377 278.529 49.7722 278.863 50.8854L285.508 72.9841Z" stroke="#FCF5C3" stroke-width="1.87198" stroke-linejoin="round"/>
			<path d="M299.104 63.5573C300.503 64.6215 300.786 66.6319 299.579 67.9099C296.719 70.9393 293.258 73.3392 289.418 74.9552C287.798 75.637 286.014 74.6672 285.508 72.9841L278.686 50.296C278.407 49.3683 279.478 48.6256 280.249 49.2122L299.104 63.5573Z" stroke="#FCF5C3" stroke-width="1.87198" stroke-linejoin="round"/>
		</g>
		<path d="M282.48 47.4507C282.423 50.0347 280.282 52.0832 277.697 52.0262C275.113 51.9692 273.065 49.8282 273.122 47.2441C273.167 45.1942 274.524 43.4813 276.373 42.8892L276.395 41.866L277.502 42.6767C277.635 42.6684 277.769 42.6656 277.904 42.6686C278.066 42.6721 278.226 42.6839 278.383 42.7034C280.736 42.9955 282.533 45.0284 282.48 47.4507Z" fill="#FCF5C3"/>
		<ellipse cx="311.64" cy="170.354" rx="29.9517" ry="29.9517" transform="rotate(-31.4167 311.64 170.354)" fill="#FDBE3F" stroke="#FCF5C3" stroke-width="2.80797"/>
		<mask id="mask3_179_7606" style="mask-type:alpha" maskUnits="userSpaceOnUse" x="281" y="140" width="61" height="61">
			<ellipse cx="311.64" cy="170.354" rx="29.9517" ry="29.9517" transform="rotate(-31.4167 311.64 170.354)" fill="#FDBE3F" stroke="#FCF5C3" stroke-width="2.80797"/>
		</mask>
		<g mask="url(#mask3_179_7606)">
			<path d="M334.484 156.401C335.983 155.485 337.959 155.953 338.711 157.541C340.493 161.307 341.471 165.404 341.58 169.569C341.626 171.325 340.074 172.635 338.322 172.494L315.32 170.65C314.161 170.557 313.798 169.036 314.79 168.43L334.484 156.401Z" stroke="#FCF5C3" stroke-width="1.87198" stroke-linejoin="round"/>
			<path d="M321.921 145.638C322.596 144.015 324.469 143.232 326.011 144.076C329.666 146.075 332.865 148.815 335.401 152.12C336.471 153.514 335.985 155.485 334.486 156.401L314.267 168.751C313.44 169.256 312.451 168.408 312.823 167.513L321.921 145.638Z" stroke="#FCF5C3" stroke-width="1.87198" stroke-linejoin="round"/>
			<path d="M305.427 144.316C305.02 142.607 306.075 140.872 307.818 140.648C311.95 140.117 316.148 140.453 320.143 141.636C321.828 142.135 322.594 144.015 321.919 145.638L312.821 167.513C312.449 168.408 311.149 168.304 310.925 167.361L305.427 144.316Z" stroke="#FCF5C3" stroke-width="1.87198" stroke-linejoin="round"/>
			<path d="M291.308 152.939C289.974 151.795 289.808 149.772 291.086 148.566C294.117 145.707 297.711 143.512 301.638 142.121C303.295 141.534 305.02 142.605 305.427 144.315L310.71 166.462C311.003 167.687 309.556 168.57 308.6 167.751L291.308 152.939Z" stroke="#FCF5C3" stroke-width="1.87198" stroke-linejoin="round"/>
			<path d="M284.957 168.214C283.205 168.074 281.881 166.534 282.207 164.807C282.978 160.713 284.596 156.824 286.955 153.391C287.951 151.942 289.976 151.795 291.31 152.939L308.836 167.951C309.719 168.707 309.118 170.151 307.959 170.058L284.957 168.214Z" stroke="#FCF5C3" stroke-width="1.87198" stroke-linejoin="round"/>
			<path d="M288.796 184.308C287.296 185.224 285.321 184.757 284.569 183.168C282.786 179.403 281.809 175.306 281.7 171.141C281.654 169.384 283.205 168.075 284.957 168.215L307.96 170.059C309.118 170.152 309.481 171.674 308.489 172.28L288.796 184.308Z" stroke="#FCF5C3" stroke-width="1.87198" stroke-linejoin="round"/>
			<path d="M301.359 195.071C300.684 196.694 298.811 197.477 297.269 196.634C293.614 194.635 290.415 191.895 287.878 188.59C286.808 187.196 287.294 185.224 288.794 184.308L309.013 171.959C309.839 171.454 310.829 172.302 310.457 173.196L301.359 195.071Z" stroke="#FCF5C3" stroke-width="1.87198" stroke-linejoin="round"/>
			<path d="M317.852 196.393C318.26 198.103 317.205 199.837 315.462 200.061C311.33 200.593 307.131 200.256 303.137 199.073C301.451 198.574 300.686 196.694 301.361 195.071L310.223 173.765C310.669 172.691 312.228 172.816 312.498 173.947L317.852 196.393Z" stroke="#FCF5C3" stroke-width="1.87198" stroke-linejoin="round"/>
			<path d="M331.971 187.771C333.306 188.915 333.472 190.938 332.193 192.144C329.163 195.003 325.569 197.198 321.641 198.589C319.985 199.176 318.26 198.105 317.852 196.395L312.498 173.949C312.228 172.818 313.563 172.003 314.446 172.759L331.971 187.771Z" stroke="#FCF5C3" stroke-width="1.87198" stroke-linejoin="round"/>
			<path d="M338.323 172.496C340.075 172.636 341.398 174.176 341.073 175.903C340.301 179.997 338.684 183.886 336.325 187.319C335.329 188.768 333.304 188.915 331.969 187.771L313.977 172.359C313.241 171.728 313.741 170.525 314.707 170.602L338.323 172.496Z" stroke="#FCF5C3" stroke-width="1.87198" stroke-linejoin="round"/>
		</g>
		<path d="M315.634 167.914C316.981 170.12 316.285 173 314.079 174.347C311.874 175.694 308.993 174.999 307.646 172.793C306.577 171.043 306.794 168.869 308.031 167.372L307.497 166.498L308.867 166.583C308.974 166.505 309.085 166.43 309.2 166.359C309.339 166.275 309.479 166.199 309.622 166.13C311.761 165.105 314.371 165.846 315.634 167.914Z" fill="#FCF5C3"/>
		<circle cx="247.413" cy="281.348" r="28.5477" transform="rotate(4.9464 247.413 281.348)" fill="#FDBE3F" stroke="#FCF5C3" stroke-width="2.80797"/>
		<mask id="mask4_179_7606" style="mask-type:alpha" maskUnits="userSpaceOnUse" x="217" y="251" width="61" height="61">
			<circle cx="247.413" cy="281.348" r="28.5477" transform="rotate(4.9464 247.413 281.348)" fill="#FDBE3F" stroke="#FCF5C3" stroke-width="2.80797"/>
		</mask>
		<g mask="url(#mask4_179_7606)">
			<path d="M274.082 283.657C275.833 283.809 277.146 285.357 276.81 287.082C276.013 291.171 274.371 295.049 271.989 298.468C270.985 299.91 268.959 300.044 267.632 298.892L250.202 283.769C249.324 283.008 249.933 281.567 251.092 281.668L274.082 283.657Z" stroke="#FCF5C3" stroke-width="1.87198" stroke-linejoin="round"/>
			<path d="M270.347 267.54C271.853 266.634 273.825 267.114 274.567 268.707C276.326 272.484 277.277 276.587 277.36 280.752C277.395 282.51 275.835 283.809 274.084 283.657L250.48 281.614C249.515 281.531 249.221 280.261 250.051 279.762L270.347 267.54Z" stroke="#FCF5C3" stroke-width="1.87198" stroke-linejoin="round"/>
			<path d="M257.849 256.698C258.534 255.08 260.412 254.308 261.949 255.161C265.591 257.183 268.773 259.944 271.288 263.265C272.349 264.666 271.851 266.634 270.345 267.54L250.049 279.762C249.219 280.261 248.234 279.407 248.612 278.515L257.849 256.698Z" stroke="#FCF5C3" stroke-width="1.87198" stroke-linejoin="round"/>
			<path d="M241.366 255.27C240.969 253.557 242.035 251.83 243.78 251.617C247.915 251.111 252.111 251.474 256.098 252.683C257.78 253.192 258.534 255.078 257.849 256.696L248.972 277.663C248.481 278.822 246.793 278.676 246.508 277.45L241.366 255.27Z" stroke="#FCF5C3" stroke-width="1.87198" stroke-linejoin="round"/>
			<path d="M227.195 263.804C225.867 262.652 225.714 260.628 227 259.43C230.049 256.59 233.657 254.418 237.593 253.051C239.253 252.475 240.971 253.557 241.368 255.27L246.58 277.749C246.842 278.882 245.503 279.689 244.624 278.927L227.195 263.804Z" stroke="#FCF5C3" stroke-width="1.87198" stroke-linejoin="round"/>
			<path d="M220.745 279.039C218.994 278.887 217.68 277.34 218.017 275.615C218.814 271.525 220.456 267.647 222.837 264.228C223.842 262.786 225.868 262.652 227.195 263.804L244.625 278.927C245.503 279.689 244.893 281.129 243.735 281.029L220.745 279.039Z" stroke="#FCF5C3" stroke-width="1.87198" stroke-linejoin="round"/>
			<path d="M224.48 295.156C222.974 296.062 221.001 295.582 220.26 293.989C218.501 290.212 217.55 286.109 217.467 281.944C217.432 280.187 218.992 278.887 220.743 279.039L244.346 281.082C245.311 281.165 245.606 282.435 244.776 282.935L224.48 295.156Z" stroke="#FCF5C3" stroke-width="1.87198" stroke-linejoin="round"/>
			<path d="M236.978 305.998C236.293 307.617 234.415 308.388 232.878 307.535C229.235 305.513 226.054 302.753 223.539 299.432C222.477 298.031 222.976 296.062 224.482 295.156L244.251 283.252C245.246 282.653 246.428 283.678 245.975 284.748L236.978 305.998Z" stroke="#FCF5C3" stroke-width="1.87198" stroke-linejoin="round"/>
			<path d="M253.461 307.427C253.858 309.139 252.792 310.867 251.047 311.08C246.912 311.585 242.715 311.222 238.728 310.014C237.046 309.504 236.293 307.619 236.978 306L245.975 284.75C246.428 283.68 247.986 283.814 248.249 284.947L253.461 307.427Z" stroke="#FCF5C3" stroke-width="1.87198" stroke-linejoin="round"/>
			<path d="M267.632 298.892C268.96 300.044 269.113 302.069 267.826 303.267C264.778 306.106 261.17 308.279 257.234 309.645C255.573 310.221 253.856 309.139 253.459 307.427L248.108 284.347C247.889 283.404 249.006 282.731 249.737 283.366L267.632 298.892Z" stroke="#FCF5C3" stroke-width="1.87198" stroke-linejoin="round"/>
		</g>
		<path d="M252.076 281.751C251.853 284.326 249.585 286.233 247.01 286.01C244.435 285.787 242.528 283.519 242.751 280.944C242.928 278.901 244.392 277.279 246.275 276.807L246.363 275.787L247.416 276.667C247.548 276.667 247.682 276.673 247.817 276.685C247.978 276.699 248.137 276.721 248.292 276.75C250.622 277.193 252.285 279.337 252.076 281.751Z" fill="#FCF5C3"/>
		<circle cx="150.479" cy="343.797" r="28.5477" transform="rotate(-18.9711 150.479 343.797)" fill="#FDBE3F" stroke="#FCF5C3" stroke-width="2.80797"/>
		<mask id="mask5_179_7606" style="mask-type:alpha" maskUnits="userSpaceOnUse" x="120" y="313" width="61" height="61">
			<circle cx="150.479" cy="343.797" r="28.5477" transform="rotate(-18.9711 150.479 343.797)" fill="#FDBE3F" stroke="#FCF5C3" stroke-width="2.80797"/>
		</mask>
		<g mask="url(#mask5_179_7606)">
			<path d="M175.793 335.095C177.455 334.524 179.284 335.406 179.676 337.119C180.605 341.18 180.676 345.392 179.885 349.482C179.552 351.208 177.754 352.152 176.074 351.637L154.009 344.879C152.898 344.539 152.871 342.975 153.971 342.597L175.793 335.095Z" stroke="#FCF5C3" stroke-width="1.87198" stroke-linejoin="round"/>
			<path d="M165.845 321.877C166.854 320.438 168.852 320.077 170.176 321.233C173.315 323.972 175.848 327.337 177.612 331.111C178.357 332.703 177.457 334.524 175.795 335.095L153.39 342.797C152.474 343.112 151.69 342.07 152.247 341.277L165.845 321.877Z" stroke="#FCF5C3" stroke-width="1.87198" stroke-linejoin="round"/>
			<path d="M150.024 317.032C149.995 315.275 151.399 313.808 153.149 313.965C157.299 314.337 161.326 315.57 164.972 317.586C166.51 318.437 166.852 320.438 165.843 321.877L152.245 341.277C151.689 342.07 150.442 341.689 150.426 340.72L150.024 317.032Z" stroke="#FCF5C3" stroke-width="1.87198" stroke-linejoin="round"/>
			<path d="M134.379 322.408C133.322 321.004 133.596 318.993 135.104 318.09C138.68 315.952 142.663 314.583 146.797 314.071C148.541 313.855 149.995 315.273 150.024 317.03L150.41 339.795C150.432 341.054 148.829 341.605 148.072 340.599L134.379 322.408Z" stroke="#FCF5C3" stroke-width="1.87198" stroke-linejoin="round"/>
			<path d="M124.884 335.956C123.204 335.441 122.243 333.653 122.933 332.036C124.569 328.205 126.986 324.756 130.03 321.911C131.315 320.711 133.324 321.004 134.381 322.408L148.259 340.845C148.958 341.773 148.06 343.054 146.949 342.714L124.884 335.956Z" stroke="#FCF5C3" stroke-width="1.87198" stroke-linejoin="round"/>
			<path d="M125.165 352.5C123.503 353.071 121.674 352.189 121.282 350.476C120.353 346.414 120.282 342.203 121.073 338.113C121.406 336.387 123.204 335.443 124.884 335.958L146.949 342.716C148.06 343.056 148.087 344.62 146.987 344.998L125.165 352.5Z" stroke="#FCF5C3" stroke-width="1.87198" stroke-linejoin="round"/>
			<path d="M135.113 365.718C134.104 367.157 132.106 367.518 130.782 366.362C127.643 363.622 125.11 360.257 123.346 356.483C122.601 354.891 123.501 353.071 125.163 352.5L147.568 344.798C148.484 344.483 149.268 345.524 148.711 346.318L135.113 365.718Z" stroke="#FCF5C3" stroke-width="1.87198" stroke-linejoin="round"/>
			<path d="M150.934 370.563C150.963 372.32 149.559 373.786 147.809 373.63C143.659 373.258 139.632 372.025 135.986 370.009C134.448 369.158 134.106 367.157 135.115 365.718L148.36 346.822C149.027 345.87 150.523 346.328 150.543 347.49L150.934 370.563Z" stroke="#FCF5C3" stroke-width="1.87198" stroke-linejoin="round"/>
			<path d="M166.579 365.186C167.636 366.591 167.362 368.602 165.854 369.504C162.278 371.643 158.295 373.012 154.161 373.524C152.417 373.74 150.963 372.322 150.934 370.565L150.543 347.492C150.523 346.33 152.002 345.821 152.701 346.75L166.579 365.186Z" stroke="#FCF5C3" stroke-width="1.87198" stroke-linejoin="round"/>
			<path d="M176.074 351.639C177.754 352.154 178.715 353.942 178.025 355.559C176.389 359.39 173.972 362.839 170.928 365.684C169.643 366.884 167.634 366.591 166.577 365.186L152.329 346.258C151.746 345.484 152.495 344.417 153.421 344.701L176.074 351.639Z" stroke="#FCF5C3" stroke-width="1.87198" stroke-linejoin="round"/>
		</g>
		<path d="M154.904 342.275C155.744 344.72 154.444 347.382 151.999 348.222C149.555 349.063 146.892 347.762 146.052 345.318C145.386 343.379 146.066 341.303 147.596 340.108L147.264 339.14L148.583 339.517C148.704 339.464 148.829 339.415 148.957 339.371C149.11 339.318 149.263 339.274 149.418 339.238C151.727 338.698 154.116 339.984 154.904 342.275Z" fill="#FCF5C3"/>
		<ellipse cx="29.374" cy="290.225" rx="29.9517" ry="29.9517" transform="rotate(7.71664 29.374 290.225)" fill="#FDBE3F" stroke="#FCF5C3" stroke-width="2.80797"/>
		<mask id="mask6_179_7606" style="mask-type:alpha" maskUnits="userSpaceOnUse" x="-1" y="260" width="61" height="61">
			<ellipse cx="29.374" cy="290.225" rx="29.9517" ry="29.9517" transform="rotate(7.71664 29.374 290.225)" fill="#FDBE3F" stroke="#FCF5C3" stroke-width="2.80797"/>
		</mask>
		<g mask="url(#mask6_179_7606)">
			<path d="M55.9019 293.82C57.6435 294.056 58.8809 295.666 58.4616 297.372C57.4675 301.418 55.6399 305.213 53.0963 308.512C52.0232 309.904 49.9933 309.94 48.723 308.726L32.0443 292.778C31.2041 291.975 31.8828 290.565 33.0348 290.721L55.9019 293.82Z" stroke="#FCF5C3" stroke-width="1.87198" stroke-linejoin="round"/>
			<path d="M52.9485 277.541C54.4962 276.709 56.4433 277.283 57.1073 278.911C58.6811 282.768 59.433 286.912 59.3146 291.077C59.2646 292.834 57.6435 294.056 55.9019 293.82L32.4248 290.639C31.4649 290.509 31.2322 289.226 32.0853 288.767L52.9485 277.541Z" stroke="#FCF5C3" stroke-width="1.87198" stroke-linejoin="round"/>
			<path d="M40.9908 266.106C41.7534 264.523 43.6666 263.843 45.1602 264.77C48.7008 266.965 51.7451 269.876 54.097 273.315C55.0893 274.765 54.4962 276.707 52.9484 277.54L32.0853 288.766C31.2322 289.225 30.2901 288.324 30.7105 287.451L40.9908 266.106Z" stroke="#FCF5C3" stroke-width="1.87198" stroke-linejoin="round"/>
			<path d="M24.5962 263.885C24.2825 262.155 25.4309 260.481 27.1838 260.353C31.3387 260.048 35.5125 260.613 39.4365 262.013C41.0919 262.603 41.7534 264.523 40.9908 266.106L31.1111 286.619C30.5647 287.754 28.8856 287.527 28.6608 286.287L24.5962 263.885Z" stroke="#FCF5C3" stroke-width="1.87198" stroke-linejoin="round"/>
			<path d="M10.027 271.724C8.75673 270.509 8.70175 268.48 10.0443 267.346C13.2265 264.657 16.9356 262.661 20.9328 261.487C22.6191 260.991 24.2825 262.155 24.5962 263.885L28.7157 286.59C28.9232 287.734 27.5459 288.475 26.7057 287.672L10.027 271.724Z" stroke="#FCF5C3" stroke-width="1.87198" stroke-linejoin="round"/>
			<path d="M2.84665 286.629C1.10499 286.393 -0.132383 284.784 0.286983 283.077C1.28104 279.031 3.10868 275.236 5.65229 271.937C6.72537 270.545 8.75527 270.509 10.0256 271.724L26.7042 287.671C27.5444 288.475 26.8657 289.884 25.7138 289.728L2.84665 286.629Z" stroke="#FCF5C3" stroke-width="1.87198" stroke-linejoin="round"/>
			<path d="M5.80008 302.908C4.25234 303.741 2.3052 303.166 1.64124 301.538C0.0673956 297.681 -0.684499 293.537 -0.566061 289.372C-0.516095 287.615 1.105 286.393 2.84665 286.629L26.3237 289.81C27.2837 289.94 27.5164 291.223 26.6633 291.682L5.80008 302.908Z" stroke="#FCF5C3" stroke-width="1.87198" stroke-linejoin="round"/>
			<path d="M17.7578 314.343C16.9951 315.926 15.082 316.606 13.5883 315.68C10.0477 313.484 7.00347 310.573 4.6515 307.134C3.65927 305.684 4.25234 303.742 5.80008 302.909L26.1212 291.975C27.1449 291.424 28.2754 292.505 27.771 293.553L17.7578 314.343Z" stroke="#FCF5C3" stroke-width="1.87198" stroke-linejoin="round"/>
			<path d="M34.1523 316.564C34.466 318.294 33.3176 319.968 31.5648 320.097C27.4098 320.401 23.236 319.836 19.312 318.436C17.6566 317.846 16.9951 315.926 17.7578 314.343L27.771 293.553C28.2754 292.505 29.8253 292.715 30.0328 293.859L34.1523 316.564Z" stroke="#FCF5C3" stroke-width="1.87198" stroke-linejoin="round"/>
			<path d="M48.7215 308.725C49.9918 309.94 50.0468 311.969 48.7043 313.104C45.522 315.792 41.8129 317.788 37.8157 318.962C36.1294 319.458 34.466 318.294 34.1523 316.564L29.923 293.253C29.75 292.3 30.8978 291.683 31.598 292.352L48.7215 308.725Z" stroke="#FCF5C3" stroke-width="1.87198" stroke-linejoin="round"/>
		</g>
		<path d="M34.0117 290.853C33.6647 293.414 31.307 295.209 28.7458 294.862C26.1845 294.515 24.3895 292.157 24.7366 289.596C25.0119 287.564 26.5525 286.015 28.4563 285.634L28.5938 284.62L29.6026 285.55C29.7352 285.556 29.8686 285.569 30.0026 285.587C30.1629 285.609 30.3203 285.638 30.4743 285.675C32.7802 286.23 34.3371 288.452 34.0117 290.853Z" fill="#FCF5C3"/>
		<circle cx="40.3961" cy="150.064" r="28.5477" transform="rotate(-10.0131 40.3961 150.064)" fill="#FDBE3F" stroke="#FCF5C3" stroke-width="2.80797"/>
		<mask id="mask7_179_7606" style="mask-type:alpha" maskUnits="userSpaceOnUse" x="10" y="120" width="61" height="61">
			<circle cx="40.3961" cy="150.064" r="28.5477" transform="rotate(-10.0131 40.3961 150.064)" fill="#FDBE3F" stroke="#FCF5C3" stroke-width="2.80797"/>
		</mask>
		<g mask="url(#mask7_179_7606)">
			<path d="M66.7571 145.41C68.4879 145.104 70.1566 146.261 70.2769 148.014C70.5622 152.17 69.9769 156.342 68.5589 160.259C67.9607 161.912 66.0382 162.564 64.4583 161.794L43.7153 151.683C42.6704 151.173 42.8877 149.624 44.0325 149.422L66.7571 145.41Z" stroke="#FCF5C3" stroke-width="1.87198" stroke-linejoin="round"/>
			<path d="M58.9866 130.804C60.2072 129.539 62.237 129.494 63.3649 130.842C66.0387 134.037 68.0169 137.755 69.1723 141.758C69.6597 143.447 68.4879 145.104 66.7571 145.41L43.4263 149.529C42.4723 149.698 41.8602 148.547 42.5329 147.85L58.9866 130.804Z" stroke="#FCF5C3" stroke-width="1.87198" stroke-linejoin="round"/>
			<path d="M44.115 123.555C44.3592 121.814 45.9746 120.585 47.6794 121.012C51.7205 122.025 55.5065 123.871 58.794 126.43C60.1808 127.509 60.2072 129.539 58.9866 130.804L42.5329 147.85C41.8602 148.547 40.6885 147.976 40.8231 147.017L44.115 123.555Z" stroke="#FCF5C3" stroke-width="1.87198" stroke-linejoin="round"/>
			<path d="M27.8227 126.429C26.9972 124.878 27.5812 122.933 29.2117 122.277C33.0764 120.722 37.2242 119.989 41.388 120.127C43.1446 120.186 44.3592 121.812 44.115 123.553L40.9514 146.1C40.7764 147.347 39.1078 147.642 38.5163 146.53L27.8227 126.429Z" stroke="#FCF5C3" stroke-width="1.87198" stroke-linejoin="round"/>
			<path d="M16.3327 138.333C14.7529 137.563 14.0825 135.647 15.0158 134.157C17.2281 130.627 20.1532 127.597 23.603 125.261C25.0583 124.276 26.9972 124.878 27.8227 126.429L38.6609 146.802C39.2069 147.828 38.1206 148.954 37.0757 148.444L16.3327 138.333Z" stroke="#FCF5C3" stroke-width="1.87198" stroke-linejoin="round"/>
			<path d="M14.0344 154.716C12.3036 155.022 10.6349 153.866 10.5146 152.112C10.2293 147.956 10.8146 143.785 12.2326 139.868C12.8308 138.215 14.7534 137.563 16.3332 138.333L37.0762 148.444C38.1211 148.953 37.9038 150.502 36.759 150.704L14.0344 154.716Z" stroke="#FCF5C3" stroke-width="1.87198" stroke-linejoin="round"/>
			<path d="M21.8049 169.322C20.5843 170.587 18.5545 170.632 17.4266 169.285C14.7528 166.09 12.7746 162.371 11.6192 158.369C11.1318 156.68 12.3036 155.022 14.0344 154.716L37.3652 150.597C38.3192 150.429 38.9313 151.579 38.2586 152.276L21.8049 169.322Z" stroke="#FCF5C3" stroke-width="1.87198" stroke-linejoin="round"/>
			<path d="M36.6765 176.572C36.4323 178.312 34.8169 179.542 33.1121 179.115C29.071 178.101 25.285 176.256 21.9975 173.697C20.6107 172.617 20.5843 170.587 21.8049 169.322L37.8311 152.719C38.6384 151.883 40.0444 152.568 39.8828 153.719L36.6765 176.572Z" stroke="#FCF5C3" stroke-width="1.87198" stroke-linejoin="round"/>
			<path d="M52.9688 173.697C53.7943 175.249 53.2103 177.193 51.5798 177.849C47.7151 179.405 43.5673 180.137 39.4035 179.999C37.6469 179.941 36.4323 178.314 36.6765 176.574L39.8828 153.721C40.0444 152.57 41.5846 152.298 42.1306 153.324L52.9688 173.697Z" stroke="#FCF5C3" stroke-width="1.87198" stroke-linejoin="round"/>
			<path d="M64.4588 161.793C66.0386 162.563 66.709 164.48 65.7757 165.969C63.5634 169.499 60.6383 172.53 57.1885 174.865C55.7332 175.851 53.7943 175.249 52.9688 173.697L41.8415 152.781C41.3865 151.926 42.2917 150.988 43.1625 151.412L64.4588 161.793Z" stroke="#FCF5C3" stroke-width="1.87198" stroke-linejoin="round"/>
		</g>
		<path d="M45.0051 149.249C45.4545 151.794 43.7555 154.222 41.2102 154.671C38.6649 155.121 36.2372 153.422 35.7878 150.876C35.4313 148.857 36.4268 146.912 38.1243 145.97L37.9464 144.962L39.1905 145.54C39.3188 145.506 39.4496 145.477 39.5827 145.454C39.7421 145.426 39.901 145.406 40.059 145.394C42.4243 145.221 44.5838 146.863 45.0051 149.249Z" fill="#FCF5C3"/>
		<path d="M307.292 281.38L307.287 281.39L307.282 281.399C297.602 301.133 285.696 318.801 271.569 334.415C257.491 349.975 241.007 362.571 222.103 372.208L222.093 372.213L222.083 372.219C203.728 381.763 182.553 386.58 158.484 386.589C142.78 385.838 130.384 384.345 121.227 382.147L121.186 382.137L121.144 382.129C112.336 380.294 103.7 377.356 95.2342 373.307L95.0294 373.209L94.8114 373.145C79.7463 368.736 66.7557 361.776 55.7938 352.286C45.0998 342.322 36.0614 330.884 28.6762 317.96C21.2657 304.991 15.521 291.283 11.4412 276.83C7.71489 261.917 5.29838 247.586 4.18314 233.836C2.32464 209.667 4.36777 185.108 10.3286 160.146C16.2864 135.198 25.7747 112.323 38.787 91.5033L38.7929 91.4939L38.7987 91.4844C51.7969 70.3159 68.1293 52.3143 87.806 37.4639L87.8194 37.4539L87.8326 37.4436C107.424 22.2884 129.787 12.3001 154.965 7.48271C167.925 5.26297 181.074 4.52269 194.414 5.26382C207.704 6.00213 220.621 8.58528 233.172 13.0148C243.591 16.7361 253.247 21.0089 262.146 25.8294C270.969 30.6081 279.447 36.686 287.579 44.0788L287.586 44.0854L287.594 44.0919C298.296 53.6875 307.339 64.7592 314.726 77.317C322.121 89.8887 327.474 102.998 330.796 116.651C334.886 134.128 336.74 151.399 336.369 168.471C336.329 170.342 336.295 172.179 336.261 173.991C335.983 189.038 335.736 202.425 331.914 219.9C327.013 242.317 319.384 257.418 310.542 274.924C309.475 277.036 308.391 279.182 307.292 281.38ZM219.668 298.789L219.67 298.787C228.483 290.358 236.152 281.155 242.674 271.181C249.182 261.227 254.544 250.698 258.757 239.596C259.592 237.509 260.425 235.49 261.248 233.495C264.819 224.843 268.204 216.641 270.743 205.297C274.263 189.574 274.236 177.797 274.206 164.428C274.203 163.186 274.2 161.932 274.2 160.658C274.582 145.174 271.479 130.443 264.896 116.5C259.413 104.753 251.007 94.8008 239.756 86.6434C228.919 78.1379 216.901 72.3211 203.724 69.2149C190.566 65.7373 177.207 64.966 163.67 66.9L163.658 66.9016C150.346 68.8593 138.39 74.1544 127.836 82.7544L127.818 82.7688L127.801 82.7834C113.269 95.0207 101.387 108.811 92.1797 124.157L92.1743 124.166L92.1689 124.176C83.3611 139.111 76.6755 155.741 72.0972 174.048C68.2748 188.578 66.1776 203.854 65.7963 219.869C65.4117 236.025 67.913 251.441 73.312 266.096L73.3223 266.124L73.3333 266.152C77.6056 277.027 83.8178 286.921 91.949 295.827L91.971 295.851L91.9935 295.874C100.497 304.764 109.994 311.748 120.483 316.799C130.975 321.851 142.058 324.767 153.712 325.544L153.76 325.547L153.808 325.548C165.919 325.939 177.816 323.591 189.473 318.54C201.051 313.522 211.126 306.943 219.668 298.789Z" stroke="black" stroke-width="5.61594"/>
	</g>
</svg>
