<svg width="13" height="13" viewBox="0 0 286 390" fill="none" xmlns="http://www.w3.org/2000/svg">
	<path d="M20.6672 50.4738C21.7704 46.4199 23.6092 42.5501 26.1836 38.8647C28.7579 34.8107 31.7 31.3095 35.0098 28.3612C38.6874 25.4128 42.5489 23.3858 46.5943 22.2802C51.0074 20.806 55.4205 20.806 59.8337 22.2802C73.4408 16.752 87.2318 12.1452 101.207 8.45975C115.549 4.77432 129.708 2.74731 143.683 2.37875C158.026 1.64168 172.001 2.93159 185.608 6.24848C199.583 9.19684 213.006 14.9093 225.878 23.3858C236.175 30.0196 245.185 38.3119 252.908 48.2626C260.999 58.2133 267.618 68.7168 272.767 79.7731C281.593 99.6745 285.639 119.576 284.903 139.477C284.168 159.01 279.571 177.253 271.112 194.206C262.654 211.159 250.701 226.085 235.255 238.984C220.177 251.883 202.341 261.281 181.746 267.178C166.3 271.601 150.487 273.812 134.305 273.812C118.491 273.443 102.862 272.338 87.4157 270.495V324.118C87.4157 328.172 87.5996 332.41 87.9674 336.833C88.3351 341.255 88.3351 345.678 87.9674 350.101C87.9674 354.523 87.4157 358.761 86.3124 362.815C85.5769 367.238 83.922 371.292 81.3477 374.977C76.9345 382.348 71.2342 386.771 64.2468 388.245C57.2593 390.088 50.4558 389.719 43.8361 387.139C37.5842 384.928 32.0677 380.874 27.2869 374.977C22.8737 369.449 20.6672 362.631 20.6672 354.523V255.016C13.6797 251.331 8.53107 246.724 5.22122 241.196C1.91138 235.667 0.440333 230.139 0.808094 224.611C1.17585 218.714 3.01466 213.186 6.3245 208.027C9.63435 202.867 14.2314 198.629 20.1155 195.312V53.7907L20.6672 50.4738ZM181.195 74.7978C165.749 68.5325 149.935 66.6898 133.754 69.2696C117.94 71.8494 102.494 76.6405 87.4157 83.6428V204.157C104.7 207.105 122.353 207.842 140.373 206.368C158.394 204.894 174.943 199.366 190.021 189.784C200.686 182.781 208.041 173.936 212.087 163.248C216.132 152.561 217.603 141.689 216.5 130.632C215.396 119.576 211.719 109.072 205.467 99.1217C199.215 88.8025 191.124 80.6945 181.195 74.7978Z" fill="#1D71B8"/>
	<mask id="mask0_179_7607" style="mask-type:alpha" maskUnits="userSpaceOnUse" x="0" y="2" width="285" height="388">
		<path d="M44.7724 384.492C39.0793 382.478 33.9772 378.767 29.4762 373.219C25.5206 368.261 23.4751 362.089 23.4751 354.523V255.016V253.322L21.9771 252.532C15.3418 249.033 10.6222 244.75 7.63039 239.753C4.56489 234.633 3.28594 229.667 3.60989 224.798L3.61062 224.786C3.94747 219.385 5.62621 214.316 8.68798 209.543C11.7259 204.807 15.9679 200.873 21.4944 197.758L22.9235 196.952V195.312V54.0226L23.4133 51.0773C24.4301 47.404 26.1119 43.8708 28.4856 40.4726L28.5209 40.422L28.554 40.3699C30.9861 36.5398 33.7447 33.2582 36.823 30.5065C40.2203 27.7938 43.7232 25.9758 47.3346 24.9888L47.4099 24.9682L47.4839 24.9435C51.3196 23.6622 55.1083 23.6622 58.944 24.9435L59.9287 25.2724L60.8906 24.8816C74.3856 19.399 88.06 14.8312 101.914 11.1772C116.062 7.54254 130.008 5.54835 143.757 5.18574L143.792 5.18482L143.827 5.18302C157.905 4.45956 171.607 5.7258 184.943 8.97657L184.985 8.98693L185.028 8.99597C198.633 11.8662 211.732 17.4323 224.333 25.7309L224.345 25.7387L224.357 25.7463C234.38 32.2033 243.156 40.2772 250.69 49.9842L250.709 50.0093L250.729 50.034C258.676 59.8073 265.166 70.1073 270.21 80.9346C278.873 100.475 282.815 119.945 282.097 139.374C281.376 158.52 276.874 176.369 268.6 192.953C260.324 209.538 248.623 224.163 233.456 236.829L233.443 236.84L233.43 236.851C218.682 249.467 201.212 258.684 180.973 264.479C165.791 268.826 150.248 271.001 134.338 271.004C118.623 270.637 103.093 269.537 87.7483 267.707L84.6077 267.332V270.495V324.118C84.6077 328.257 84.7954 332.573 85.1691 337.066C85.5239 341.333 85.5239 345.6 85.1691 349.868L85.1594 349.984V350.101C85.1594 354.287 84.6375 358.277 83.603 362.078L83.5658 362.215L83.5425 362.355C82.8758 366.364 81.3812 370.026 79.0457 373.369L78.9892 373.45L78.9385 373.535C74.8387 380.382 69.7364 384.217 63.6672 385.497L63.5986 385.512L63.5308 385.53C57.1072 387.224 50.9118 386.883 44.8557 384.523L44.8143 384.507L44.7724 384.492ZM182.628 72.3834L182.446 72.2753L182.25 72.1957C166.339 65.7416 150.007 63.8348 133.311 66.4966L133.301 66.4983C117.226 69.1208 101.535 73.99 86.233 81.0961L84.6077 81.8509V83.6428V204.157V206.526L86.9436 206.925C104.467 209.914 122.355 210.66 140.602 209.167C159.071 207.656 176.059 201.983 191.527 192.154L191.545 192.142L191.562 192.131C202.662 184.843 210.433 175.549 214.713 164.242C218.907 153.161 220.441 141.854 219.294 130.353C218.146 118.848 214.319 107.938 207.857 97.6477C201.379 86.9613 192.966 78.5226 182.628 72.3834Z" fill="#1D71B8" stroke="black" stroke-width="5.61594"/>
	</mask>
	<g mask="url(#mask0_179_7607)">
		<circle cx="45.4333" cy="79.865" r="25.2717" fill="#1D6099"/>
		<circle cx="178.344" cy="34.9363" r="25.2717" fill="#36A9E1"/>
		<circle cx="236.376" cy="119.176" r="25.2717" fill="#E6332A"/>
		<circle cx="238.247" cy="220.263" r="25.2717" fill="#1D6099"/>
		<circle cx="142.777" cy="225.879" r="25.2717" fill="#36A9E1"/>
		<circle cx="71.6418" cy="169.719" r="25.2717" fill="#F9B233"/>
		<circle cx="41.6897" cy="310.117" r="25.2717" fill="#E94E1B"/>
		<path d="M45.4614 384.492C39.7683 382.478 34.6662 378.767 30.1651 373.219C26.2096 368.261 24.1641 362.089 24.1641 354.523V255.016V253.322L22.6661 252.532C16.0308 249.033 11.3112 244.75 8.31936 239.753C5.25386 234.633 3.97491 229.667 4.29886 224.798L4.29958 224.786C4.63644 219.385 6.31518 214.316 9.37694 209.543C12.4149 204.807 16.6569 200.873 22.1834 197.758L23.6125 196.952V195.312V54.0226L24.1023 51.0773C25.1191 47.404 26.8009 43.8708 29.1745 40.4726L29.2099 40.422L29.243 40.3699C31.6751 36.5398 34.4337 33.2582 37.512 30.5065C40.9093 27.7938 44.4122 25.9758 48.0235 24.9888L48.0989 24.9682L48.1729 24.9435C52.0086 23.6622 55.7973 23.6622 59.633 24.9435L60.6177 25.2724L61.5795 24.8816C75.0746 19.399 88.7489 14.8312 102.603 11.1772C116.751 7.54254 130.697 5.54835 144.446 5.18574L144.481 5.18482L144.516 5.18302C158.594 4.45956 172.296 5.7258 185.632 8.97657L185.674 8.98693L185.717 8.99597C199.322 11.8662 212.421 17.4323 225.022 25.7309L225.034 25.7387L225.046 25.7463C235.069 32.2033 243.845 40.2772 251.379 49.9842L251.398 50.0093L251.418 50.034C259.365 59.8073 265.855 70.1073 270.899 80.9346C279.562 100.475 283.504 119.945 282.786 139.374C282.065 158.52 277.563 176.369 269.288 192.953C261.013 209.538 249.312 224.163 234.145 236.829L234.132 236.84L234.119 236.851C219.371 249.467 201.901 258.684 181.662 264.479C166.48 268.826 150.937 271.001 135.027 271.004C119.312 270.637 103.782 269.537 88.4373 267.707L85.2967 267.332V270.495V324.118C85.2967 328.257 85.4844 332.573 85.858 337.066C86.2129 341.333 86.2129 345.6 85.858 349.868L85.8484 349.984V350.101C85.8484 354.287 85.3265 358.277 84.292 362.078L84.2547 362.215L84.2315 362.355C83.5648 366.364 82.0702 370.026 79.7346 373.369L79.6781 373.45L79.6275 373.535C75.5276 380.382 70.4253 384.217 64.3561 385.497L64.2875 385.512L64.2197 385.53C57.7961 387.224 51.6007 386.883 45.5447 384.523L45.5033 384.507L45.4614 384.492ZM183.317 72.3834L183.135 72.2753L182.939 72.1957C167.027 65.7416 150.696 63.8348 134 66.4966L133.99 66.4983C117.915 69.1208 102.224 73.99 86.922 81.0961L85.2967 81.8509V83.6428V204.157V206.526L87.6325 206.925C105.156 209.914 123.044 210.66 141.291 209.167C159.76 207.656 176.748 201.983 192.216 192.154L192.234 192.142L192.251 192.131C203.351 184.843 211.122 175.549 215.402 164.242C219.596 153.161 221.13 141.854 219.983 130.353C218.835 118.848 215.007 107.938 208.546 97.6477C202.068 86.9613 193.655 78.5226 183.317 72.3834Z" stroke="#1D6099" stroke-width="5.61594"/>
	</g>
</svg>
