<svg width="13" height="13" viewBox="0 0 293 390" fill="none" xmlns="http://www.w3.org/2000/svg">
	<path d="M86.9905 353.351C85.8809 362.593 81.9972 370.172 75.3396 376.087C68.6819 382.003 61.4694 385.7 53.7021 387.178C45.9348 389.027 38.7223 388.288 32.0646 384.96C25.7768 381.633 22.448 374.978 22.0781 364.996C20.2287 322.481 19.304 278.487 19.304 233.014C19.304 187.171 19.304 141.698 19.304 96.5948C13.3861 94.3766 8.94765 91.0493 5.98868 86.6129C3.02971 82.1766 1.18036 77.3705 0.440612 72.1947C0.0707408 66.6492 0.810484 61.1037 2.65984 55.5582C4.5092 50.0127 7.28323 45.2066 10.9819 41.1399C15.0505 36.7035 20.5986 32.6368 27.6262 28.9399C34.6537 25.2429 42.2361 21.9156 50.3732 18.958C58.8803 15.6307 67.2024 12.8579 75.3396 10.6397C83.4767 8.42154 90.3193 6.7579 95.8674 5.64881C119.169 0.842711 142.656 1.02756 166.328 6.20334C190 11.0094 210.712 19.8822 228.466 32.8217C246.59 45.7612 260.09 62.5825 268.967 83.2857C277.844 103.989 278.769 127.65 271.741 154.268C269.522 161.662 266.748 169.056 263.419 176.45C260.09 183.844 256.207 190.683 251.768 196.968C245.48 206.58 238.083 215.083 229.576 222.477C221.069 229.871 211.822 236.711 201.836 242.996C208.863 250.39 215.521 258.153 221.809 266.287C228.096 274.42 235.124 281.814 242.891 288.469C245.85 291.057 250.104 295.123 255.652 300.669C261.57 306.214 267.118 312.13 272.296 318.414C277.844 324.699 282.652 330.984 286.721 337.269C290.79 343.184 292.639 348.175 292.269 352.242C291.899 359.266 289.865 365.551 286.166 371.097C282.837 377.012 278.584 381.448 273.406 384.406C268.597 387.733 263.234 389.397 257.316 389.397C251.398 389.397 245.48 387.363 239.562 383.297C232.905 378.121 226.617 372.021 220.699 364.996C214.781 357.972 209.048 351.502 203.5 345.587C191.294 332.278 179.273 318.969 167.438 305.66C155.971 291.981 144.136 278.672 131.93 265.732C124.532 267.211 116.95 268.32 109.183 269.06C101.785 269.429 94.3879 269.984 86.9905 270.723V349.469V353.351ZM186.301 84.9493C171.506 76.0765 155.232 71.0856 137.478 69.9765C120.094 68.8674 103.265 71.2704 86.9905 77.1856V202.514C103.635 201.405 119.909 199.371 135.814 196.414C152.088 193.086 167.068 186.062 180.753 175.341C188.15 169.426 194.068 162.586 198.507 154.822C203.315 146.689 206.089 138.556 206.829 130.422C207.938 121.919 206.829 113.786 203.5 106.022C200.541 97.8888 194.808 90.8645 186.301 84.9493Z" fill="#D80702"/>
	<mask id="mask0_179_7609" style="mask-type:alpha" maskUnits="userSpaceOnUse" x="0" y="2" width="293" height="388">
		<path d="M53.1769 384.42L53.1141 384.432L53.052 384.447C45.8876 386.152 39.3651 385.461 33.35 382.464C28.3035 379.779 25.233 374.307 24.8841 364.893L24.8838 364.883L24.8834 364.874C23.0359 322.402 22.112 278.449 22.112 233.014V232.745V232.477V232.208V231.939V231.671V231.402V231.134V230.865V230.597V230.328V230.06V229.791V229.523V229.254V228.986V228.717V228.449V228.18V227.912V227.643V227.375V227.107V226.838V226.57V226.301V226.033V225.764V225.496V225.228V224.959V224.691V224.423V224.154V223.886V223.618V223.349V223.081V222.813V222.545V222.276V222.008V221.74V221.471V221.203V220.935V220.667V220.399V220.13V219.862V219.594V219.326V219.058V218.789V218.521V218.253V217.985V217.717V217.449V217.181V216.913V216.644V216.376V216.108V215.84V215.572V215.304V215.036V214.768V214.5V214.232V213.964V213.696V213.428V213.16V212.892V212.624V212.356V212.088V211.82V211.552V211.284V211.016V210.748V210.481V210.213V209.945V209.677V209.409V209.141V208.873V208.605V208.338V208.07V207.802V207.534V207.266V206.999V206.731V206.463V206.195V205.927V205.66V205.392V205.124V204.857V204.589V204.321V204.053V203.786V203.518V203.25V202.983V202.715V202.447V202.18V201.912V201.644V201.377V201.109V200.842V200.574V200.306V200.039V199.771V199.504V199.236V198.969V198.701V198.434V198.166V197.899V197.631V197.364V197.096V196.829V196.561V196.294V196.026V195.759V195.491V195.224V194.957V194.689V194.422V194.154V193.887V193.62V193.352V193.085V192.818V192.55V192.283V192.016V191.748V191.481V191.214V190.946V190.679V190.412V190.145V189.877V189.61V189.343V189.076V188.808V188.541V188.274V188.007V187.74V187.473V187.205V186.938V186.671V186.404V186.137V185.87V185.603V185.335V185.068V184.801V184.534V184.267V184V183.733V183.466V183.199V182.932V182.665V182.398V182.131V181.864V181.597V181.33V181.063V180.796V180.529V180.262V179.995V179.728V179.461V179.194V178.927V178.66V178.394V178.127V177.86V177.593V177.326V177.059V176.792V176.526V176.259V175.992V175.725V175.458V175.192V174.925V174.658V174.391V174.125V173.858V173.591V173.324V173.058V172.791V172.524V172.257V171.991V171.724V171.457V171.191V170.924V170.658V170.391V170.124V169.858V169.591V169.324V169.058V168.791V168.525V168.258V167.992V167.725V167.458V167.192V166.925V166.659V166.392V166.126V165.859V165.593V165.326V165.06V164.794V164.527V164.261V163.994V163.728V163.461V163.195V162.929V162.662V162.396V162.129V161.863V161.597V161.33V161.064V160.798V160.531V160.265V159.999V159.732V159.466V159.2V158.934V158.667V158.401V158.135V157.869V157.602V157.336V157.07V156.804V156.538V156.271V156.005V155.739V155.473V155.207V154.941V154.674V154.408V154.142V153.876V153.61V153.344V153.078V152.812V152.546V152.28V152.014V151.748V151.482V151.215V150.949V150.683V150.417V150.151V149.885V149.62V149.354V149.088V148.822V148.556V148.29V148.024V147.758V147.492V147.226V146.96V146.694V146.428V146.163V145.897V145.631V145.365V145.099V144.833V144.568V144.302V144.036V143.77V143.504V143.239V142.973V142.707V142.441V142.176V141.91V141.644V141.379V141.113V140.847V140.581V140.316V140.05V139.784V139.519V139.253V138.988V138.722V138.456V138.191V137.925V137.659V137.394V137.128V136.863V136.597V136.332V136.066V135.801V135.535V135.27V135.004V134.738V134.473V134.208V133.942V133.677V133.411V133.146V132.88V132.615V132.349V132.084V131.819V131.553V131.288V131.022V130.757V130.492V130.226V129.961V129.696V129.43V129.165V128.9V128.634V128.369V128.104V127.838V127.573V127.308V127.043V126.777V126.512V126.247V125.982V125.717V125.451V125.186V124.921V124.656V124.391V124.125V123.86V123.595V123.33V123.065V122.8V122.535V122.27V122.004V121.739V121.474V121.209V120.944V120.679V120.414V120.149V119.884V119.619V119.354V119.089V118.824V118.559V118.294V118.029V117.764V117.499V117.234V116.969V116.704V116.439V116.175V115.91V115.645V115.38V115.115V114.85V114.585V114.32V114.056V113.791V113.526V113.261V112.996V112.731V112.467V112.202V111.937V111.672V111.408V111.143V110.878V110.613V110.349V110.084V109.819V109.555V109.29V109.025V108.761V108.496V108.231V107.967V107.702V107.437V107.173V106.908V106.643V106.379V106.114V105.85V105.585V105.321V105.056V104.792V104.527V104.262V103.998V103.733V103.469V103.204V102.94V102.675V102.411V102.147V101.882V101.618V101.353V101.089V100.824V100.56V100.296V100.031V99.7668V99.5024V99.238V98.9737V98.7093V98.445V98.1807V97.9163V97.652V97.3877V97.1234V96.8591V96.5948V94.6486L20.2896 93.9655C14.8181 91.9146 10.8999 88.9158 8.32472 85.0549C5.61371 80.9902 3.92441 76.6141 3.23543 71.9018C2.90744 66.774 3.59547 61.6285 5.32359 56.4465C7.05655 51.2501 9.63793 46.7923 13.0551 43.0338C16.8478 38.8994 22.1081 35.0156 28.9335 31.4249L27.6262 28.9399L28.9335 31.4249C35.8391 27.7921 43.3041 24.5151 51.3324 21.597L51.3644 21.5854L51.396 21.573C59.8176 18.2792 68.0448 15.5387 76.0781 13.3489C84.18 11.1403 90.9554 9.49427 96.4178 8.4023L96.4262 8.40062L96.4346 8.39889C119.344 3.67373 142.433 3.85313 165.728 8.94651L165.749 8.95099L165.769 8.95517C189.085 13.689 209.416 22.4119 226.812 35.0909L226.823 35.099L226.835 35.107C244.535 47.7442 257.71 64.1557 266.386 84.3922C274.96 104.389 275.929 127.373 269.038 153.505C266.858 160.761 264.133 168.025 260.859 175.297C257.6 182.536 253.804 189.218 249.474 195.348L249.446 195.389L249.418 195.431C243.269 204.831 236.042 213.137 227.734 220.358C219.34 227.653 210.21 234.407 200.34 240.619L197.438 242.445L199.8 244.93C206.762 252.255 213.357 259.946 219.587 268.004C225.988 276.284 233.144 283.814 241.052 290.591C243.938 293.115 248.135 297.125 253.667 302.655L253.699 302.687L253.732 302.718C259.561 308.181 265.027 314.008 270.129 320.2L270.159 320.237L270.191 320.273C275.658 326.465 280.379 332.64 284.364 338.795L284.385 338.828L284.407 338.86C288.358 344.604 289.752 348.911 289.473 351.987L289.468 352.041L289.465 352.094C289.12 358.644 287.233 364.436 283.83 369.538L283.771 369.627L283.719 369.719C280.604 375.254 276.692 379.295 272.013 381.967L271.908 382.028L271.808 382.097C267.475 385.095 262.671 386.589 257.316 386.589C252.099 386.589 246.747 384.812 241.22 381.029C234.755 375.995 228.629 370.051 222.846 363.187C216.904 356.134 211.142 349.631 205.559 343.678C193.376 330.393 181.377 317.109 169.563 303.825C158.07 290.115 146.207 276.775 133.972 263.805L132.905 262.674L131.379 262.979C124.099 264.434 116.633 265.528 108.98 266.258C101.557 266.63 94.1338 267.187 86.7112 267.929L84.1825 268.182V270.723V349.469V353.18C83.125 361.7 79.5556 368.585 73.4745 373.988C67.1468 379.61 60.3856 383.048 53.1769 384.42ZM187.904 82.6439L187.826 82.5899L187.745 82.5412C172.553 73.4299 155.841 68.3102 137.653 67.174C119.886 66.0409 102.671 68.4986 86.0313 74.5465L84.1825 75.2185V77.1856V202.514V205.515L87.1772 205.315C103.928 204.199 120.311 202.153 136.327 199.174L136.351 199.17L136.376 199.165C153.097 195.746 168.473 188.528 182.485 177.551L182.496 177.543L182.507 177.534C190.158 171.415 196.311 164.315 200.934 156.234C205.905 147.822 208.83 139.315 209.62 130.731C210.779 121.782 209.611 113.183 206.111 104.988C202.91 96.2416 196.766 88.8057 187.904 82.6439Z" fill="#D80702" stroke="black" stroke-width="5.61594"/>
	</mask>
	<g mask="url(#mask0_179_7609)">
		<path d="M71.8379 37.3687C72.7061 41.102 77.7576 54.8425 83.3547 54.8425C89.8243 54.8425 90.8837 46.1553 92.4888 41.34" stroke="#E8B128" stroke-width="7.48792" stroke-linecap="round"/>
		<path d="M179.065 32.6035C179.065 37.3378 176.725 50.6404 183.213 52.6366C190.284 54.8124 191.88 48.8397 194.95 43.7232" stroke="#E8B128" stroke-width="7.48792" stroke-linecap="round"/>
		<path d="M232.28 102.499C234.204 107.95 237.867 112.645 239.384 118.207C240.13 120.944 241.777 121.22 243.576 119.355C247.036 115.766 248.248 110.986 249.754 106.47" stroke="#E8B128" stroke-width="7.48792" stroke-linecap="round"/>
		<path d="M43.2446 137.446C45.0465 142.852 46.2193 150.949 52.7758 150.949C56.3743 150.949 57.5935 144.491 59.1299 141.418" stroke="#E8B128" stroke-width="7.48792" stroke-linecap="round"/>
		<path d="M166.356 213.696C166.984 215.505 169.965 224.549 172.887 222.433C177.972 218.751 180.49 213.146 183.83 208.136" stroke="#E8B128" stroke-width="7.48792" stroke-linecap="round"/>
		<path d="M40.8625 301.46C41.3144 305.188 41.4445 312.728 45.0104 315.58C46.9081 317.098 52.3149 307.61 52.7765 306.226" stroke="#E8B128" stroke-width="7.48792" stroke-linecap="round"/>
		<path d="M231.486 319.333C233.015 323.11 235.474 331.237 239.87 332.835C244.404 334.484 247.015 322.785 248.166 319.333" stroke="#E8B128" stroke-width="7.48792" stroke-linecap="round"/>
		<path d="M75.0151 232.758C75.0151 242.605 77.7171 245.535 81.4606 247.407C83.6979 248.526 89.8849 236.175 90.9004 234.347" stroke="#E8B128" stroke-width="7.48792" stroke-linecap="round"/>
		<path d="M53.1769 384.42L53.1141 384.432L53.052 384.447C45.8876 386.152 39.3651 385.461 33.35 382.464C28.3035 379.779 25.233 374.307 24.8841 364.893L24.8838 364.883L24.8834 364.874C23.0359 322.402 22.112 278.449 22.112 233.014V232.745V232.477V232.208V231.939V231.671V231.402V231.134V230.865V230.597V230.328V230.06V229.791V229.523V229.254V228.986V228.717V228.449V228.18V227.912V227.643V227.375V227.107V226.838V226.57V226.301V226.033V225.764V225.496V225.228V224.959V224.691V224.423V224.154V223.886V223.618V223.349V223.081V222.813V222.545V222.276V222.008V221.74V221.471V221.203V220.935V220.667V220.399V220.13V219.862V219.594V219.326V219.058V218.789V218.521V218.253V217.985V217.717V217.449V217.181V216.913V216.644V216.376V216.108V215.84V215.572V215.304V215.036V214.768V214.5V214.232V213.964V213.696V213.428V213.16V212.892V212.624V212.356V212.088V211.82V211.552V211.284V211.016V210.748V210.481V210.213V209.945V209.677V209.409V209.141V208.873V208.605V208.338V208.07V207.802V207.534V207.266V206.999V206.731V206.463V206.195V205.927V205.66V205.392V205.124V204.857V204.589V204.321V204.053V203.786V203.518V203.25V202.983V202.715V202.447V202.18V201.912V201.644V201.377V201.109V200.842V200.574V200.306V200.039V199.771V199.504V199.236V198.969V198.701V198.434V198.166V197.899V197.631V197.364V197.096V196.829V196.561V196.294V196.026V195.759V195.491V195.224V194.957V194.689V194.422V194.154V193.887V193.62V193.352V193.085V192.818V192.55V192.283V192.016V191.748V191.481V191.214V190.946V190.679V190.412V190.145V189.877V189.61V189.343V189.076V188.808V188.541V188.274V188.007V187.74V187.473V187.205V186.938V186.671V186.404V186.137V185.87V185.603V185.335V185.068V184.801V184.534V184.267V184V183.733V183.466V183.199V182.932V182.665V182.398V182.131V181.864V181.597V181.33V181.063V180.796V180.529V180.262V179.995V179.728V179.461V179.194V178.927V178.66V178.394V178.127V177.86V177.593V177.326V177.059V176.792V176.526V176.259V175.992V175.725V175.458V175.192V174.925V174.658V174.391V174.125V173.858V173.591V173.324V173.058V172.791V172.524V172.257V171.991V171.724V171.457V171.191V170.924V170.658V170.391V170.124V169.858V169.591V169.324V169.058V168.791V168.525V168.258V167.992V167.725V167.458V167.192V166.925V166.659V166.392V166.126V165.859V165.593V165.326V165.06V164.794V164.527V164.261V163.994V163.728V163.461V163.195V162.929V162.662V162.396V162.129V161.863V161.597V161.33V161.064V160.798V160.531V160.265V159.999V159.732V159.466V159.2V158.934V158.667V158.401V158.135V157.869V157.602V157.336V157.07V156.804V156.538V156.271V156.005V155.739V155.473V155.207V154.941V154.674V154.408V154.142V153.876V153.61V153.344V153.078V152.812V152.546V152.28V152.014V151.748V151.482V151.215V150.949V150.683V150.417V150.151V149.885V149.62V149.354V149.088V148.822V148.556V148.29V148.024V147.758V147.492V147.226V146.96V146.694V146.428V146.163V145.897V145.631V145.365V145.099V144.833V144.568V144.302V144.036V143.77V143.504V143.239V142.973V142.707V142.441V142.176V141.91V141.644V141.379V141.113V140.847V140.581V140.316V140.05V139.784V139.519V139.253V138.988V138.722V138.456V138.191V137.925V137.659V137.394V137.128V136.863V136.597V136.332V136.066V135.801V135.535V135.27V135.004V134.738V134.473V134.208V133.942V133.677V133.411V133.146V132.88V132.615V132.349V132.084V131.819V131.553V131.288V131.022V130.757V130.492V130.226V129.961V129.696V129.43V129.165V128.9V128.634V128.369V128.104V127.838V127.573V127.308V127.043V126.777V126.512V126.247V125.982V125.717V125.451V125.186V124.921V124.656V124.391V124.125V123.86V123.595V123.33V123.065V122.8V122.535V122.27V122.004V121.739V121.474V121.209V120.944V120.679V120.414V120.149V119.884V119.619V119.354V119.089V118.824V118.559V118.294V118.029V117.764V117.499V117.234V116.969V116.704V116.439V116.175V115.91V115.645V115.38V115.115V114.85V114.585V114.32V114.056V113.791V113.526V113.261V112.996V112.731V112.467V112.202V111.937V111.672V111.408V111.143V110.878V110.613V110.349V110.084V109.819V109.555V109.29V109.025V108.761V108.496V108.231V107.967V107.702V107.437V107.173V106.908V106.643V106.379V106.114V105.85V105.585V105.321V105.056V104.792V104.527V104.262V103.998V103.733V103.469V103.204V102.94V102.675V102.411V102.147V101.882V101.618V101.353V101.089V100.824V100.56V100.296V100.031V99.7668V99.5024V99.238V98.9737V98.7093V98.445V98.1807V97.9163V97.652V97.3877V97.1234V96.8591V96.5948V94.6486L20.2896 93.9655C14.8181 91.9146 10.8999 88.9158 8.32472 85.0549C5.61371 80.9902 3.92441 76.6141 3.23543 71.9018C2.90744 66.774 3.59547 61.6285 5.32359 56.4465C7.05655 51.2501 9.63793 46.7923 13.0551 43.0338C16.8478 38.8994 22.1081 35.0156 28.9335 31.4249L27.6262 28.9399L28.9335 31.4249C35.8391 27.7921 43.3041 24.5151 51.3324 21.597L51.3644 21.5854L51.396 21.573C59.8176 18.2792 68.0448 15.5387 76.0781 13.3489C84.18 11.1403 90.9554 9.49427 96.4178 8.4023L96.4262 8.40062L96.4346 8.39889C119.344 3.67373 142.433 3.85313 165.728 8.94651L165.749 8.95099L165.769 8.95517C189.085 13.689 209.416 22.4119 226.812 35.0909L226.823 35.099L226.835 35.107C244.535 47.7442 257.71 64.1557 266.386 84.3922C274.96 104.389 275.929 127.373 269.038 153.505C266.858 160.761 264.133 168.025 260.859 175.297C257.6 182.536 253.804 189.218 249.474 195.348L249.446 195.389L249.418 195.431C243.269 204.831 236.042 213.137 227.734 220.358C219.34 227.653 210.21 234.407 200.34 240.619L197.438 242.445L199.8 244.93C206.762 252.255 213.357 259.946 219.587 268.004C225.988 276.284 233.144 283.814 241.052 290.591C243.938 293.115 248.135 297.125 253.667 302.655L253.699 302.687L253.732 302.718C259.561 308.181 265.027 314.008 270.129 320.2L270.159 320.237L270.191 320.273C275.658 326.465 280.379 332.64 284.364 338.795L284.385 338.828L284.407 338.86C288.358 344.604 289.752 348.911 289.473 351.987L289.468 352.041L289.465 352.094C289.12 358.644 287.233 364.436 283.83 369.538L283.771 369.627L283.719 369.719C280.604 375.254 276.692 379.295 272.013 381.967L271.908 382.028L271.808 382.097C267.475 385.095 262.671 386.589 257.316 386.589C252.099 386.589 246.747 384.812 241.22 381.029C234.755 375.995 228.629 370.051 222.846 363.187C216.904 356.134 211.142 349.631 205.559 343.678C193.376 330.393 181.377 317.109 169.563 303.825C158.07 290.115 146.207 276.775 133.972 263.805L132.905 262.674L131.379 262.979C124.099 264.434 116.633 265.528 108.98 266.258C101.557 266.63 94.1338 267.187 86.7112 267.929L84.1825 268.182V270.723V349.469V353.18C83.125 361.7 79.5556 368.585 73.4745 373.988C67.1468 379.61 60.3856 383.048 53.1769 384.42ZM187.904 82.6439L187.826 82.5899L187.745 82.5412C172.553 73.4299 155.841 68.3102 137.653 67.174C119.886 66.0409 102.671 68.4986 86.0313 74.5465L84.1825 75.2185V77.1856V202.514V205.515L87.1772 205.315C103.928 204.199 120.311 202.153 136.327 199.174L136.351 199.17L136.376 199.165C153.097 195.746 168.473 188.528 182.485 177.551L182.496 177.543L182.507 177.534C190.158 171.415 196.311 164.315 200.934 156.234C205.905 147.822 208.83 139.315 209.62 130.731C210.779 121.782 209.611 113.183 206.111 104.988C202.91 96.2416 196.766 88.8057 187.904 82.6439Z" stroke="black" stroke-width="5.61594"/>
	</g>
</svg>
