<svg width="13" height="13" viewBox="0 0 309 390" fill="none" xmlns="http://www.w3.org/2000/svg">
	<path d="M281.2 3.69595C288.679 6.84485 294.78 11.9618 299.503 19.0468C304.62 25.7382 307.572 32.8233 308.36 40.3019C309.54 47.3869 308.163 53.8815 304.227 59.7857C300.684 65.6899 294.19 69.626 284.743 71.5941C266.637 74.743 249.515 76.1206 233.376 75.727C217.632 75.3334 203.856 75.1366 192.047 75.1366C192.047 122.37 192.244 168.816 192.638 214.475C193.031 260.134 192.834 308.352 192.047 359.128C192.047 370.149 188.308 378.021 180.829 382.745C173.351 387.862 165.085 390.026 156.032 389.239C147.372 388.452 139.303 384.909 131.825 378.612C124.346 372.314 120.607 363.654 120.607 352.633C120.213 306.187 120.016 259.938 120.016 213.885C120.016 167.832 120.016 121.583 120.016 75.1366C116.474 75.1366 110.373 75.3334 101.713 75.727C93.4473 76.1206 84.1974 76.3174 73.9635 76.3174C64.1232 75.9238 53.8893 75.1366 43.2618 73.9558C32.6342 72.3813 23.3843 69.626 15.5121 65.6899C9.21431 62.541 5.08138 58.0144 3.11332 52.1102C1.14526 45.8125 0.94845 39.5147 2.5229 33.2169C4.49096 26.9191 7.83667 21.0149 12.56 15.5043C17.2834 9.99375 23.1875 6.25442 30.2726 4.28636C63.336 2.31831 95.2186 1.7279 125.92 2.51511C157.016 2.90873 188.505 3.10555 220.387 3.10555C229.834 3.10555 239.281 3.10555 248.727 3.10555C258.174 2.71192 267.818 2.51511 277.658 2.51511L281.2 3.69595Z" fill="#D38240"/>
	<mask id="mask0_179_7611" style="mask-type:alpha" maskUnits="userSpaceOnUse" x="1" y="2" width="308" height="388">
		<path d="M179.244 380.427C172.304 385.175 164.686 387.172 156.28 386.442C148.265 385.712 140.727 382.438 133.633 376.464C126.873 370.771 123.415 362.944 123.415 352.633V352.621L123.414 352.609C123.021 306.171 122.824 259.93 122.824 213.885V213.615V213.345V213.075V212.806V212.536V212.266V211.996V211.726V211.456V211.186V210.916V210.647V210.377V210.107V209.837V209.567V209.297V209.027V208.757V208.487V208.217V207.947V207.677V207.407V207.138V206.868V206.598V206.328V206.058V205.788V205.518V205.248V204.978V204.708V204.438V204.168V203.898V203.628V203.358V203.088V202.818V202.548V202.278V202.008V201.738V201.468V201.197V200.927V200.657V200.387V200.117V199.847V199.577V199.307V199.037V198.767V198.497V198.227V197.957V197.686V197.416V197.146V196.876V196.606V196.336V196.066V195.796V195.525V195.255V194.985V194.715V194.445V194.175V193.904V193.634V193.364V193.094V192.824V192.554V192.283V192.013V191.743V191.473V191.202V190.932V190.662V190.392V190.122V189.851V189.581V189.311V189.041V188.77V188.5V188.23V187.96V187.689V187.419V187.149V186.878V186.608V186.338V186.068V185.797V185.527V185.257V184.986V184.716V184.446V184.175V183.905V183.635V183.364V183.094V182.824V182.553V182.283V182.012V181.742V181.472V181.201V180.931V180.661V180.39V180.12V179.849V179.579V179.309V179.038V178.768V178.497V178.227V177.956V177.686V177.416V177.145V176.875V176.604V176.334V176.063V175.793V175.522V175.252V174.981V174.711V174.44V174.17V173.899V173.629V173.358V173.088V172.817V172.547V172.276V172.006V171.735V171.465V171.194V170.923V170.653V170.382V170.112V169.841V169.571V169.3V169.029V168.759V168.488V168.218V167.947V167.676V167.406V167.135V166.865V166.594V166.323V166.053V165.782V165.511V165.241V164.97V164.699V164.429V164.158V163.887V163.617V163.346V163.075V162.805V162.534V162.263V161.993V161.722V161.451V161.181V160.91V160.639V160.368V160.098V159.827V159.556V159.285V159.015V158.744V158.473V158.202V157.932V157.661V157.39V157.119V156.848V156.578V156.307V156.036V155.765V155.494V155.224V154.953V154.682V154.411V154.14V153.87V153.599V153.328V153.057V152.786V152.515V152.244V151.974V151.703V151.432V151.161V150.89V150.619V150.348V150.077V149.806V149.535V149.265V148.994V148.723V148.452V148.181V147.91V147.639V147.368V147.097V146.826V146.555V146.284V146.013V145.742V145.471V145.2V144.929V144.658V144.387V144.116V143.845V143.574V143.303V143.032V142.761V142.49V142.219V141.948V141.677V141.406V141.135V140.864V140.593V140.322V140.051V139.78V139.509V139.238V138.967V138.695V138.424V138.153V137.882V137.611V137.34V137.069V136.798V136.527V136.255V135.984V135.713V135.442V135.171V134.9V134.629V134.357V134.086V133.815V133.544V133.273V133.001V132.73V132.459V132.188V131.917V131.646V131.374V131.103V130.832V130.561V130.289V130.018V129.747V129.476V129.204V128.933V128.662V128.391V128.119V127.848V127.577V127.306V127.034V126.763V126.492V126.22V125.949V125.678V125.407V125.135V124.864V124.593V124.321V124.05V123.779V123.507V123.236V122.965V122.693V122.422V122.15V121.879V121.608V121.336V121.065V120.794V120.522V120.251V119.979V119.708V119.437V119.165V118.894V118.622V118.351V118.079V117.808V117.537V117.265V116.994V116.722V116.451V116.179V115.908V115.636V115.365V115.093V114.822V114.55V114.279V114.007V113.736V113.464V113.193V112.921V112.65V112.378V112.107V111.835V111.564V111.292V111.021V110.749V110.478V110.206V109.934V109.663V109.391V109.12V108.848V108.576V108.305V108.033V107.762V107.49V107.218V106.947V106.675V106.404V106.132V105.86V105.589V105.317V105.045V104.774V104.502V104.23V103.959V103.687V103.415V103.144V102.872V102.6V102.329V102.057V101.785V101.514V101.242V100.97V100.698V100.427V100.155V99.8832V99.6115V99.3397V99.068V98.7962V98.5245V98.2527V97.9809V97.7092V97.4374V97.1656V96.8938V96.6221V96.3503V96.0785V95.8067V95.5349V95.263V94.9912V94.7194V94.4476V94.1758V93.9039V93.6321V93.3603V93.0884V92.8166V92.5447V92.2728V92.001V91.7291V91.4572V91.1853V90.9135V90.6416V90.3697V90.0978V89.8259V89.554V89.2821V89.0102V88.7383V88.4663V88.1944V87.9225V87.6505V87.3786V87.1066V86.8347V86.5627V86.2908V86.0188V85.7468V85.4749V85.2029V84.9309V84.6589V84.3869V84.1149V83.8429V83.5709V83.2989V83.0269V82.7549V82.4829V82.2108V81.9388V81.6668V81.3947V81.1227V80.8506V80.5786V80.3065V80.0345V79.7624V79.4903V79.2183V78.9462V78.6741V78.402V78.1299V77.8578V77.5857V77.3136V77.0415V76.7694V76.4972V76.2251V75.953V75.6809V75.4087V75.1366V72.3286H120.016C116.403 72.3286 110.244 72.5284 101.586 72.9219L101.58 72.9222C93.3823 73.3126 84.1967 73.5087 74.0197 73.5095C64.2837 73.1186 54.1517 72.3394 43.6229 71.1706C33.2481 69.6292 24.3112 66.95 16.7679 63.1784C11.0501 60.3195 7.4896 56.3378 5.78547 51.2471C3.98435 45.4683 3.80362 39.7303 5.22748 33.9765C7.07427 28.1062 10.2115 22.5589 14.692 17.3317C18.9849 12.3233 24.3131 8.91196 30.7422 7.07138C63.6241 5.1221 95.3258 4.53954 125.848 5.32215L125.867 5.32262L125.885 5.32285C156.992 5.71663 188.493 5.91352 220.387 5.91352H220.443H220.498H220.553H220.609H220.664H220.719H220.775H220.83H220.885H220.941H220.996H221.051H221.107H221.162H221.218H221.273H221.328H221.384H221.439H221.494H221.55H221.605H221.66H221.716H221.771H221.826H221.882H221.937H221.992H222.048H222.103H222.159H222.214H222.269H222.325H222.38H222.435H222.491H222.546H222.601H222.657H222.712H222.767H222.823H222.878H222.933H222.989H223.044H223.1H223.155H223.21H223.266H223.321H223.376H223.432H223.487H223.542H223.598H223.653H223.708H223.764H223.819H223.874H223.93H223.985H224.04H224.096H224.151H224.207H224.262H224.317H224.373H224.428H224.483H224.539H224.594H224.649H224.705H224.76H224.815H224.871H224.926H224.981H225.037H225.092H225.148H225.203H225.258H225.314H225.369H225.424H225.48H225.535H225.59H225.646H225.701H225.756H225.812H225.867H225.922H225.978H226.033H226.089H226.144H226.199H226.255H226.31H226.365H226.421H226.476H226.531H226.587H226.642H226.697H226.753H226.808H226.863H226.919H226.974H227.029H227.085H227.14H227.196H227.251H227.306H227.362H227.417H227.472H227.528H227.583H227.638H227.694H227.749H227.804H227.86H227.915H227.97H228.026H228.081H228.137H228.192H228.247H228.303H228.358H228.413H228.469H228.524H228.579H228.635H228.69H228.745H228.801H228.856H228.911H228.967H229.022H229.077H229.133H229.188H229.244H229.299H229.354H229.41H229.465H229.52H229.576H229.631H229.686H229.742H229.797H229.852H229.908H229.963H230.018H230.074H230.129H230.185H230.24H230.295H230.351H230.406H230.461H230.517H230.572H230.627H230.683H230.738H230.793H230.849H230.904H230.959H231.015H231.07H231.126H231.181H231.236H231.292H231.347H231.402H231.458H231.513H231.568H231.624H231.679H231.734H231.79H231.845H231.9H231.956H232.011H232.066H232.122H232.177H232.233H232.288H232.343H232.399H232.454H232.509H232.565H232.62H232.675H232.731H232.786H232.841H232.897H232.952H233.007H233.063H233.118H233.174H233.229H233.284H233.34H233.395H233.45H233.506H233.561H233.616H233.672H233.727H233.782H233.838H233.893H233.948H234.004H234.059H234.115H234.17H234.225H234.281H234.336H234.391H234.447H234.502H234.557H234.613H234.668H234.723H234.779H234.834H234.889H234.945H235H235.055H235.111H235.166H235.222H235.277H235.332H235.388H235.443H235.498H235.554H235.609H235.664H235.72H235.775H235.83H235.886H235.941H235.996H236.052H236.107H236.163H236.218H236.273H236.329H236.384H236.439H236.495H236.55H236.605H236.661H236.716H236.771H236.827H236.882H236.937H236.993H237.048H237.103H237.159H237.214H237.27H237.325H237.38H237.436H237.491H237.546H237.602H237.657H237.712H237.768H237.823H237.878H237.934H237.989H238.044H238.1H238.155H238.211H238.266H238.321H238.377H238.432H238.487H238.543H238.598H238.653H238.709H238.764H238.819H238.875H238.93H238.985H239.041H239.096H239.152H239.207H239.262H239.318H239.373H239.428H239.484H239.539H239.594H239.65H239.705H239.76H239.816H239.871H239.926H239.982H240.037H240.092H240.148H240.203H240.259H240.314H240.369H240.425H240.48H240.535H240.591H240.646H240.701H240.757H240.812H240.867H240.923H240.978H241.033H241.089H241.144H241.2H241.255H241.31H241.366H241.421H241.476H241.532H241.587H241.642H241.698H241.753H241.808H241.864H241.919H241.974H242.03H242.085H242.14H242.196H242.251H242.307H242.362H242.417H242.473H242.528H242.583H242.639H242.694H242.749H242.805H242.86H242.915H242.971H243.026H243.081H243.137H243.192H243.248H243.303H243.358H243.414H243.469H243.524H243.58H243.635H243.69H243.746H243.801H243.856H243.912H243.967H244.022H244.078H244.133H244.189H244.244H244.299H244.355H244.41H244.465H244.521H244.576H244.631H244.687H244.742H244.797H244.853H244.908H244.963H245.019H245.074H245.129H245.185H245.24H245.296H245.351H245.406H245.462H245.517H245.572H245.628H245.683H245.738H245.794H245.849H245.904H245.96H246.015H246.07H246.126H246.181H246.237H246.292H246.347H246.403H246.458H246.513H246.569H246.624H246.679H246.735H246.79H246.845H246.901H246.956H247.011H247.067H247.122H247.177H247.233H247.288H247.344H247.399H247.454H247.51H247.565H247.62H247.676H247.731H247.786H247.842H247.897H247.952H248.008H248.063H248.118H248.174H248.229H248.285H248.34H248.395H248.451H248.506H248.561H248.617H248.672H248.727H248.786L248.844 5.91108C258.105 5.52521 267.558 5.3292 277.203 5.32322L280.208 6.32513C287.109 9.25272 292.754 13.985 297.167 20.6044L297.217 20.6802L297.273 20.7525C302.115 27.0845 304.84 33.6904 305.567 40.5958L305.576 40.68L305.59 40.7635C306.655 47.1544 305.425 52.9256 301.89 58.2281L301.853 58.2837L301.819 58.341C298.825 63.3309 293.185 66.9588 284.215 68.8357C266.283 71.9516 249.362 73.3081 233.445 72.9199C217.685 72.5259 203.885 72.3286 192.047 72.3286H189.239V75.1366C189.239 122.378 189.436 168.832 189.83 214.5C190.223 260.134 190.026 308.328 189.24 359.084L189.239 359.106V359.128C189.239 369.457 185.788 376.292 179.33 380.371L179.286 380.398L179.244 380.427Z" fill="#D38240" stroke="black" stroke-width="5.61594"/>
	</mask>
	<g mask="url(#mask0_179_7611)">
		<path d="M6.06519 17.1558C23.5147 17.1558 25.0103 24.6437 40.9642 24.6437C60.9064 24.6437 55.9209 17.1558 75.8632 17.1558C95.8054 17.1558 93.3126 23.7077 105.777 23.7077C118.24 23.7077 118.24 17.1558 138.183 17.1558C158.125 17.1558 150.647 23.7077 170.589 23.7077C190.531 23.7077 183.053 17.1558 200.502 17.1558" stroke="#7C4028" stroke-width="7.48792" stroke-linecap="round" stroke-linejoin="round"/>
		<path d="M394.94 17.1558C377.49 17.1558 375.994 24.6437 360.041 24.6437C340.098 24.6437 345.084 17.1558 325.142 17.1558C305.199 17.1558 307.692 23.7077 295.228 23.7077C282.764 23.7077 282.764 17.1558 262.822 17.1558C242.88 17.1558 250.358 23.7077 230.416 23.7077C210.474 23.7077 217.952 17.1558 200.502 17.1558" stroke="#7C4028" stroke-width="7.48792" stroke-linecap="round" stroke-linejoin="round"/>
		<path d="M-0.545288 53.6587C10.5846 53.6587 11.5386 61.1466 21.7145 61.1466C34.4343 61.1466 31.2544 53.6587 43.9742 53.6587C56.6941 53.6587 55.1041 60.2106 63.054 60.2106C71.0039 60.2106 71.0039 53.6587 83.7238 53.6587C96.4436 53.6587 91.6737 60.2106 104.394 60.2106C117.113 60.2106 112.343 53.6587 123.473 53.6587" stroke="#7C4028" stroke-width="7.48792" stroke-linecap="round" stroke-linejoin="round"/>
		<path d="M247.492 53.6587C236.362 53.6587 235.408 61.1466 225.232 61.1466C212.512 61.1466 215.692 53.6587 202.972 53.6587C190.253 53.6587 191.843 60.2106 183.893 60.2106C175.943 60.2106 175.943 53.6587 163.223 53.6587C150.503 53.6587 155.273 60.2106 142.553 60.2106C129.833 60.2106 134.603 53.6587 123.473 53.6587" stroke="#7C4028" stroke-width="7.48792" stroke-linecap="round" stroke-linejoin="round"/>
		<path d="M247.492 53.6587C258.622 53.6587 259.576 61.1466 269.752 61.1466C282.472 61.1466 279.292 53.6587 292.011 53.6587C304.731 53.6587 303.141 60.2106 311.091 60.2106C319.041 60.2106 319.041 53.6587 331.761 53.6587C344.481 53.6587 339.711 60.2106 352.431 60.2106C365.151 60.2106 360.381 53.6587 371.511 53.6587" stroke="#7C4028" stroke-width="7.48792" stroke-linecap="round" stroke-linejoin="round"/>
		<path d="M230.619 35.7202C229.177 38.0082 225.14 42.5841 220.526 42.5841C215.913 42.5841 210.915 38.0082 208.992 35.7202" stroke="#EED2A0" stroke-width="7.48792" stroke-linecap="round" stroke-linejoin="round"/>
		<path d="M17.2386 36.5768C19.6416 39.1508 25.0241 44.2987 27.3309 44.2987C29.6377 44.2987 35.0203 39.7228 37.4232 37.4348M63.3747 34.8608C65.7776 37.7208 71.1602 43.4407 73.467 43.4407C75.7738 43.4407 82.1175 37.7208 85.001 34.8608M109.511 34.8608C110.953 37.1488 114.989 41.7248 119.603 41.7248C124.217 41.7248 129.215 37.1488 131.137 34.8608M159.972 34.8608C161.894 37.1488 166.604 41.7248 170.064 41.7248C173.525 41.7248 179.195 37.1488 181.598 34.8608" stroke="#EED2A0" stroke-width="7.48792" stroke-linecap="round" stroke-linejoin="round"/>
		<path d="M428.138 35.7194C425.735 38.2934 420.353 43.4413 418.046 43.4413C415.739 43.4413 410.356 38.8654 407.954 36.5774M382.002 34.0034C379.599 36.8634 374.217 42.5833 371.91 42.5833C369.603 42.5833 363.259 36.8634 360.376 34.0034M327.215 34.0034C325.774 36.2914 321.737 40.8673 317.123 40.8673C312.51 40.8673 307.511 36.2914 305.589 34.0034M279.638 34.0034C277.715 36.2914 273.006 40.8673 269.545 40.8673C266.085 40.8673 260.414 36.2914 258.011 34.0034" stroke="#EED2A0" stroke-width="7.48792" stroke-linecap="round" stroke-linejoin="round"/>
		<path d="M43.9146 14.3462C42.7099 14.1601 42.5106 13.5108 42.5106 12.7631C42.5106 12.3437 44.1508 12.421 44.3826 12.7393" stroke="#EED2A0" stroke-width="3.74396" stroke-linecap="round"/>
		<path d="M108.112 12.7165C107.195 13.5197 106.569 13.255 105.996 12.7744C105.675 12.5048 106.789 11.298 107.181 11.3251" stroke="#EED2A0" stroke-width="3.74396" stroke-linecap="round"/>
		<path d="M171.963 13.1701C171.989 14.3888 171.385 14.6978 170.648 14.8276C170.235 14.9005 170.027 13.2717 170.3 12.9882" stroke="#EED2A0" stroke-width="3.74396" stroke-linecap="round"/>
		<path d="M229.746 12.6608C230.441 11.6596 231.112 11.7651 231.784 12.0929C232.161 12.2767 231.373 13.7171 230.985 13.7859" stroke="#EED2A0" stroke-width="2.80797" stroke-linecap="round"/>
		<path d="M43.9146 64.3374C42.7099 64.1513 42.5106 63.502 42.5106 62.7543C42.5106 62.3349 44.1508 62.4122 44.3826 62.7305" stroke="#EED2A0" stroke-width="3.74396" stroke-linecap="round"/>
		<path d="M83.7758 62.7096C82.8588 63.5129 82.2334 63.2482 81.6606 62.7676C81.3393 62.498 82.4528 61.2912 82.8456 61.3183" stroke="#EED2A0" stroke-width="3.74396" stroke-linecap="round"/>
		<path d="M123.292 61.2873C123.318 62.506 122.713 62.815 121.977 62.9448C121.564 63.0176 121.355 61.3889 121.628 61.1054" stroke="#EED2A0" stroke-width="3.74396" stroke-linecap="round"/>
		<path d="M162.164 63.0426C163.075 61.7319 163.953 61.87 164.833 62.2991C165.326 62.5398 164.294 64.4255 163.786 64.5155L162.4 64.4452" stroke="#EED2A0" stroke-width="2.80797" stroke-linecap="round"/>
		<path d="M203.033 64.6553C201.828 64.4691 201.629 63.8199 201.629 63.0722C201.629 62.6528 203.269 62.7301 203.501 63.0484" stroke="#EED2A0" stroke-width="3.74396" stroke-linecap="round"/>
		<path d="M248.51 63.0295C247.593 63.8327 246.968 63.568 246.395 63.0874C246.074 62.8178 247.187 61.611 247.58 61.6381" stroke="#EED2A0" stroke-width="3.74396" stroke-linecap="round"/>
		<path d="M75.7382 29.0879C74.5335 28.9018 74.3342 28.2525 74.3342 27.5048C74.3342 27.0854 75.9744 27.1627 76.2062 27.481" stroke="#EED2A0" stroke-width="3.74396" stroke-linecap="round"/>
		<path d="M140.14 26.0397C140.166 27.2584 139.561 27.5674 138.825 27.6973C138.412 27.7701 138.203 26.1414 138.476 25.8579" stroke="#EED2A0" stroke-width="3.74396" stroke-linecap="round"/>
		<path d="M199.794 27.403C200.489 26.4018 201.16 26.5073 201.832 26.8351C202.209 27.0189 201.421 28.4593 201.033 28.528" stroke="#EED2A0" stroke-width="2.80797" stroke-linecap="round"/>
		<path d="M268.552 27.4497C267.347 27.2636 267.148 26.6143 267.148 25.8666C267.148 25.4472 268.788 25.5245 269.02 25.8428" stroke="#EED2A0" stroke-width="3.74396" stroke-linecap="round"/>
		<path d="M289.144 44.2979C287.939 44.1117 287.74 43.4625 287.74 42.7148C287.74 42.2954 289.38 42.3727 289.612 42.691" stroke="#EED2A0" stroke-width="3.74396" stroke-linecap="round"/>
		<path d="M246.088 42.4258C244.884 42.2396 244.684 41.5904 244.684 40.8427C244.684 40.4233 246.325 40.5006 246.556 40.8189" stroke="#EED2A0" stroke-width="3.74396" stroke-linecap="round"/>
		<path d="M49.5306 44.0635C48.3259 43.8773 48.1266 43.2281 48.1266 42.4804C48.1266 42.061 49.7668 42.1383 49.9986 42.4566" stroke="#EED2A0" stroke-width="3.74396" stroke-linecap="round"/>
		<path d="M100.828 44.7594C100.854 45.9782 100.249 46.2871 99.5131 46.417C99.1001 46.4898 98.8914 44.8611 99.1646 44.5776" stroke="#EED2A0" stroke-width="3.74396" stroke-linecap="round"/>
		<path d="M145.507 46.1227C146.202 45.1215 146.873 45.227 147.545 45.5548C147.922 45.7387 147.133 47.179 146.746 47.2478" stroke="#EED2A0" stroke-width="2.80797" stroke-linecap="round"/>
		<path d="M195.545 44.2979C194.34 44.1117 194.141 43.4625 194.141 42.7148C194.141 42.2954 195.781 42.3727 196.013 42.691" stroke="#EED2A0" stroke-width="3.74396" stroke-linecap="round"/>
		<path d="M179.244 380.427C172.304 385.175 164.686 387.172 156.28 386.442C148.265 385.712 140.727 382.438 133.633 376.464C126.873 370.771 123.415 362.944 123.415 352.633V352.621L123.414 352.609C123.021 306.171 122.824 259.93 122.824 213.885V213.615V213.345V213.075V212.806V212.536V212.266V211.996V211.726V211.456V211.186V210.916V210.647V210.377V210.107V209.837V209.567V209.297V209.027V208.757V208.487V208.217V207.947V207.677V207.407V207.138V206.868V206.598V206.328V206.058V205.788V205.518V205.248V204.978V204.708V204.438V204.168V203.898V203.628V203.358V203.088V202.818V202.548V202.278V202.008V201.738V201.468V201.197V200.927V200.657V200.387V200.117V199.847V199.577V199.307V199.037V198.767V198.497V198.227V197.957V197.686V197.416V197.146V196.876V196.606V196.336V196.066V195.796V195.525V195.255V194.985V194.715V194.445V194.175V193.904V193.634V193.364V193.094V192.824V192.554V192.283V192.013V191.743V191.473V191.202V190.932V190.662V190.392V190.122V189.851V189.581V189.311V189.041V188.77V188.5V188.23V187.96V187.689V187.419V187.149V186.878V186.608V186.338V186.068V185.797V185.527V185.257V184.986V184.716V184.446V184.175V183.905V183.635V183.364V183.094V182.824V182.553V182.283V182.012V181.742V181.472V181.201V180.931V180.661V180.39V180.12V179.849V179.579V179.309V179.038V178.768V178.497V178.227V177.956V177.686V177.416V177.145V176.875V176.604V176.334V176.063V175.793V175.522V175.252V174.981V174.711V174.44V174.17V173.899V173.629V173.358V173.088V172.817V172.547V172.276V172.006V171.735V171.465V171.194V170.923V170.653V170.382V170.112V169.841V169.571V169.3V169.029V168.759V168.488V168.218V167.947V167.676V167.406V167.135V166.865V166.594V166.323V166.053V165.782V165.511V165.241V164.97V164.699V164.429V164.158V163.887V163.617V163.346V163.075V162.805V162.534V162.263V161.993V161.722V161.451V161.181V160.91V160.639V160.368V160.098V159.827V159.556V159.285V159.015V158.744V158.473V158.202V157.932V157.661V157.39V157.119V156.848V156.578V156.307V156.036V155.765V155.494V155.224V154.953V154.682V154.411V154.14V153.87V153.599V153.328V153.057V152.786V152.515V152.244V151.974V151.703V151.432V151.161V150.89V150.619V150.348V150.077V149.806V149.535V149.265V148.994V148.723V148.452V148.181V147.91V147.639V147.368V147.097V146.826V146.555V146.284V146.013V145.742V145.471V145.2V144.929V144.658V144.387V144.116V143.845V143.574V143.303V143.032V142.761V142.49V142.219V141.948V141.677V141.406V141.135V140.864V140.593V140.322V140.051V139.78V139.509V139.238V138.967V138.695V138.424V138.153V137.882V137.611V137.34V137.069V136.798V136.527V136.255V135.984V135.713V135.442V135.171V134.9V134.629V134.357V134.086V133.815V133.544V133.273V133.001V132.73V132.459V132.188V131.917V131.646V131.374V131.103V130.832V130.561V130.289V130.018V129.747V129.476V129.204V128.933V128.662V128.391V128.119V127.848V127.577V127.306V127.034V126.763V126.492V126.22V125.949V125.678V125.407V125.135V124.864V124.593V124.321V124.05V123.779V123.507V123.236V122.965V122.693V122.422V122.15V121.879V121.608V121.336V121.065V120.794V120.522V120.251V119.979V119.708V119.437V119.165V118.894V118.622V118.351V118.079V117.808V117.537V117.265V116.994V116.722V116.451V116.179V115.908V115.636V115.365V115.093V114.822V114.55V114.279V114.007V113.736V113.464V113.193V112.921V112.65V112.378V112.107V111.835V111.564V111.292V111.021V110.749V110.478V110.206V109.934V109.663V109.391V109.12V108.848V108.576V108.305V108.033V107.762V107.49V107.218V106.947V106.675V106.404V106.132V105.86V105.589V105.317V105.045V104.774V104.502V104.23V103.959V103.687V103.415V103.144V102.872V102.6V102.329V102.057V101.785V101.514V101.242V100.97V100.698V100.427V100.155V99.8832V99.6115V99.3397V99.068V98.7962V98.5245V98.2527V97.9809V97.7092V97.4374V97.1656V96.8938V96.6221V96.3503V96.0785V95.8067V95.5349V95.263V94.9912V94.7194V94.4476V94.1758V93.9039V93.6321V93.3603V93.0884V92.8166V92.5447V92.2728V92.001V91.7291V91.4572V91.1853V90.9135V90.6416V90.3697V90.0978V89.8259V89.554V89.2821V89.0102V88.7383V88.4663V88.1944V87.9225V87.6505V87.3786V87.1066V86.8347V86.5627V86.2908V86.0188V85.7468V85.4749V85.2029V84.9309V84.6589V84.3869V84.1149V83.8429V83.5709V83.2989V83.0269V82.7549V82.4829V82.2108V81.9388V81.6668V81.3947V81.1227V80.8506V80.5786V80.3065V80.0345V79.7624V79.4903V79.2183V78.9462V78.6741V78.402V78.1299V77.8578V77.5857V77.3136V77.0415V76.7694V76.4972V76.2251V75.953V75.6809V75.4087V75.1366V72.3286H120.016C116.403 72.3286 110.244 72.5284 101.586 72.9219L101.58 72.9222C93.3823 73.3126 84.1967 73.5087 74.0197 73.5095C64.2837 73.1186 54.1517 72.3394 43.6229 71.1706C33.2481 69.6292 24.3112 66.95 16.7679 63.1784C11.0501 60.3195 7.4896 56.3378 5.78547 51.2471C3.98435 45.4683 3.80362 39.7303 5.22748 33.9765C7.07427 28.1062 10.2115 22.5589 14.692 17.3317C18.9849 12.3233 24.3131 8.91196 30.7422 7.07138C63.6241 5.1221 95.3258 4.53954 125.848 5.32215L125.867 5.32262L125.885 5.32285C156.992 5.71663 188.493 5.91352 220.387 5.91352H220.443H220.498H220.553H220.609H220.664H220.719H220.775H220.83H220.885H220.941H220.996H221.051H221.107H221.162H221.218H221.273H221.328H221.384H221.439H221.494H221.55H221.605H221.66H221.716H221.771H221.826H221.882H221.937H221.992H222.048H222.103H222.159H222.214H222.269H222.325H222.38H222.435H222.491H222.546H222.601H222.657H222.712H222.767H222.823H222.878H222.933H222.989H223.044H223.1H223.155H223.21H223.266H223.321H223.376H223.432H223.487H223.542H223.598H223.653H223.708H223.764H223.819H223.874H223.93H223.985H224.04H224.096H224.151H224.207H224.262H224.317H224.373H224.428H224.483H224.539H224.594H224.649H224.705H224.76H224.815H224.871H224.926H224.981H225.037H225.092H225.148H225.203H225.258H225.314H225.369H225.424H225.48H225.535H225.59H225.646H225.701H225.756H225.812H225.867H225.922H225.978H226.033H226.089H226.144H226.199H226.255H226.31H226.365H226.421H226.476H226.531H226.587H226.642H226.697H226.753H226.808H226.863H226.919H226.974H227.029H227.085H227.14H227.196H227.251H227.306H227.362H227.417H227.472H227.528H227.583H227.638H227.694H227.749H227.804H227.86H227.915H227.97H228.026H228.081H228.137H228.192H228.247H228.303H228.358H228.413H228.469H228.524H228.579H228.635H228.69H228.745H228.801H228.856H228.911H228.967H229.022H229.077H229.133H229.188H229.244H229.299H229.354H229.41H229.465H229.52H229.576H229.631H229.686H229.742H229.797H229.852H229.908H229.963H230.018H230.074H230.129H230.185H230.24H230.295H230.351H230.406H230.461H230.517H230.572H230.627H230.683H230.738H230.793H230.849H230.904H230.959H231.015H231.07H231.126H231.181H231.236H231.292H231.347H231.402H231.458H231.513H231.568H231.624H231.679H231.734H231.79H231.845H231.9H231.956H232.011H232.066H232.122H232.177H232.233H232.288H232.343H232.399H232.454H232.509H232.565H232.62H232.675H232.731H232.786H232.841H232.897H232.952H233.007H233.063H233.118H233.174H233.229H233.284H233.34H233.395H233.45H233.506H233.561H233.616H233.672H233.727H233.782H233.838H233.893H233.948H234.004H234.059H234.115H234.17H234.225H234.281H234.336H234.391H234.447H234.502H234.557H234.613H234.668H234.723H234.779H234.834H234.889H234.945H235H235.055H235.111H235.166H235.222H235.277H235.332H235.388H235.443H235.498H235.554H235.609H235.664H235.72H235.775H235.83H235.886H235.941H235.996H236.052H236.107H236.163H236.218H236.273H236.329H236.384H236.439H236.495H236.55H236.605H236.661H236.716H236.771H236.827H236.882H236.937H236.993H237.048H237.103H237.159H237.214H237.27H237.325H237.38H237.436H237.491H237.546H237.602H237.657H237.712H237.768H237.823H237.878H237.934H237.989H238.044H238.1H238.155H238.211H238.266H238.321H238.377H238.432H238.487H238.543H238.598H238.653H238.709H238.764H238.819H238.875H238.93H238.985H239.041H239.096H239.152H239.207H239.262H239.318H239.373H239.428H239.484H239.539H239.594H239.65H239.705H239.76H239.816H239.871H239.926H239.982H240.037H240.092H240.148H240.203H240.259H240.314H240.369H240.425H240.48H240.535H240.591H240.646H240.701H240.757H240.812H240.867H240.923H240.978H241.033H241.089H241.144H241.2H241.255H241.31H241.366H241.421H241.476H241.532H241.587H241.642H241.698H241.753H241.808H241.864H241.919H241.974H242.03H242.085H242.14H242.196H242.251H242.307H242.362H242.417H242.473H242.528H242.583H242.639H242.694H242.749H242.805H242.86H242.915H242.971H243.026H243.081H243.137H243.192H243.248H243.303H243.358H243.414H243.469H243.524H243.58H243.635H243.69H243.746H243.801H243.856H243.912H243.967H244.022H244.078H244.133H244.189H244.244H244.299H244.355H244.41H244.465H244.521H244.576H244.631H244.687H244.742H244.797H244.853H244.908H244.963H245.019H245.074H245.129H245.185H245.24H245.296H245.351H245.406H245.462H245.517H245.572H245.628H245.683H245.738H245.794H245.849H245.904H245.96H246.015H246.07H246.126H246.181H246.237H246.292H246.347H246.403H246.458H246.513H246.569H246.624H246.679H246.735H246.79H246.845H246.901H246.956H247.011H247.067H247.122H247.177H247.233H247.288H247.344H247.399H247.454H247.51H247.565H247.62H247.676H247.731H247.786H247.842H247.897H247.952H248.008H248.063H248.118H248.174H248.229H248.285H248.34H248.395H248.451H248.506H248.561H248.617H248.672H248.727H248.786L248.844 5.91108C258.105 5.52521 267.558 5.3292 277.203 5.32322L280.208 6.32513C287.109 9.25272 292.754 13.985 297.167 20.6044L297.217 20.6802L297.273 20.7525C302.115 27.0845 304.84 33.6904 305.567 40.5958L305.576 40.68L305.59 40.7635C306.655 47.1544 305.425 52.9256 301.89 58.2281L301.853 58.2837L301.819 58.341C298.825 63.3309 293.185 66.9588 284.215 68.8357C266.283 71.9516 249.362 73.3081 233.445 72.9199C217.685 72.5259 203.885 72.3286 192.047 72.3286H189.239V75.1366C189.239 122.378 189.436 168.832 189.83 214.5C190.223 260.134 190.026 308.328 189.24 359.084L189.239 359.106V359.128C189.239 369.457 185.788 376.292 179.33 380.371L179.286 380.398L179.244 380.427Z" stroke="black" stroke-width="5.61594"/>
	</g>
</svg>
